<?xml version="1.0" encoding="UTF-8"?>
<svg id="_레이어_1" data-name="레이어_1" xmlns="http://www.w3.org/2000/svg" version="1.1" viewBox="0 0 700 340.75">
  <!-- Generator: Adobe Illustrator 29.6.0, SVG Export Plug-In . SVG Version: 2.1.1 Build 207)  -->
  <defs>
    <style>
      .st0 {
        fill: #ffafc8;
      }

      .st1 {
        fill: #fdebd1;
      }
    </style>
  </defs>
  <g>
    <rect class="st0" x="185.44" y="-173.82" width="329.13" height="700" transform="translate(526.18 -173.82) rotate(90)"/>
    <g>
      <circle class="st0" cx="688.38" cy="11.62" r="11.62"/>
      <circle class="st0" cx="667.87" cy="11.62" r="11.62"/>
      <circle class="st0" cx="647.37" cy="11.62" r="11.62"/>
      <circle class="st0" cx="626.86" cy="11.62" r="11.62"/>
      <circle class="st0" cx="606.35" cy="11.62" r="11.62"/>
      <circle class="st0" cx="585.84" cy="11.62" r="11.62"/>
      <circle class="st0" cx="565.33" cy="11.62" r="11.62"/>
      <circle class="st0" cx="544.83" cy="11.62" r="11.62"/>
      <circle class="st0" cx="524.32" cy="11.62" r="11.62"/>
      <circle class="st0" cx="503.81" cy="11.62" r="11.62"/>
      <circle class="st0" cx="483.3" cy="11.62" r="11.62"/>
      <circle class="st0" cx="462.79" cy="11.62" r="11.62"/>
      <circle class="st0" cx="442.29" cy="11.62" r="11.62"/>
      <circle class="st0" cx="421.78" cy="11.62" r="11.62"/>
      <circle class="st0" cx="401.27" cy="11.62" r="11.62"/>
      <circle class="st0" cx="380.76" cy="11.62" r="11.62"/>
      <circle class="st0" cx="360.25" cy="11.62" r="11.62"/>
      <circle class="st0" cx="339.75" cy="11.62" r="11.62"/>
      <circle class="st0" cx="319.24" cy="11.62" r="11.62"/>
      <circle class="st0" cx="298.73" cy="11.62" r="11.62"/>
      <circle class="st0" cx="278.22" cy="11.62" r="11.62"/>
      <circle class="st0" cx="257.71" cy="11.62" r="11.62"/>
      <circle class="st0" cx="237.21" cy="11.62" r="11.62"/>
      <circle class="st0" cx="216.7" cy="11.62" r="11.62"/>
      <circle class="st0" cx="196.19" cy="11.62" r="11.62"/>
      <circle class="st0" cx="175.68" cy="11.62" r="11.62"/>
      <circle class="st0" cx="155.17" cy="11.62" r="11.62"/>
      <circle class="st0" cx="134.67" cy="11.62" r="11.62"/>
      <circle class="st0" cx="114.16" cy="11.62" r="11.62"/>
      <circle class="st0" cx="93.65" cy="11.62" r="11.62"/>
      <circle class="st0" cx="73.14" cy="11.62" r="11.62"/>
      <circle class="st0" cx="52.63" cy="11.62" r="11.62"/>
      <circle class="st0" cx="32.13" cy="11.62" r="11.62"/>
      <circle class="st0" cx="11.62" cy="11.62" r="11.62"/>
    </g>
  </g>
  <g>
    <path class="st1" d="M311.93,79.58l25.11,3.37c.99.13,1.69,1.05,1.56,2.04l-1.08,8.08c-.13.99-1.05,1.69-2.04,1.56l-13.71-1.84-.48,3.6,12.76,1.71c.99.13,1.69,1.05,1.56,2.04l-.98,7.31c-.13.99-1.05,1.69-2.04,1.56l-12.76-1.71-.52,3.89,14.71,1.97c.99.13,1.69,1.05,1.56,2.04l-1.08,8.08c-.13.99-1.05,1.69-2.04,1.56l-26.12-3.5c-.99-.13-1.69-1.05-1.56-2.04l5.11-38.14c.13-.99,1.05-1.69,2.04-1.56Z"/>
    <path class="st1" d="M350.55,128.13l-.89-37.31c-.02-.97.75-1.78,1.72-1.8l11.63-.28c12.86-.31,24.55,3.97,24.93,19.6.34,14.36-10.69,20.91-22.8,21.2l-12.78.31c-.97.02-1.78-.75-1.8-1.72ZM363.1,100.4l.41,17.41.7-.02c6.4-.15,9.97-2.89,9.82-9.23-.12-5.25-3.95-8.33-9.71-8.19l-1.22.03Z"/>
    <path class="st1" d="M417.41,99.79c12.14,3.26,19.27,13.49,15.96,25.79-3.31,12.3-14.72,18.01-26.86,14.75-12.14-3.26-19.1-13.91-15.79-26.21s14.55-17.59,26.69-14.33ZM409.94,127.6c3.92,1.05,7.73-1.39,8.94-5.9s-.94-8.24-4.86-9.29c-3.97-1.07-7.65,1.1-8.86,5.61-1.21,4.51.81,8.52,4.78,9.59Z"/>
    <g>
      <path class="st1" d="M448.37,92.26l10.43,2.51c.98.24,1.59,1.22,1.35,2.2l-5.42,22.55c-.24.98-1.22,1.59-2.2,1.35l-10.43-2.51c-.98-.24-1.59-1.22-1.35-2.2l5.42-22.55c.24-.98,1.22-1.59,2.2-1.35Z"/>
      <path class="st1" d="M451.42,131.97c2.69-1.67,2.42-5.77-.53-6.93-.12-.05-.24-.09-.37-.13-1.7-.51-3.44-.03-4.64,1.07-.52-1.48-1.74-2.68-3.37-3.09-.11-.03-.22-.05-.33-.07-3.33-.59-5.78,3.11-4.07,6.03l3.97,6.8c.5.85,1.6,1.12,2.44.6l6.9-4.3Z"/>
    </g>
    <path class="st1" d="M300.95,129.3l-14,3.41c-.86.21-1.76-.22-2.13-1.02l-6.69-14.36.66,15.84c.04.89-.56,1.68-1.42,1.89l-14,3.41c-.91.22-1.85-.27-2.19-1.15l-13.44-35.48c-.4-1.05.21-2.2,1.3-2.47l8.33-2.02c.92-.23,1.87.28,2.19,1.17l9.17,24.8-2.44-26.51c-.09-.92.51-1.77,1.41-1.99l9.37-2.29c.9-.22,1.83.26,2.17,1.12l10.02,24.65-3.28-26.24c-.12-.94.48-1.82,1.41-2.05l8.32-2.02c1.09-.27,2.17.48,2.29,1.6l4.34,37.71c.11.93-.5,1.8-1.41,2.02Z"/>
  </g>
</svg>