<?xml version="1.0" encoding="UTF-8"?>
<svg id="_레이어_1" data-name="레이어_1" xmlns="http://www.w3.org/2000/svg" version="1.1" viewBox="0 0 700 448.83">
  <!-- Generator: Adobe Illustrator 29.6.0, SVG Export Plug-In . SVG Version: 2.1.1 Build 207)  -->
  <defs>
    <style>
      .st0 {
        fill: #7f7f7f;
        stroke: #7f7f7f;
      }

      .st0, .st1, .st2 {
        stroke-miterlimit: 10;
      }

      .st0, .st2 {
        stroke-width: .25px;
      }

      .st3 {
        fill: #ffc8d7;
      }

      .st1 {
        stroke-width: .75px;
      }

      .st1, .st2 {
        fill: #ee6092;
        stroke: #ee6092;
      }
    </style>
  </defs>
  <g>
    <rect class="st3" x="131.08" y="-120.09" width="437.84" height="700" transform="translate(579.91 -120.09) rotate(90)"/>
    <g>
      <circle class="st3" cx="688.38" cy="11.62" r="11.62"/>
      <circle class="st3" cx="667.87" cy="11.62" r="11.62"/>
      <circle class="st3" cx="647.37" cy="11.62" r="11.62"/>
      <circle class="st3" cx="626.86" cy="11.62" r="11.62"/>
      <circle class="st3" cx="606.35" cy="11.62" r="11.62"/>
      <circle class="st3" cx="585.84" cy="11.62" r="11.62"/>
      <circle class="st3" cx="565.33" cy="11.62" r="11.62"/>
      <circle class="st3" cx="544.83" cy="11.62" r="11.62"/>
      <circle class="st3" cx="524.32" cy="11.62" r="11.62"/>
      <circle class="st3" cx="503.81" cy="11.62" r="11.62"/>
      <circle class="st3" cx="483.3" cy="11.62" r="11.62"/>
      <circle class="st3" cx="462.79" cy="11.62" r="11.62"/>
      <circle class="st3" cx="442.29" cy="11.62" r="11.62"/>
      <circle class="st3" cx="421.78" cy="11.62" r="11.62"/>
      <circle class="st3" cx="401.27" cy="11.62" r="11.62"/>
      <circle class="st3" cx="380.76" cy="11.62" r="11.62"/>
      <circle class="st3" cx="360.25" cy="11.62" r="11.62"/>
      <circle class="st3" cx="339.75" cy="11.62" r="11.62"/>
      <circle class="st3" cx="319.24" cy="11.62" r="11.62"/>
      <circle class="st3" cx="298.73" cy="11.62" r="11.62"/>
      <circle class="st3" cx="278.22" cy="11.62" r="11.62"/>
      <circle class="st3" cx="257.71" cy="11.62" r="11.62"/>
      <circle class="st3" cx="237.21" cy="11.62" r="11.62"/>
      <circle class="st3" cx="216.7" cy="11.62" r="11.62"/>
      <circle class="st3" cx="196.19" cy="11.62" r="11.62"/>
      <circle class="st3" cx="175.68" cy="11.62" r="11.62"/>
      <circle class="st3" cx="155.17" cy="11.62" r="11.62"/>
      <circle class="st3" cx="134.67" cy="11.62" r="11.62"/>
      <circle class="st3" cx="114.16" cy="11.62" r="11.62"/>
      <circle class="st3" cx="93.65" cy="11.62" r="11.62"/>
      <circle class="st3" cx="73.14" cy="11.62" r="11.62"/>
      <circle class="st3" cx="52.63" cy="11.62" r="11.62"/>
      <circle class="st3" cx="32.13" cy="11.62" r="11.62"/>
      <circle class="st3" cx="11.62" cy="11.62" r="11.62"/>
    </g>
  </g>
  <g>
    <path class="st0" d="M209.05,238.42h4.93v-3.89h-8.21v-1.26h17.78v1.26h-8.21v3.89h4.9v6.12h-9.79v4.75l10.87-.58v1.26l-12.24.65v-7.34h9.79v-3.6h-9.83v-1.26ZM220.1,223.09h-9.65v6.34h10.33v1.26h-11.7v-8.86h11.02v1.26Z"/>
    <path class="st0" d="M226.04,231.44c0-.86.14-1.66.41-2.39.28-.73.66-1.37,1.15-1.91.49-.54,1.08-.97,1.76-1.28.68-.31,1.43-.47,2.25-.47s1.57.16,2.25.47c.68.31,1.27.74,1.76,1.28.49.54.88,1.18,1.15,1.91.28.73.41,1.53.41,2.39s-.14,1.66-.41,2.39c-.28.73-.66,1.37-1.15,1.91-.49.54-1.08.96-1.76,1.26-.68.3-1.43.45-2.25.45s-1.57-.15-2.25-.45c-.68-.3-1.27-.72-1.76-1.26-.49-.54-.88-1.18-1.15-1.91-.28-.73-.41-1.53-.41-2.39ZM227.41,231.44c0,1.37.38,2.5,1.13,3.4.76.9,1.78,1.35,3.08,1.35s2.32-.45,3.08-1.35c.76-.9,1.13-2.03,1.13-3.4s-.38-2.54-1.13-3.44-1.78-1.35-3.08-1.35-2.32.45-3.08,1.35c-.76.9-1.13,2.05-1.13,3.44ZM240.98,220.96h1.33v27.94h-1.33v-27.94Z"/>
    <path class="st0" d="M257.39,238.82c-.72-.36-1.39-.8-2-1.31-.61-.52-1.16-1.08-1.64-1.69-.48-.61-.89-1.25-1.24-1.93-.35-.67-.63-1.34-.85-2.02-.41,1.34-1.1,2.63-2.07,3.85-.97,1.22-2.19,2.2-3.65,2.92l-.65-1.19c.79-.38,1.53-.91,2.21-1.57s1.28-1.39,1.8-2.18c.52-.79.92-1.63,1.22-2.52.3-.89.45-1.76.45-2.63v-4.36h1.37v4.36c0,.86.15,1.75.45,2.65.3.9.71,1.76,1.22,2.59.52.83,1.12,1.58,1.8,2.25.68.67,1.42,1.2,2.21,1.58l-.65,1.19ZM256.49,229.89l4.64-.43v-8.5h1.33v27.94h-1.33v-18.14l-4.64.4v-1.26Z"/>
    <path class="st0" d="M279.64,224.28l-1.12.47-2.23-5.44,1.15-.47,2.2,5.44Z"/>
    <path class="st0" d="M300.85,238.39l-8.24.43v10.08h-1.37v-10.01l-8.17.47v-1.3l17.78-.9v1.22ZM286.27,228.24c0-.77.13-1.5.4-2.2.26-.7.64-1.31,1.13-1.85.49-.54,1.09-.97,1.8-1.28.71-.31,1.49-.47,2.36-.47s1.65.16,2.36.47c.71.31,1.31.74,1.8,1.28.49.54.87,1.16,1.13,1.85.26.7.4,1.43.4,2.2s-.13,1.51-.4,2.21c-.26.71-.64,1.33-1.13,1.85-.49.53-1.09.95-1.8,1.26-.71.31-1.49.47-2.36.47s-1.65-.16-2.36-.47c-.71-.31-1.31-.73-1.8-1.26-.49-.53-.87-1.15-1.13-1.85-.26-.71-.4-1.45-.4-2.21ZM287.63,228.24c0,.58.1,1.13.29,1.67.19.54.47,1.02.85,1.44.37.42.82.76,1.35,1.03.53.26,1.14.4,1.84.4s1.28-.13,1.82-.4c.54-.26,1-.61,1.37-1.03.37-.42.65-.9.85-1.44.19-.54.29-1.1.29-1.67s-.1-1.13-.29-1.67c-.19-.54-.47-1.02-.85-1.44-.37-.42-.83-.76-1.37-1.03s-1.15-.4-1.82-.4-1.31.13-1.84.4c-.53.26-.98.61-1.35,1.03-.37.42-.65.9-.85,1.44-.19.54-.29,1.1-.29,1.67Z"/>
    <path class="st0" d="M304.27,224.28h8.78v7.63h-7.56v6.01l8.96-.65v1.26l-10.33.76v-8.64h7.56v-5.11h-7.42v-1.26ZM318.27,220.96h1.33v27.94h-1.33v-27.94Z"/>
    <path class="st0" d="M326.62,218.84l1.15.47-2.23,5.44-1.12-.47,2.2-5.44Z"/>
    <path class="st0" d="M331.95,225.14h8.42v4.61c0,1.18-.23,2.23-.68,3.17-.46.94-1.06,1.79-1.82,2.57-.76.78-1.63,1.51-2.63,2.2-1,.68-2.03,1.35-3.11,2l-.79-1.12c.96-.6,1.9-1.21,2.83-1.82.92-.61,1.75-1.27,2.47-1.96.72-.7,1.3-1.45,1.73-2.27.43-.82.65-1.75.65-2.81v-3.31h-7.06v-1.26ZM344.62,220.96h1.37v10.94l3.56-.25v1.26l-3.56.25v15.73h-1.37v-27.94Z"/>
    <path class="st0" d="M375.36,220.96h1.37v27.94h-1.37v-5.18l-15.12.72v-1.26l5.76-.29v-7.81h-4.39v-11.74h9.86v1.26h-8.5v9.22h9.18v1.26h-4.79v7.74l7.99-.43v-21.42Z"/>
    <path class="st0" d="M381.63,225.14h8.78v4.61c0,1.18-.25,2.23-.74,3.17-.49.94-1.14,1.79-1.94,2.57s-1.72,1.51-2.75,2.2c-1.03.68-2.09,1.35-3.17,2l-.79-1.12c.96-.6,1.92-1.21,2.88-1.82.96-.61,1.82-1.27,2.57-1.96.76-.7,1.37-1.45,1.85-2.27.48-.82.72-1.75.72-2.81v-3.31h-7.42v-1.26ZM395.56,220.96h1.33v27.94h-1.33v-27.94Z"/>
    <path class="st0" d="M404.09,223.38h11.02v7.52h-9.97v5.47h11.05v1.26h-5.94v6.55l8.21-.47v1.3l-17.78.9v-1.26l8.21-.43v-6.59h-5.11v-7.99h9.97v-5h-9.65v-1.26Z"/>
    <path class="st0" d="M428.9,224.74h10.8v1.26h-10.8v-1.26ZM430.12,232.59c0-1.39.38-2.53,1.13-3.42.76-.89,1.77-1.33,3.04-1.33s2.32.44,3.06,1.33c.74.89,1.12,2.03,1.12,3.42s-.37,2.56-1.12,3.44c-.74.88-1.76,1.31-3.06,1.31s-2.29-.44-3.04-1.31c-.76-.88-1.13-2.02-1.13-3.44ZM431.49,232.59c0,1.01.23,1.84.7,2.5.47.66,1.17.99,2.11.99s1.67-.33,2.14-.99c.47-.66.7-1.49.7-2.5s-.23-1.84-.7-2.5c-.47-.66-1.18-.99-2.14-.99s-1.64.33-2.11.99c-.47.66-.7,1.49-.7,2.5ZM447.08,250.7c-.82-.55-1.58-1.25-2.3-2.11-.72-.85-1.26-1.79-1.62-2.83-.34,1.01-.84,1.94-1.51,2.79-.67.85-1.33,1.55-1.98,2.11-.65-.55-1.31-1.25-1.98-2.11-.67-.85-1.18-1.78-1.51-2.79-.36,1.03-.9,1.97-1.62,2.83-.72.85-1.49,1.55-2.3,2.11l-.68-1.01c.46-.34.92-.74,1.4-1.22.48-.48.91-1.04,1.28-1.67.37-.64.68-1.34.92-2.12.24-.78.36-1.64.36-2.57v-2.59h1.37v2.59c0,.82.08,1.57.25,2.25.17.68.38,1.31.65,1.89.26.58.56,1.09.88,1.55.32.46.65.85.99,1.19.31-.34.64-.73.97-1.19.34-.46.64-.97.9-1.55.26-.58.48-1.21.65-1.89.17-.68.25-1.43.25-2.25v-2.59h1.37v2.59c0,.94.12,1.79.36,2.57.24.78.55,1.49.92,2.12.37.64.79,1.19,1.26,1.67.47.48.94.89,1.42,1.22l-.68,1.01ZM431.7,220.46l5.18,1.22v1.3l-5.18-1.22v-1.3ZM440.56,220.21h1.33v7.74l3.64-.32v-8.1h1.37v18.86h-1.37v-9.47l-3.64.29v8.24h-1.33v-17.24Z"/>
    <path class="st0" d="M450.1,231.44c0-.89.14-1.7.41-2.45.28-.74.65-1.38,1.13-1.91.48-.53,1.05-.94,1.71-1.24.66-.3,1.37-.45,2.14-.45s1.48.15,2.14.45c.66.3,1.24.71,1.73,1.24.49.53.88,1.16,1.15,1.91.28.74.41,1.56.41,2.45s-.14,1.7-.41,2.45c-.28.74-.66,1.38-1.15,1.91-.49.53-1.07.94-1.73,1.22s-1.37.43-2.14.43-1.48-.14-2.14-.43c-.66-.29-1.23-.7-1.71-1.22-.48-.53-.86-1.16-1.13-1.91-.28-.74-.41-1.56-.41-2.45ZM451.47,231.44c0,1.44.37,2.59,1.1,3.46.73.86,1.71,1.3,2.93,1.3s2.21-.43,2.95-1.3c.74-.86,1.12-2.02,1.12-3.46s-.37-2.6-1.12-3.47c-.74-.88-1.73-1.31-2.95-1.31s-2.2.44-2.93,1.31c-.73.88-1.1,2.03-1.1,3.47ZM461.48,229.78l3.56-.36v-8.46h1.33v27.94h-1.33v-18.18l-3.56.32v-1.26Z"/>
    <path class="st0" d="M472.64,229.32c0-.94.16-1.8.49-2.59.32-.79.77-1.48,1.33-2.05.56-.58,1.24-1.03,2.02-1.35.78-.32,1.64-.49,2.57-.49s1.79.16,2.57.49c.78.32,1.45.77,2.02,1.35.56.58,1,1.26,1.31,2.05.31.79.47,1.66.47,2.59,0,1.08-.2,2.05-.59,2.92-.4.86-.94,1.58-1.64,2.16v9.25l4.75-.29v1.3l-17.78.9v-1.26l4.79-.25v-9.58c-.72-.6-1.28-1.34-1.69-2.21-.41-.88-.61-1.85-.61-2.93ZM474,229.32c0,.79.13,1.51.38,2.14.25.64.61,1.19,1.06,1.66.46.47.99.83,1.6,1.08.61.25,1.28.38,2,.38s1.38-.13,1.98-.38c.6-.25,1.13-.61,1.58-1.08.46-.47.81-1.02,1.06-1.66.25-.64.38-1.35.38-2.14s-.13-1.48-.38-2.12-.61-1.2-1.06-1.66c-.46-.46-.98-.81-1.58-1.06-.6-.25-1.26-.38-1.98-.38s-1.39.13-2,.38-1.15.61-1.6,1.06-.81,1.01-1.06,1.66-.38,1.36-.38,2.12ZM479.04,235.83c-1.03,0-1.94-.18-2.74-.54v8.71l5.51-.32v-8.42c-.89.38-1.81.58-2.77.58Z"/>
    <path class="st0" d="M490.89,242.71h1.37v5.69h-1.37v-5.69Z"/>
    <path class="st0" d="M97.54,285.1h11.74v1.26h-5.22v2.56c0,.86.15,1.73.45,2.59.3.86.71,1.69,1.22,2.47.52.78,1.12,1.49,1.8,2.12.68.64,1.42,1.15,2.21,1.53l-.65,1.19c-1.46-.72-2.68-1.66-3.65-2.83-.97-1.16-1.66-2.42-2.07-3.76-.41,1.34-1.1,2.57-2.07,3.67-.97,1.1-2.19,2.02-3.65,2.74l-.65-1.19c.79-.38,1.53-.89,2.21-1.51.68-.62,1.28-1.31,1.8-2.05.52-.74.92-1.54,1.22-2.39.3-.85.45-1.71.45-2.57v-2.56h-5.15v-1.26ZM108.19,290.61l4.64-.43v-9.22h1.33v27.94h-1.33v-17.42l-4.64.4v-1.26Z"/>
    <path class="st0" d="M117.44,286.33h13.68v1.26h-13.68v-1.26ZM132.96,280.96h1.37v27.94h-1.37v-5.87l-15.12.72v-1.26l15.12-.79v-20.74ZM119.39,294.36c0-.72.13-1.37.38-1.96.25-.59.6-1.09,1.04-1.49.44-.41.96-.73,1.55-.95.59-.23,1.23-.34,1.93-.34s1.34.11,1.94.34c.6.23,1.12.55,1.55.95.43.41.77.91,1.03,1.49.25.59.38,1.24.38,1.96s-.13,1.37-.38,1.96c-.25.59-.59,1.09-1.03,1.51-.43.42-.95.74-1.55.95-.6.22-1.25.32-1.94.32s-1.34-.11-1.93-.32c-.59-.22-1.1-.53-1.55-.95-.44-.42-.79-.92-1.04-1.51-.25-.59-.38-1.24-.38-1.96ZM120.76,294.36c0,1.01.32,1.84.97,2.5.65.66,1.5.99,2.56.99s1.94-.33,2.59-.99c.65-.66.97-1.49.97-2.5s-.32-1.84-.97-2.5c-.65-.66-1.51-.99-2.59-.99s-1.91.33-2.56.99c-.65.66-.97,1.49-.97,2.5ZM120.97,281.54l6.62,1.51v1.3l-6.62-1.51v-1.3Z"/>
    <path class="st0" d="M138.86,285.14h8.42v4.61c0,1.18-.23,2.23-.68,3.17-.46.94-1.06,1.79-1.82,2.57-.76.78-1.63,1.51-2.63,2.2-1,.68-2.03,1.35-3.11,2l-.79-1.12c.96-.6,1.9-1.21,2.83-1.82.92-.61,1.75-1.27,2.47-1.96.72-.7,1.3-1.45,1.73-2.27.43-.82.65-1.75.65-2.81v-3.31h-7.06v-1.26ZM151.54,280.96h1.37v10.94l3.56-.25v1.26l-3.56.25v15.73h-1.37v-27.94Z"/>
    <path class="st0" d="M166.33,284.49h12.24v1.26h-12.24v-1.26ZM167.92,291.62c0-.67.11-1.29.34-1.85.23-.56.54-1.05.94-1.46.4-.41.88-.73,1.44-.97.56-.24,1.17-.36,1.82-.36,1.34,0,2.44.44,3.28,1.31.84.88,1.26,1.99,1.26,3.33s-.42,2.48-1.26,3.35c-.84.86-1.93,1.3-3.28,1.3-.65,0-1.25-.11-1.82-.34-.56-.23-1.04-.55-1.44-.97s-.71-.91-.94-1.48c-.23-.56-.34-1.18-.34-1.85ZM169.28,291.62c0,.94.28,1.73.83,2.39.55.66,1.33.99,2.34.99s1.79-.33,2.36-.99c.56-.66.85-1.46.85-2.39s-.28-1.73-.85-2.39c-.56-.66-1.35-.99-2.36-.99s-1.79.33-2.34.99c-.55.66-.83,1.46-.83,2.39ZM169.32,280.46l6.26,1.62v1.3l-6.26-1.62v-1.3ZM181.96,300.98v9l-11.09.61v-9.61h11.09ZM172.24,309.26l8.35-.47v-6.59h-8.35v7.06ZM180.7,279.52h1.37v9.22l3.56-.25v1.26l-3.56.25v8.39h-1.37v-18.86Z"/>
    <path class="st0" d="M186.92,285.14h4.21v4.61c0,1.15-.06,2.17-.18,3.06-.12.89-.34,1.72-.65,2.48-.31.77-.72,1.49-1.22,2.18-.5.68-1.13,1.39-1.87,2.11l-.94-.94c.67-.62,1.23-1.24,1.67-1.85.44-.61.8-1.27,1.08-1.96.28-.7.47-1.46.59-2.29s.18-1.77.18-2.83v-3.31h-2.88v-1.26ZM191.96,285.14h4.21v4.61c0,1.15-.06,2.17-.18,3.06-.12.89-.34,1.72-.65,2.48-.31.77-.72,1.49-1.22,2.18-.5.68-1.13,1.39-1.87,2.11l-.94-.94c.67-.62,1.23-1.24,1.67-1.85.44-.61.8-1.27,1.08-1.96.28-.7.47-1.46.59-2.29s.18-1.77.18-2.83v-3.31h-2.88v-1.26ZM196.75,290.68l2.84-.22v-8.82h1.33v26.32h-1.33v-16.24l-2.84.22v-1.26ZM203.12,280.96h1.37v27.94h-1.37v-27.94Z"/>
    <path class="st0" d="M206.65,284.02h12.24v1.26h-12.24v-1.26ZM208.24,291.15c0-.65.11-1.24.34-1.76.23-.53.54-.99.94-1.39s.88-.7,1.44-.92c.56-.22,1.17-.32,1.82-.32,1.34,0,2.44.41,3.28,1.22.84.82,1.26,1.87,1.26,3.17s-.42,2.35-1.26,3.17c-.84.82-1.93,1.22-3.28,1.22s-2.41-.41-3.26-1.22c-.85-.82-1.28-1.87-1.28-3.17ZM209.6,291.15c0,.89.28,1.63.83,2.23.55.6,1.33.9,2.34.9s1.79-.3,2.36-.9c.56-.6.85-1.34.85-2.23s-.28-1.63-.85-2.23c-.56-.6-1.35-.9-2.36-.9s-1.79.3-2.34.9c-.55.6-.83,1.34-.83,2.23ZM209.64,280.1l6.26,1.62v1.3l-6.26-1.62v-1.3ZM210.79,299.11h11.45v6.05h-10.08v4.14l11.2-.61v1.26l-12.56.68v-6.73h10.08v-3.53h-10.08v-1.26ZM221.02,279.52h1.37v8.5l3.56-.25v1.26l-3.56.25v7.81h-1.37v-17.57Z"/>
    <path class="st0" d="M236.57,288.02c0-.84.14-1.6.41-2.27.28-.67.65-1.25,1.13-1.73s1.04-.85,1.67-1.12c.64-.26,1.33-.4,2.07-.4s1.44.13,2.09.4,1.21.64,1.69,1.12c.48.48.86,1.06,1.13,1.73.28.67.41,1.43.41,2.27s-.14,1.6-.41,2.27c-.28.67-.65,1.25-1.13,1.73-.48.48-1.04.85-1.69,1.1s-1.34.38-2.09.38-1.43-.13-2.07-.38c-.64-.25-1.19-.62-1.67-1.1-.48-.48-.86-1.06-1.13-1.73-.28-.67-.41-1.43-.41-2.27ZM237.94,288.02c0,1.27.37,2.29,1.1,3.06.73.77,1.67,1.15,2.83,1.15s2.1-.38,2.84-1.15c.74-.77,1.12-1.79,1.12-3.06s-.37-2.33-1.12-3.1c-.74-.77-1.69-1.15-2.84-1.15s-2.09.38-2.83,1.15c-.73.77-1.1,1.8-1.1,3.1ZM239.27,309.33l3.28-.22v-8.06h-2.92v-1.22h12.56v1.22h-2.92v7.7l3.28-.25v1.26l-13.28.83v-1.26ZM243.88,309.08l4.03-.29v-7.74h-4.03v8.03ZM250.18,279.52h1.37v8.86l3.56-.25v1.26l-3.56.25v8.03h-1.37v-18.14Z"/>
    <path class="st0" d="M266.74,293.64h-9.29v-11.63h1.37v10.4h7.92v1.22ZM260.11,298.39h11.45v6.41h-10.08v4.5l11.2-.61v1.26l-12.56.68v-7.09h10.08v-3.89h-10.08v-1.26ZM270.34,279.52h1.37v8.14l3.56-.25v1.26l-3.56.25v7.45h-1.37v-16.85Z"/>
    <path class="st0" d="M294.85,294.9h-17.78v-1.26h17.78v1.26ZM280.34,298.42h11.2v6.12h-9.79v4.75l10.87-.58v1.26l-12.24.65v-7.34h9.79v-3.6h-9.83v-1.26ZM280.6,285.9c0-.7.13-1.36.4-1.98.26-.62.63-1.16,1.1-1.62.47-.46,1.03-.82,1.69-1.08.66-.26,1.39-.4,2.18-.4s1.52.13,2.18.4c.66.26,1.22.62,1.69,1.08.47.46.83,1,1.08,1.62.25.62.38,1.28.38,1.98s-.13,1.39-.38,2c-.25.61-.61,1.15-1.08,1.62-.47.47-1.03.83-1.69,1.1s-1.39.4-2.18.4-1.52-.13-2.18-.4-1.22-.63-1.69-1.1c-.47-.47-.83-1.01-1.1-1.62s-.4-1.28-.4-2ZM281.96,285.9c0,.53.1,1.03.29,1.49.19.47.47.88.83,1.22.36.35.79.62,1.28.83.49.2,1.03.31,1.6.31s1.11-.1,1.6-.31c.49-.2.91-.48,1.26-.83s.62-.76.81-1.22c.19-.47.29-.97.29-1.49,0-1.08-.37-1.99-1.1-2.72-.73-.73-1.69-1.1-2.86-1.1-.58,0-1.11.1-1.6.31-.49.2-.92.47-1.28.81-.36.34-.64.74-.83,1.21-.19.47-.29.97-.29,1.49Z"/>
    <path class="st0" d="M316.63,286.36h-3.74v10.33l4.43-.32v1.26l-10.91.79v-13.28h10.22v1.22ZM307.74,297.06l3.78-.29v-10.4h-3.78v10.69ZM319.66,280.96h1.37v10.94l3.56-.25v1.26l-3.56.25v15.73h-1.37v-27.94Z"/>
    <path class="st0" d="M344.17,296.7h-17.78v-1.26h17.78v1.26ZM334.56,300.08h1.37v2.34c0,.89.19,1.7.56,2.43.37.73.86,1.39,1.48,1.98.61.59,1.31,1.1,2.09,1.55.78.44,1.59.81,2.43,1.1l-.54,1.19c-.72-.22-1.43-.5-2.14-.86-.71-.36-1.36-.76-1.94-1.21-.59-.44-1.11-.93-1.57-1.46-.46-.53-.8-1.08-1.04-1.66-.24.58-.59,1.13-1.04,1.66-.46.53-.98,1.01-1.58,1.46-.6.44-1.25.85-1.94,1.21-.7.36-1.4.65-2.12.86l-.54-1.19c.82-.29,1.62-.65,2.41-1.1.79-.44,1.49-.96,2.11-1.55.61-.59,1.1-1.25,1.48-1.98.37-.73.56-1.54.56-2.43v-2.34ZM341.08,283.09h-4.5v7.42h5.18v1.26h-12.42v-9.94h11.74v1.26ZM330.71,290.5h4.5v-7.42h-4.5v7.42Z"/>
    <path class="st0" d="M345.61,284.74h12.24v1.26h-12.24v-1.26ZM347.2,292.59c0-1.39.43-2.53,1.28-3.42.85-.89,1.94-1.33,3.26-1.33s2.44.44,3.28,1.33c.84.89,1.26,2.03,1.26,3.42s-.42,2.56-1.26,3.44c-.84.88-1.93,1.31-3.28,1.31s-2.41-.44-3.26-1.31-1.28-2.02-1.28-3.44ZM348.56,292.59c0,1.01.28,1.84.83,2.5.55.66,1.33.99,2.34.99s1.79-.33,2.36-.99c.56-.66.85-1.49.85-2.5s-.28-1.84-.85-2.5c-.56-.66-1.35-.99-2.36-.99s-1.79.33-2.34.99c-.55.66-.83,1.49-.83,2.5ZM348.6,280.46l6.26,1.62v1.3l-6.26-1.62v-1.3ZM362.6,309.66l-12.89.68v-9.43h1.37v8.1l11.52-.58v1.22ZM359.98,279.52h1.37v10.3l3.56-.25v1.26l-3.56.25v11.63h-1.37v-23.18Z"/>
    <path class="st0" d="M384.85,285.1v12.64l-8.6.61v-13.25h8.6ZM377.62,296.98l5.87-.43v-10.22h-5.87v10.66ZM389.14,280.96h1.37v10.94l3.56-.25v1.26l-3.56.25v15.73h-1.37v-27.94Z"/>
    <path class="st0" d="M413.65,296.7h-17.78v-1.26h17.78v1.26ZM410.7,300.62v9.47l-11.84.5v-9.97h11.84ZM399.29,286.54c0-.74.13-1.44.4-2.09.26-.65.63-1.22,1.1-1.71.47-.49,1.04-.88,1.71-1.17.67-.29,1.43-.43,2.27-.43s1.56.14,2.23.43c.67.29,1.25.68,1.73,1.17.48.49.85,1.06,1.1,1.71s.38,1.34.38,2.09-.13,1.41-.38,2.07-.62,1.23-1.1,1.71c-.48.48-1.06.86-1.73,1.15-.67.29-1.42.43-2.23.43s-1.6-.14-2.27-.43c-.67-.29-1.24-.67-1.71-1.15-.47-.48-.83-1.05-1.1-1.71-.26-.66-.4-1.35-.4-2.07ZM400.22,309.26l9.11-.36v-7.06h-9.11v7.42ZM400.66,286.54c0,.55.1,1.08.29,1.58.19.5.47.94.83,1.31.36.37.79.67,1.3.88.5.22,1.07.32,1.69.32s1.19-.11,1.69-.32c.5-.22.93-.51,1.28-.88.35-.37.62-.81.81-1.31.19-.5.29-1.03.29-1.58s-.1-1.08-.29-1.58c-.19-.5-.46-.94-.81-1.31-.35-.37-.77-.67-1.28-.9-.5-.23-1.07-.34-1.69-.34s-1.19.11-1.69.34c-.5.23-.94.53-1.3.9-.36.37-.64.81-.83,1.31-.19.5-.29,1.03-.29,1.58Z"/>
    <path class="st0" d="M433.81,303.72v1.3l-17.78.9v-1.26l17.78-.94ZM418.51,289.32c0-.94.16-1.8.49-2.59.32-.79.77-1.48,1.33-2.05.56-.58,1.24-1.03,2.02-1.35.78-.32,1.64-.49,2.57-.49s1.79.16,2.57.49c.78.32,1.45.77,2.02,1.35.56.58,1,1.26,1.31,2.05.31.79.47,1.66.47,2.59s-.16,1.81-.47,2.61c-.31.8-.75,1.49-1.31,2.07-.56.58-1.24,1.03-2.02,1.35-.78.32-1.64.49-2.57.49s-1.79-.16-2.57-.49c-.78-.32-1.45-.77-2.02-1.35-.56-.58-1.01-1.27-1.33-2.07-.32-.8-.49-1.67-.49-2.61ZM419.88,289.32c0,.79.13,1.51.38,2.14.25.64.61,1.19,1.06,1.66.46.47.99.83,1.6,1.08.61.25,1.28.38,2,.38s1.38-.13,1.98-.38c.6-.25,1.13-.61,1.58-1.08.46-.47.81-1.02,1.06-1.66.25-.64.38-1.35.38-2.14s-.13-1.48-.38-2.12-.61-1.2-1.06-1.66c-.46-.46-.98-.81-1.58-1.06-.6-.25-1.26-.38-1.98-.38s-1.39.13-2,.38-1.15.61-1.6,1.06-.81,1.01-1.06,1.66-.38,1.36-.38,2.12Z"/>
    <path class="st0" d="M439.61,283.38h11.02v7.52h-9.97v5.47h11.05v1.26h-5.94v6.55l8.21-.47v1.3l-17.78.9v-1.26l8.21-.43v-6.59h-5.11v-7.99h9.97v-5h-9.65v-1.26Z"/>
    <path class="st0" d="M468.26,301.52h5.29v-3.92h-8.21v-1.26h17.78v1.26h-8.21v3.92h5.11v8.96h-1.37v-7.7h-10.4v-1.26ZM467.43,284.02h13.61v1.26h-6.16v.5c0,.91.19,1.72.56,2.43.37.71.86,1.34,1.48,1.91.61.56,1.31,1.06,2.09,1.49.78.43,1.59.82,2.43,1.15l-.58,1.19c-1.51-.5-2.88-1.19-4.1-2.05-1.22-.86-2.08-1.86-2.56-2.99-.48,1.13-1.33,2.12-2.56,2.99-1.22.86-2.59,1.55-4.1,2.05l-.58-1.19c.82-.34,1.62-.72,2.41-1.15s1.49-.93,2.11-1.49c.61-.56,1.1-1.2,1.48-1.91s.56-1.52.56-2.43v-.5h-6.08v-1.26ZM470.93,279.85l6.62,1.51v1.3l-6.62-1.51v-1.3Z"/>
    <path class="st0" d="M503.29,298.28h-17.78v-1.22h8.24v-3.96h-4.93v-11.16h1.37v4.28h8.46v-4.28h1.37v11.16h-4.93v3.96h8.21v1.22ZM488.42,301.52h11.77v8.96h-1.37v-7.7h-10.4v-1.26ZM490.19,291.84h8.46v-4.36h-8.46v4.36Z"/>
    <path class="st0" d="M504.73,287.08h10.8v1.26h-10.8v-1.26ZM505.95,295.47c0-1.44.39-2.59,1.17-3.46.78-.86,1.78-1.3,3.01-1.3s2.23.43,3.01,1.3c.78.86,1.17,2.02,1.17,3.46s-.39,2.62-1.17,3.47c-.78.85-1.78,1.28-3.01,1.28s-2.23-.43-3.01-1.28c-.78-.85-1.17-2.01-1.17-3.47ZM507.32,295.47c0,1.01.26,1.84.77,2.5.52.66,1.19.99,2.03.99s1.52-.33,2.05-.99c.53-.66.79-1.49.79-2.5s-.26-1.84-.79-2.5c-.53-.66-1.21-.99-2.05-.99s-1.52.33-2.03.99c-.52.66-.77,1.49-.77,2.5ZM507.54,282.8l5.18,1.22v1.3l-5.18-1.22v-1.3ZM516.39,281.65h1.33v9.18l3.64-.32v-9.54h1.37v27.94h-1.37v-17.1l-3.64.29v15.88h-1.33v-26.32Z"/>
    <path class="st0" d="M552.61,298.39l-8.24.43v10.08h-1.37v-10.01l-8.17.47v-1.3l17.78-.9v1.22ZM536.91,282.58h13.61v1.26h-6.16v.86c0,.94.19,1.81.56,2.63.37.82.86,1.56,1.48,2.23.61.67,1.31,1.28,2.09,1.82.78.54,1.59,1,2.43,1.39l-.58,1.19c-1.51-.7-2.88-1.57-4.1-2.61s-2.08-2.21-2.56-3.51c-.48,1.3-1.33,2.47-2.56,3.51-1.22,1.04-2.59,1.91-4.1,2.61l-.58-1.19c.82-.38,1.62-.85,2.41-1.39s1.49-1.15,2.11-1.82c.61-.67,1.1-1.42,1.48-2.23.37-.82.56-1.69.56-2.63v-.86h-6.08v-1.26Z"/>
    <path class="st0" d="M566.65,298.82c-.72-.36-1.4-.8-2.03-1.31-.64-.52-1.21-1.08-1.71-1.69-.5-.61-.94-1.25-1.3-1.93s-.65-1.34-.86-2.02c-.41,1.34-1.13,2.63-2.16,3.85-1.03,1.22-2.28,2.2-3.74,2.92l-.65-1.19c.79-.38,1.54-.91,2.25-1.57.71-.66,1.33-1.39,1.87-2.18s.97-1.63,1.28-2.52c.31-.89.47-1.76.47-2.63v-4.36h1.37v4.36c0,.86.16,1.75.47,2.65.31.9.74,1.76,1.28,2.59.54.83,1.16,1.58,1.87,2.25.71.67,1.46,1.2,2.25,1.58l-.65,1.19ZM570.03,280.96h1.33v27.94h-1.33v-27.94Z"/>
    <path class="st0" d="M584.65,282.94v11.66h-8.6v-11.66h8.6ZM577.41,293.35h5.87v-9.14h-5.87v9.14ZM592.79,309.66l-13.25.68v-10.15h1.37v8.82l11.88-.58v1.22ZM586.27,290.94l3.92-.43v-4.46h-3.92v-1.26h3.92v-5.26h1.33v22.46h-1.33v-10.19l-3.92.4v-1.26Z"/>
    <path class="st0" d="M203.47,346.36h-7.81v10.69l8.5-.61v1.3l-9.83.68v-13.28h9.14v1.22ZM202.03,350.5h6.44v-9.54h1.33v27.94h-1.33v-17.14h-6.44v-1.26Z"/>
    <path class="st0" d="M222.76,347.84c0-.82.14-1.55.41-2.21.28-.66.65-1.22,1.12-1.69s1.03-.83,1.67-1.08c.65-.25,1.34-.38,2.09-.38s1.45.13,2.11.38c.66.25,1.22.61,1.69,1.08.47.47.84,1.03,1.12,1.69.28.66.41,1.4.41,2.21s-.14,1.52-.41,2.18c-.28.66-.65,1.22-1.12,1.69-.47.47-1.03.83-1.69,1.08-.66.25-1.36.38-2.11.38s-1.44-.13-2.09-.38c-.65-.25-1.21-.61-1.67-1.08s-.84-1.03-1.12-1.69c-.28-.66-.41-1.39-.41-2.18ZM224.13,347.84c0,1.22.37,2.21,1.12,2.95.74.74,1.68,1.12,2.81,1.12s2.07-.37,2.83-1.12c.76-.74,1.13-1.73,1.13-2.95s-.38-2.21-1.13-2.97c-.76-.76-1.7-1.13-2.83-1.13s-2.06.38-2.81,1.13c-.74.76-1.12,1.75-1.12,2.97ZM240.73,370.74c-1.06-.7-1.9-1.49-2.54-2.39-.64-.9-1.12-1.88-1.46-2.93-.34,1.06-.83,2.03-1.48,2.92-.65.89-1.5,1.69-2.56,2.41l-.54-.72v.14l-6.7.43v-12.85h1.37v5.04h4v-5.04h1.33v11.81c.53-.43,1.03-.89,1.51-1.39.48-.49.89-1.05,1.24-1.67.35-.62.62-1.33.83-2.11.2-.78.31-1.66.31-2.65v-4h1.37v4c0,1.01.11,1.91.32,2.7.22.79.51,1.51.88,2.16.37.65.8,1.22,1.3,1.73.49.5,1.03.97,1.6,1.4l-.79,1.01ZM226.83,369.22l4-.22v-4.97h-4v5.18ZM234.07,346.47l3.56-.32v-6.62h1.33v16.85h-1.33v-8.93l-3.56.29v-1.26Z"/>
    <path class="st0" d="M260.53,356.7h-17.78v-1.26h17.78v1.26ZM258.65,369.62l-12.64.72v-9.58h1.37v8.24l11.27-.61v1.22ZM257.75,351.76h-11.7v-10.55h1.37v9.32h10.33v1.22Z"/>
    <path class="st0" d="M273.02,345.14h8.78v4.61c0,1.18-.25,2.23-.74,3.17-.49.94-1.14,1.79-1.94,2.57s-1.72,1.51-2.75,2.2c-1.03.68-2.09,1.35-3.17,2l-.79-1.12c.96-.6,1.92-1.21,2.88-1.82.96-.61,1.82-1.27,2.57-1.96.76-.7,1.37-1.45,1.85-2.27.48-.82.72-1.75.72-2.81v-3.31h-7.42v-1.26ZM286.95,340.96h1.33v27.94h-1.33v-27.94Z"/>
    <path class="st0" d="M309.85,357.96h-17.78v-1.26h17.78v1.26ZM294.47,341.94h1.37v4.28h3.2v-4.28h1.37v11.16h-5.94v-11.16ZM306.89,361.52v8.57l-11.84.5v-9.07h11.84ZM295.84,351.84h3.2v-4.36h-3.2v4.36ZM296.42,369.26l9.11-.36v-6.16h-9.11v6.52ZM301.53,341.94h1.37v4.28h3.2v-4.28h1.37v11.16h-5.94v-11.16ZM302.9,351.84h3.2v-4.36h-3.2v4.36Z"/>
    <path class="st0" d="M330.01,363.72v1.3l-17.78.9v-1.26l17.78-.94ZM314.71,349.32c0-.94.16-1.8.49-2.59.32-.79.77-1.48,1.33-2.05.56-.58,1.24-1.03,2.02-1.35.78-.32,1.64-.49,2.57-.49s1.79.16,2.57.49c.78.32,1.45.77,2.02,1.35.56.58,1,1.26,1.31,2.05.31.79.47,1.66.47,2.59s-.16,1.81-.47,2.61c-.31.8-.75,1.49-1.31,2.07-.56.58-1.24,1.03-2.02,1.35-.78.32-1.64.49-2.57.49s-1.79-.16-2.57-.49c-.78-.32-1.45-.77-2.02-1.35-.56-.58-1.01-1.27-1.33-2.07-.32-.8-.49-1.67-.49-2.61ZM316.07,349.32c0,.79.13,1.51.38,2.14.25.64.61,1.19,1.06,1.66.46.47.99.83,1.6,1.08.61.25,1.28.38,2,.38s1.38-.13,1.98-.38c.6-.25,1.13-.61,1.58-1.08.46-.47.81-1.02,1.06-1.66.25-.64.38-1.35.38-2.14s-.13-1.48-.38-2.12-.61-1.2-1.06-1.66c-.46-.46-.98-.81-1.58-1.06-.6-.25-1.26-.38-1.98-.38s-1.39.13-2,.38-1.15.61-1.6,1.06-.81,1.01-1.06,1.66-.38,1.36-.38,2.12Z"/>
    <path class="st0" d="M335.8,343.38h11.02v7.52h-9.97v5.47h11.05v1.26h-5.94v6.55l8.21-.47v1.3l-17.78.9v-1.26l8.21-.43v-6.59h-5.11v-7.99h9.97v-5h-9.65v-1.26Z"/>
    <path class="st0" d="M362.3,343.02h8.42v3.74c0,1.01-.23,1.96-.68,2.86-.46.9-1.06,1.75-1.82,2.54-.76.79-1.63,1.54-2.63,2.23-1,.7-2.03,1.34-3.11,1.94l-.83-1.12c.96-.53,1.9-1.1,2.83-1.73.92-.62,1.75-1.28,2.47-1.98.72-.7,1.3-1.44,1.75-2.23.44-.79.67-1.64.67-2.56v-2.45h-7.06v-1.26ZM377.6,369.66l-12.89.68v-10.15h1.37v8.82l11.52-.58v1.22ZM374.97,339.52h1.37v9.94l3.56-.25v1.26l-3.56.25v11.27h-1.37v-22.46Z"/>
    <path class="st0" d="M381.45,342.94h12.1v1.26h-5.4v1.84c0,.86.16,1.68.47,2.45.31.77.74,1.48,1.28,2.12.54.65,1.16,1.23,1.87,1.75.71.52,1.46.95,2.25,1.31l-.65,1.19c-1.46-.62-2.71-1.41-3.74-2.36-1.03-.95-1.75-2-2.16-3.15-.41,1.15-1.13,2.17-2.16,3.06-1.03.89-2.28,1.64-3.74,2.27l-.65-1.19c.79-.36,1.54-.79,2.25-1.28.71-.49,1.33-1.05,1.87-1.67.54-.62.97-1.31,1.28-2.07.31-.76.47-1.57.47-2.43v-1.84h-5.33v-1.26ZM385.48,360.3l12.49-.9v11.09h-1.37v-9.72l-11.12.79v-1.26ZM396.75,339.52h1.33v18.14h-1.33v-18.14Z"/>
    <path class="st0" d="M400.93,347.44h12.24v1.26h-12.24v-1.26ZM402.51,355.47c0-1.44.43-2.59,1.28-3.46.85-.86,1.94-1.3,3.26-1.3s2.44.43,3.28,1.3c.84.86,1.26,2.02,1.26,3.46s-.42,2.62-1.26,3.47c-.84.85-1.93,1.28-3.28,1.28s-2.41-.43-3.26-1.28-1.28-2.01-1.28-3.47ZM403.88,355.47c0,1.01.28,1.84.83,2.5.55.66,1.33.99,2.34.99s1.79-.33,2.36-.99c.56-.66.85-1.49.85-2.5s-.28-1.84-.85-2.5c-.56-.66-1.35-.99-2.36-.99s-1.79.33-2.34.99c-.55.66-.83,1.49-.83,2.5ZM403.91,342.51l6.26,1.62v1.3l-6.26-1.62v-1.3ZM415.29,340.96h1.37v10.94l3.56-.25v1.26l-3.56.25v15.73h-1.37v-27.94Z"/>
    <path class="st0" d="M422.42,343.02h7.34v3.74c0,1.97-.65,3.75-1.94,5.35-1.3,1.6-3.04,3.01-5.22,4.23l-.83-1.12c.98-.53,1.88-1.1,2.7-1.73.82-.62,1.52-1.29,2.11-2,.59-.71,1.04-1.46,1.37-2.25.32-.79.49-1.63.49-2.52v-2.45h-6.01v-1.26ZM439.27,370.7c-.82-.55-1.58-1.25-2.3-2.11-.72-.85-1.26-1.79-1.62-2.83-.34,1.01-.84,1.94-1.51,2.79-.67.85-1.33,1.55-1.98,2.11-.65-.55-1.31-1.25-1.98-2.11-.67-.85-1.18-1.78-1.51-2.79-.36,1.03-.9,1.97-1.62,2.83-.72.85-1.49,1.55-2.3,2.11l-.68-1.01c.46-.34.92-.74,1.4-1.22.48-.48.91-1.04,1.28-1.67.37-.64.68-1.34.92-2.12.24-.78.36-1.64.36-2.57v-3.31h1.37v3.31c0,.82.08,1.57.25,2.25.17.68.38,1.31.65,1.89.26.58.56,1.09.88,1.55.32.46.65.85.99,1.19.31-.34.64-.73.97-1.19.34-.46.64-.97.9-1.55.26-.58.48-1.21.65-1.89.17-.68.25-1.43.25-2.25v-3.31h1.37v3.31c0,.94.12,1.79.36,2.57.24.78.55,1.49.92,2.12.37.64.79,1.19,1.26,1.67.47.48.94.89,1.42,1.22l-.68,1.01ZM430.27,347.48l3.2-.25v-7.02h1.33v16.52h-1.33v-8.24l-3.2.25v-1.26ZM437.72,339.52h1.37v18.14h-1.37v-18.14Z"/>
    <path class="st0" d="M459.97,354.9h-17.78v-1.26h17.78v1.26ZM457.7,351.37c-1.51-.41-2.88-1.07-4.1-2-1.22-.92-2.08-2-2.56-3.22-.48,1.22-1.33,2.3-2.56,3.22-1.22.92-2.59,1.59-4.1,2l-.58-1.19c.82-.24,1.62-.58,2.41-1.03.79-.44,1.49-.97,2.11-1.58s1.1-1.3,1.48-2.07c.37-.77.56-1.6.56-2.48v-1.76h1.37v1.76c0,.89.19,1.72.56,2.48.37.77.86,1.46,1.48,2.07.61.61,1.31,1.14,2.09,1.58.78.44,1.59.79,2.43,1.03l-.58,1.19ZM445.17,358.5h1.37v4.43h9.11v-4.43h1.37v11.59l-11.84.5v-12.1ZM446.54,369.26l9.11-.36v-4.72h-9.11v5.08Z"/>
    <path class="st0" d="M473.97,357.74l-10.73.79v-14h1.37v12.64l9.36-.65v1.22ZM477.39,340.96h1.33v27.94h-1.33v-27.94Z"/>
    <path class="st0" d="M491.47,346.36h-7.09v10.69l7.78-.58v1.3l-9.11.65v-13.28h8.42v1.22ZM495.93,340.96h1.37v10.94l3.56-.25v1.26l-3.56.25v15.73h-1.37v-27.94Z"/>
    <path class="st0" d="M503.24,362.71h1.37v5.69h-1.37v-5.69Z"/>
  </g>
  <g>
    <g>
      <path class="st2" d="M192.25,140.28v12.48l11.86-.68v1.87l-25.69,1.3v-1.82l11.86-.62v-12.53h1.98ZM200.83,143.19c-1.07-.48-2.11-1.09-3.12-1.82-1.01-.73-1.93-1.52-2.78-2.37-.85-.85-1.6-1.76-2.24-2.73-.64-.97-1.14-1.96-1.48-2.96-.35,1.01-.84,1.99-1.48,2.96-.64.97-1.39,1.88-2.24,2.73-.85.85-1.78,1.64-2.78,2.37-1.01.73-2.05,1.33-3.12,1.82l-.83-1.72c1.18-.55,2.34-1.27,3.48-2.16,1.14-.88,2.16-1.88,3.04-2.99.88-1.11,1.59-2.31,2.13-3.59.54-1.28.81-2.6.81-3.95v-6.97h1.98v6.97c0,1.35.27,2.67.81,3.95.54,1.28,1.25,2.48,2.13,3.59.88,1.11,1.89,2.11,3.02,2.99,1.13.88,2.3,1.6,3.51,2.16l-.83,1.72Z"/>
      <path class="st2" d="M212.37,154.16c0-2.08.65-3.85,1.95-5.3,1.3-1.46,2.99-2.31,5.07-2.55v-4.89h-11.86v-1.82h25.69v1.82h-11.86v4.89c1.01.1,1.94.38,2.81.83.87.45,1.61,1.02,2.24,1.72.62.69,1.11,1.49,1.46,2.39.35.9.52,1.87.52,2.91,0,1.11-.2,2.15-.6,3.12-.4.97-.96,1.81-1.69,2.52-.73.71-1.58,1.27-2.55,1.66-.97.4-2.03.6-3.17.6s-2.2-.2-3.17-.6c-.97-.4-1.82-.95-2.55-1.66-.73-.71-1.29-1.55-1.69-2.52-.4-.97-.6-2.01-.6-3.12ZM210.55,120.41h19.66v1.82h-8.89v.73c0,1.28.27,2.5.81,3.64.54,1.14,1.25,2.18,2.13,3.12.88.94,1.89,1.78,3.02,2.52,1.13.75,2.3,1.36,3.51,1.85l-.83,1.72c-2.18-.87-4.16-2-5.93-3.41-1.77-1.4-3-3.04-3.69-4.91-.69,1.87-1.92,3.51-3.69,4.91-1.77,1.4-3.74,2.54-5.93,3.41l-.83-1.72c1.18-.49,2.34-1.1,3.48-1.85,1.14-.75,2.16-1.59,3.04-2.52s1.59-1.98,2.13-3.12c.54-1.14.81-2.36.81-3.64v-.73h-8.79v-1.82ZM214.3,154.16c0,1.8.56,3.27,1.69,4.39s2.59,1.69,4.39,1.69,3.26-.56,4.37-1.69c1.11-1.13,1.66-2.59,1.66-4.39s-.55-3.22-1.66-4.37c-1.11-1.14-2.57-1.72-4.37-1.72s-3.27.57-4.39,1.72c-1.13,1.14-1.69,2.6-1.69,4.37Z"/>
      <path class="st2" d="M235.3,124.68h17.68v1.82h-17.68v-1.82ZM237.59,136.01c0-2.01.62-3.66,1.85-4.94,1.23-1.28,2.8-1.92,4.71-1.92s3.52.64,4.73,1.92c1.21,1.28,1.82,2.93,1.82,4.94s-.61,3.7-1.82,4.97c-1.21,1.27-2.79,1.9-4.73,1.9s-3.48-.63-4.71-1.9c-1.23-1.26-1.85-2.92-1.85-4.97ZM239.57,136.01c0,1.46.4,2.66,1.2,3.61.8.95,1.92,1.43,3.38,1.43s2.59-.48,3.41-1.43c.81-.95,1.22-2.16,1.22-3.61s-.41-2.66-1.22-3.61c-.81-.95-1.95-1.43-3.41-1.43s-2.58.48-3.38,1.43c-.8.95-1.2,2.16-1.2,3.61ZM239.62,118.49l9.05,2.34v1.87l-9.05-2.34v-1.87ZM259.85,160.66l-18.62.99v-13.62h1.98v11.7l16.64-.83v1.77ZM256.05,117.14h1.98v14.87l5.15-.36v1.82l-5.15.36v16.8h-1.98v-33.49Z"/>
      <path class="st2" d="M291.15,152.76v-8.74h-12.38v-1.82h25.69v1.82h-11.34v8.74h-1.98ZM301.76,160.61l-18.25,1.04v-12.53h1.98v10.61l16.28-.88v1.77ZM283.56,120.62h1.98v6.19h12.22v-6.19h1.98v16.12h-16.17v-16.12ZM285.54,134.92h12.22v-6.29h-12.22v6.29Z"/>
      <path class="st2" d="M333.58,139.34h-25.69v-1.82h25.69v1.82ZM312.63,144.44h16.17v8.84h-14.14v6.86l15.7-.83v1.82l-17.68.94v-10.61h14.14v-5.2h-14.2v-1.82ZM328.59,122.29h-13.94v9.15h14.92v1.82h-16.9v-12.79h15.91v1.82Z"/>
      <path class="st2" d="M362.7,139.34h-25.69v-1.82h25.69v1.82ZM341.75,144.44h16.17v8.84h-14.14v6.86l15.7-.83v1.82l-17.68.94v-10.61h14.14v-5.2h-14.2v-1.82ZM342.11,126.34c0-1.01.19-1.96.57-2.86.38-.9.91-1.68,1.59-2.34.68-.66,1.49-1.18,2.44-1.56.95-.38,2-.57,3.15-.57s2.19.19,3.15.57c.95.38,1.77.9,2.44,1.56.68.66,1.2,1.44,1.56,2.34.36.9.55,1.85.55,2.86s-.18,2-.55,2.89c-.36.88-.88,1.66-1.56,2.34s-1.49,1.2-2.44,1.59c-.95.38-2,.57-3.15.57s-2.19-.19-3.15-.57c-.95-.38-1.77-.91-2.44-1.59s-1.21-1.46-1.59-2.34c-.38-.88-.57-1.85-.57-2.89ZM344.09,126.34c0,.76.14,1.48.42,2.16.28.68.68,1.27,1.2,1.77.52.5,1.14.9,1.85,1.2.71.29,1.48.44,2.31.44s1.6-.15,2.31-.44c.71-.29,1.32-.69,1.82-1.2.5-.5.89-1.09,1.17-1.77.28-.68.42-1.4.42-2.16,0-1.56-.53-2.87-1.59-3.93-1.06-1.06-2.44-1.59-4.13-1.59-.83,0-1.6.15-2.31.44-.71.29-1.33.69-1.85,1.17-.52.49-.92,1.07-1.2,1.74-.28.68-.42,1.4-.42,2.16Z"/>
      <path class="st2" d="M392.97,142.57v10.19l11.86-.68v1.87l-25.69,1.3v-1.82l11.86-.62v-10.24h1.98ZM382.15,127.8h19.66v1.82h-8.89v2.29c0,1.35.27,2.59.81,3.72.54,1.13,1.25,2.16,2.13,3.09.88.94,1.89,1.76,3.02,2.47,1.13.71,2.3,1.33,3.51,1.85l-.83,1.72c-1.07-.42-2.11-.92-3.12-1.51-1.01-.59-1.93-1.24-2.78-1.95-.85-.71-1.6-1.48-2.24-2.31-.64-.83-1.14-1.68-1.48-2.55-.35.87-.84,1.72-1.48,2.55-.64.83-1.39,1.6-2.24,2.31-.85.71-1.78,1.36-2.78,1.95-1.01.59-2.05,1.09-3.12,1.51l-.83-1.72c1.18-.52,2.34-1.14,3.48-1.85,1.14-.71,2.16-1.53,3.04-2.47s1.59-1.97,2.13-3.09c.54-1.13.81-2.37.81-3.72v-2.29h-8.79v-1.82ZM387.2,120.21l9.57,2.18v1.87l-9.57-2.18v-1.87Z"/>
      <path class="st2" d="M419.12,127.02h-9.2v15.44l10.19-.78v1.87l-12.12.88v-19.19h11.13v1.77ZM423.75,120.21h1.92v13.26l5.25-.47v-13.78h1.98v40.35h-1.98v-24.7l-5.25.42v22.93h-1.92v-38.01Z"/>
      <path class="st2" d="M436.02,123.64h17.68v1.82h-17.68v-1.82ZM438.31,133.93c0-.94.16-1.79.49-2.55.33-.76.78-1.43,1.35-2,.57-.57,1.27-1.01,2.08-1.33.81-.31,1.69-.47,2.63-.47,1.94,0,3.52.59,4.73,1.77,1.21,1.18,1.82,2.7,1.82,4.58s-.61,3.4-1.82,4.58c-1.21,1.18-2.79,1.77-4.73,1.77s-3.48-.59-4.71-1.77c-1.23-1.18-1.85-2.7-1.85-4.58ZM440.29,133.93c0,1.28.4,2.36,1.2,3.22.8.87,1.92,1.3,3.38,1.3s2.59-.43,3.41-1.3c.81-.87,1.22-1.94,1.22-3.22s-.41-2.36-1.22-3.22c-.81-.87-1.95-1.3-3.41-1.3s-2.58.43-3.38,1.3c-.8.87-1.2,1.94-1.2,3.22ZM440.34,117.97l9.05,2.34v1.87l-9.05-2.34v-1.87ZM442.57,144.49h1.98v6.76h12.06v-6.76h1.98v16.64l-16.02.88v-17.52ZM444.55,160.09l12.06-.68v-6.34h-12.06v7.02ZM456.77,117.14h1.98v12.27l5.15-.36v1.82l-5.15.36v11.28h-1.98v-25.38Z"/>
      <path class="st2" d="M483.29,143.45l-15.5,1.14v-20.23h1.98v18.25l13.52-.94v1.77ZM488.23,119.22h1.92v40.35h-1.92v-40.35Z"/>
      <path class="st2" d="M508.56,127.02h-10.24v15.44l11.23-.83v1.87l-13.16.94v-19.19h12.17v1.77ZM515.01,119.22h1.98v15.81l5.15-.36v1.82l-5.15.36v22.72h-1.98v-40.35Z"/>
    </g>
    <g>
      <path class="st1" d="M294.67,75.65h.91v15.31h-.91v-15.31Z"/>
      <path class="st1" d="M310.25,90.96h-.79l-7.97-13.49v13.49h-.91v-15.31h.79l7.97,13.51v-13.51h.91v15.31Z"/>
      <path class="st1" d="M314.35,75.7l.84-.34,4.66,13.99,4.7-13.99.82.34-5.14,15.26h-.77l-5.11-15.26Z"/>
      <path class="st1" d="M329.52,75.65h.91v15.31h-.91v-15.31Z"/>
      <path class="st1" d="M343.8,76.47h-4.2v14.5h-.91v-14.5h-4.22v-.82h9.34v.82Z"/>
      <path class="st1" d="M356.81,90.92l-.82.34-2.38-6.41-5.86,1.2-1.9,5.21-.84-.34,5.54-15.26h.72l5.52,15.26ZM348.12,85.13l5.23-1.08-2.45-6.89-2.78,7.97Z"/>
      <path class="st1" d="M367.37,76.47h-4.2v14.5h-.91v-14.5h-4.22v-.82h9.34v.82Z"/>
      <path class="st1" d="M371.37,75.65h.91v15.31h-.91v-15.31Z"/>
      <path class="st1" d="M377.04,83.31c0-1.2.18-2.29.53-3.28.35-.98.84-1.82,1.46-2.51s1.35-1.22,2.18-1.6c.83-.38,1.73-.56,2.69-.56s1.86.19,2.69.56c.83.38,1.56.91,2.18,1.6s1.11,1.52,1.46,2.51c.35.98.53,2.08.53,3.28s-.18,2.29-.53,3.28c-.35.98-.84,1.82-1.46,2.51s-1.35,1.22-2.18,1.6c-.83.38-1.73.56-2.69.56s-1.86-.19-2.69-.56c-.83-.38-1.56-.91-2.18-1.6s-1.11-1.52-1.46-2.51c-.35-.98-.53-2.08-.53-3.28ZM377.95,83.31c0,1.07.16,2.04.47,2.92.31.87.74,1.62,1.27,2.23.54.62,1.16,1.09,1.88,1.43.72.34,1.5.5,2.33.5s1.61-.17,2.33-.5c.72-.34,1.35-.81,1.88-1.43.54-.62.96-1.36,1.26-2.23.3-.87.46-1.84.46-2.92s-.15-2.04-.46-2.92c-.3-.87-.72-1.62-1.26-2.23-.54-.62-1.16-1.09-1.88-1.43-.72-.34-1.5-.5-2.33-.5s-1.61.17-2.33.5c-.72.34-1.35.81-1.88,1.43-.54.62-.96,1.36-1.27,2.23-.31.87-.47,1.84-.47,2.92Z"/>
      <path class="st1" d="M405.09,90.96h-.79l-7.97-13.49v13.49h-.91v-15.31h.79l7.97,13.51v-13.51h.91v15.31Z"/>
    </g>
  </g>
</svg>