<?xml version="1.0" encoding="UTF-8"?>
<svg xmlns="http://www.w3.org/2000/svg" version="1.1" viewBox="0 0 700 870.37">
  <!-- Generator: Adobe Illustrator 29.6.0, SVG Export Plug-In . SVG Version: 2.1.1 Build 207)  -->
  <defs>
    <style>
      .st0 {
        fill: #ffafc8;
      }

      .st1 {
        isolation: isolate;
      }

      .st2 {
        mix-blend-mode: multiply;
      }
    </style>
  </defs>
  <g class="st1">
    <g id="_레이어_1" data-name="레이어_1">
      <g class="st2">
        <rect class="st0" x="-79.69" y="90.68" width="859.39" height="700" transform="translate(790.68 90.68) rotate(90)"/>
        <g>
          <circle class="st0" cx="688.38" cy="11.62" r="11.62"/>
          <circle class="st0" cx="667.87" cy="11.62" r="11.62"/>
          <circle class="st0" cx="647.37" cy="11.62" r="11.62"/>
          <circle class="st0" cx="626.86" cy="11.62" r="11.62"/>
          <circle class="st0" cx="606.35" cy="11.62" r="11.62"/>
          <circle class="st0" cx="585.84" cy="11.62" r="11.62"/>
          <circle class="st0" cx="565.33" cy="11.62" r="11.62"/>
          <circle class="st0" cx="544.83" cy="11.62" r="11.62"/>
          <circle class="st0" cx="524.32" cy="11.62" r="11.62"/>
          <circle class="st0" cx="503.81" cy="11.62" r="11.62"/>
          <circle class="st0" cx="483.3" cy="11.62" r="11.62"/>
          <circle class="st0" cx="462.79" cy="11.62" r="11.62"/>
          <circle class="st0" cx="442.29" cy="11.62" r="11.62"/>
          <circle class="st0" cx="421.78" cy="11.62" r="11.62"/>
          <circle class="st0" cx="401.27" cy="11.62" r="11.62"/>
          <circle class="st0" cx="380.76" cy="11.62" r="11.62"/>
          <circle class="st0" cx="360.25" cy="11.62" r="11.62"/>
          <circle class="st0" cx="339.75" cy="11.62" r="11.62"/>
          <circle class="st0" cx="319.24" cy="11.62" r="11.62"/>
          <circle class="st0" cx="298.73" cy="11.62" r="11.62"/>
          <circle class="st0" cx="278.22" cy="11.62" r="11.62"/>
          <circle class="st0" cx="257.71" cy="11.62" r="11.62"/>
          <circle class="st0" cx="237.21" cy="11.62" r="11.62"/>
          <circle class="st0" cx="216.7" cy="11.62" r="11.62"/>
          <circle class="st0" cx="196.19" cy="11.62" r="11.62"/>
          <circle class="st0" cx="175.68" cy="11.62" r="11.62"/>
          <circle class="st0" cx="155.17" cy="11.62" r="11.62"/>
          <circle class="st0" cx="134.67" cy="11.62" r="11.62"/>
          <circle class="st0" cx="114.16" cy="11.62" r="11.62"/>
          <circle class="st0" cx="93.65" cy="11.62" r="11.62"/>
          <circle class="st0" cx="73.14" cy="11.62" r="11.62"/>
          <circle class="st0" cx="52.63" cy="11.62" r="11.62"/>
          <circle class="st0" cx="32.13" cy="11.62" r="11.62"/>
          <circle class="st0" cx="11.62" cy="11.62" r="11.62"/>
        </g>
      </g>
    </g>
  </g>
</svg>