<?xml version="1.0" encoding="UTF-8"?>
<svg id="_레이어_1" data-name="레이어_1" xmlns="http://www.w3.org/2000/svg" version="1.1" viewBox="0 0 700 900">
  <!-- Generator: Adobe Illustrator 29.6.0, SVG Export Plug-In . SVG Version: 2.1.1 Build 207)  -->
  <defs>
    <style>
      .st0 {
        fill: #2e2624;
      }

      .st1 {
        fill: #231821;
      }

      .st2 {
        fill: #fff5e0;
      }

      .st3 {
        fill: #ee6092;
      }

      .st4 {
        fill: #f8ceb0;
      }

      .st5 {
        fill: #ffd85e;
      }

      .st6 {
        fill: #231815;
      }

      .st7 {
        fill: #fffded;
      }

      .st8 {
        fill: #59be78;
      }

      .st9 {
        fill: #e8d2c6;
      }

      .st10 {
        fill: #f19980;
      }

      .st11 {
        fill: #352c33;
      }

      .st12 {
        fill: #69bc82;
      }

      .st13 {
        fill: #fff5e6;
      }

      .st14 {
        fill: #fcd369;
      }
    </style>
  </defs>
  <path class="st3" d="M267.12,12.78l110.19,9.02c4.36.36,7.6,4.18,7.24,8.53l-2.9,35.44c-.36,4.36-4.18,7.6-8.53,7.24l-60.14-4.92-1.29,15.78,56,4.58c4.36.36,7.6,4.18,7.24,8.53l-2.63,32.08c-.36,4.36-4.18,7.6-8.53,7.24l-56-4.58-1.4,17.07,64.54,5.28c4.36.36,7.6,4.18,7.24,8.53l-2.9,35.44c-.36,4.36-4.18,7.6-8.53,7.24l-114.59-9.38c-4.36-.36-7.6-4.18-7.24-8.53l13.69-167.36c.36-4.36,4.18-7.6,8.53-7.24Z"/>
  <path class="st3" d="M413.78,231.91l-12.26-162.36c-.32-4.23,2.85-7.91,7.07-8.23l50.6-3.84c55.96-4.23,107.89,11.79,113.03,79.79,4.72,62.48-41.9,93.51-94.59,97.49l-55.62,4.22c-4.23.32-7.91-2.85-8.23-7.07ZM462.23,108.25l5.72,75.78,3.04-.25c27.85-2.1,42.79-14.84,40.71-42.44-1.72-22.84-19.08-35.41-44.17-33.51l-5.3.42Z"/>
  <path class="st3" d="M610.68,214.57c53.63,11.48,87.01,54.43,75.37,108.78s-60.08,81.79-113.71,70.31c-53.63-11.48-86.36-56.3-74.72-110.65,11.63-54.35,59.43-79.93,113.06-68.45ZM584.37,337.45c17.32,3.71,33.38-7.8,37.64-27.72,4.26-19.92-5.95-35.7-23.27-39.4-17.54-3.75-33.1,6.5-37.36,26.42-4.26,19.92,5.45,36.95,22.99,40.7Z"/>
  <path class="st3" d="M251.14,240.86l-60.25,17.99c-3.72,1.12-7.71-.55-9.52-3.98l-32.36-61.07,6.44,68.88c.36,3.86-2.05,7.43-5.76,8.55l-60.24,17.99c-3.93,1.18-8.13-.76-9.78-4.52L13.1,133.11c-1.96-4.47.43-9.65,5.11-11.06l35.86-10.67c3.97-1.19,8.21.8,9.83,4.62l45.54,105.98-16.6-114.96c-.6-4,1.83-7.83,5.7-9l40.32-12.11c3.88-1.17,8.03.71,9.73,4.39l49.21,105.14-20.19-113.62c-.74-4.07,1.7-8.06,5.66-9.25l35.81-10.66c4.69-1.41,9.55,1.62,10.36,6.44l27.38,163.36c.68,4.04-1.76,7.95-5.68,9.13Z"/>
  <g>
    <g>
      <path class="st8" d="M311.5,669.92c8.22,46.32-15.11,86.72-62.05,95.05-46.94,8.33-84.4-21.28-92.62-67.6-8.22-46.32,16.8-86.8,63.74-95.13,46.94-8.33,82.71,21.37,90.93,67.69Z"/>
      <path class="st5" d="M259.88,683.89c6.41-9.7-.74-23-12.35-22.34-.47.03-.94.07-1.42.14-6.46.9-11.54,5.14-13.87,10.68-3.99-4.15-9.91-6.28-15.99-5.16-.41.08-.82.17-1.22.27-12.04,3.11-14.54,19.23-4.37,26.38l23.68,16.66c2.96,2.08,7.06,1.31,9.06-1.71l16.48-24.93Z"/>
    </g>
    <path class="st8" d="M411.49,683.99c5.83-3.73,10.54-8.8,11.05-14.5.58-6.45-2.86-12.75-11.78-13.55-7.72-.69-14.27,4.26-17.42,13.13-1.28,3.58-4.96,5.71-8.69,4.94l-40.93-8.44c-4.29-.88-7-5.23-5.79-9.44,11.29-39.34,47.2-54.22,82.38-51.07,34.71,3.11,69.21,22.44,65.52,63.59-2.6,29-20.47,41.65-39.18,52.47l-27.42,16.03,52.93,4.74c4.17.37,7.26,4.06,6.88,8.24l-3.06,34.22c-.37,4.17-4.06,7.26-8.24,6.88l-127.18-11.39c-4.17-.37-7.26-4.06-6.88-8.24l3.1-34.67c.21-2.3,1.44-4.37,3.37-5.65l71.34-47.3Z"/>
    <path class="st8" d="M562.66,656.1c28.71-9.81,63.8.54,75.94,36.08,14.32,41.9-12.41,75.21-51.25,88.48-38.84,13.27-79.88,4.69-94.52-38.15-7.16-20.95-3.86-42.84,1.97-61.92l18.75-62.72c.7-2.35,2.5-4.21,4.81-5l49.72-16.99c5.96-2.04,11.66,3.66,9.63,9.62l-16.41,48.16-1.23,3.31,2.59-.88ZM548.54,723.23c3.3,9.65,12.93,14.77,23.05,11.31,10.59-3.62,15.08-13.57,11.78-23.21-3.22-9.42-12.77-14.3-23.36-10.68-10.12,3.46-14.69,13.17-11.47,22.58Z"/>
    <path class="st8" d="M94.71,617.05l-27.31,5.84c-4.16.89-8.23-1.84-8.99-6.02l-6.38-35.22c-.74-4.11,1.99-8.04,6.1-8.76l62.81-11.09c1.41-.25,2.87-.09,4.19.46l41.23,17.08c3.84,1.59,5.67,6,4.08,9.84l-61.18,147.69c-1.59,3.84-6,5.67-9.84,4.08l-40.86-16.93c-3.84-1.59-5.67-6-4.08-9.84l40.24-97.13Z"/>
    <path class="st8" d="M96,828.81l15.01-12.11c1.6-1.29,3.91-1.1,5.31.41,3.82,4.13,9.61,7.83,15.57,8.73,3.4.51,6.83,0,7.31-3.15s-2.47-5.01-14.44-11.07c-11.49-5.86-21.48-13.94-19.13-29.56,3.34-22.18,24.53-27.62,42.04-24.98,10.37,1.56,21.27,7.04,29.13,15.1,1.63,1.67,1.39,4.4-.47,5.8l-14.99,11.3c-1.62,1.22-3.92,1-5.25-.54-3.45-3.98-8.32-6.51-12.13-7.09-4.41-.66-7.48.03-7.92,2.93-.4,2.65,2.11,3.93,7.99,6.87,12.23,6.1,28.64,14.37,25.86,32.77-3.25,21.55-23.58,29.05-41.6,26.33-12.72-1.92-24.6-8.05-32.61-15.98-1.64-1.62-1.47-4.32.32-5.77Z"/>
    <path class="st8" d="M181.68,834.31l-2.72-47.46c-.11-2,1.41-3.72,3.41-3.83l21.03-1.2c2-.11,3.72,1.41,3.83,3.41l2.54,44.37c.46,7.96,4.77,12.6,11.9,12.19s10.89-5.51,10.43-13.47l-2.54-44.37c-.11-2,1.41-3.72,3.41-3.83l20.91-1.2c2-.11,3.72,1.41,3.83,3.41l2.72,47.46c1.14,19.96-11.52,36.18-37.77,37.68-26.25,1.5-39.85-13.21-40.99-33.17Z"/>
    <path class="st8" d="M277.27,786.03l21.81,2.33c1.27.14,2.37.95,2.88,2.12l18.09,42.08.46.05,3-37.98c.16-1.99,1.93-3.46,3.91-3.24l18.97,2.03c1.95.21,3.35,1.95,3.15,3.9l-8,74.77c-.21,1.95-1.95,3.35-3.9,3.15l-22.53-2.41c-1.26-.13-2.35-.93-2.86-2.08l-17.64-39.62-.46-.05-2.74,35.55c-.15,1.99-1.92,3.46-3.91,3.25l-18.97-2.03c-1.95-.21-3.35-1.95-3.15-3.9l8-74.77c.21-1.95,1.95-3.35,3.9-3.15Z"/>
    <path class="st8" d="M297.11,759.4c0,6.4,4.68,11.39,11.39,11.39s11.7-5,11.7-11.39-4.68-11.08-11.7-11.08-11.39,4.84-11.39,11.08Z"/>
    <g>
      <path class="st3" d="M555.32,409.35l38.07,7.09c3.58.67,5.94,4.11,5.28,7.69l-15.34,82.3c-.67,3.58-4.11,5.94-7.69,5.28l-38.07-7.09c-3.58-.67-5.94-4.11-5.28-7.69l15.34-82.3c.67-3.58,4.11-5.94,7.69-5.28Z"/>
      <path class="st3" d="M575.01,547.84c9.37-6.54,7.66-21.27-3.19-24.87-.44-.15-.89-.28-1.35-.39-6.23-1.51-12.41.52-16.54,4.73-2.14-5.23-6.78-9.33-12.74-10.5-.41-.08-.81-.14-1.21-.2-12.12-1.52-20.25,12.3-13.55,22.51l15.6,23.8c1.95,2.98,5.98,3.76,8.9,1.72l24.08-16.8Z"/>
    </g>
    <path class="st0" d="M166.51,364.71c-.08,0-.17-.01-.26-.04l-64.53-21.49c-.42-.14-.65-.6-.51-1.02.14-.42.59-.65,1.02-.51l64.53,21.49c.42.14.65.6.51,1.02-.11.34-.43.55-.77.55Z"/>
    <path class="st0" d="M102.67,440.53c-.34,0-.66-.22-.77-.56-.13-.43.1-.88.53-1.01l63.84-20.18c.42-.14.88.1,1.01.53.13.43-.1.88-.53,1.01l-63.84,20.18c-.08.03-.16.04-.24.04Z"/>
    <g>
      <path class="st6" d="M98.26,399.95c.12.86.08,1.69-.11,2.48-.2.79-.53,1.53-.99,2.22-.47.69-1.06,1.33-1.77,1.91-.71.58-1.52,1.11-2.43,1.57l-1.04-1.37c.6-.29,1.18-.64,1.72-1.04.54-.4,1.02-.84,1.44-1.31.41-.47.75-.96,1-1.48s.4-1.03.42-1.54l-4.57.64-.23-1.61,6.5-.91.06.45ZM102.92,409.72l-.11-.75-9.43,1.32-.22-1.58,11.2-1.57.55,3.91-9.41,1.32.11.78,9.63-1.35.22,1.58-11.41,1.6-.55-3.94,9.43-1.32ZM103.17,398.61l1.09,7.81-1.77.25-.24-1.73-2.89.41-.23-1.63,2.89-.41-.2-1.45-2.6.36-.23-1.63,2.6-.36-.19-1.37,1.77-.25Z"/>
      <path class="st6" d="M117.07,398.69l.21,1.52-11.3,1.58-.21-1.52,11.3-1.58ZM118.9,405.54l.22,1.58-13.02,1.83-.22-1.58,5.62-.79-.1-.72-2.04.29c-.67.09-1.2-.02-1.6-.35-.39-.33-.63-.8-.72-1.41s.02-1.13.3-1.56c.29-.43.77-.69,1.44-.79l5.88-.82c.67-.09,1.2.03,1.6.36.39.34.63.81.72,1.41s-.02,1.12-.3,1.55c-.29.43-.77.69-1.44.78l-2.06.29.1.72,5.62-.79ZM108.9,409.2l.28,2.01,9.54-1.34.23,1.61-11.33,1.59-.51-3.63,1.78-.25ZM113.77,397.01l.21,1.5-5.3.74-.21-1.5,5.3-.74ZM108.74,404.14c.02.14.08.27.17.38.09.12.28.16.56.12l5.17-.73c.27-.04.45-.11.54-.23.09-.12.12-.27.1-.46-.03-.18-.1-.32-.22-.42-.12-.1-.32-.13-.58-.09l-5.17.73c-.28.04-.45.13-.5.27-.06.14-.08.29-.06.42Z"/>
      <path class="st6" d="M119.1,400.2l-.22-1.6,7.75-1.09.22,1.6-7.75,1.09ZM120.02,402.79c-.09-.67.09-1.24.56-1.72.47-.48,1.29-.8,2.45-.96,1.17-.16,2.04-.08,2.63.24.58.33.92.83,1.02,1.51.1.68-.09,1.26-.56,1.73-.47.47-1.29.79-2.46.96-1.16.16-2.03.08-2.62-.25-.58-.33-.92-.83-1.02-1.5ZM120.39,397.87l-.22-1.6,4.57-.64.22,1.6-4.57.64ZM122.49,405.25l.17,1.21,6.78-.95-.17-1.21,1.77-.25.79,5.64-10.33,1.45-.79-5.64,1.78-.25ZM124.92,402.1c-.01-.1-.05-.18-.1-.26-.05-.08-.14-.14-.27-.17-.12-.04-.29-.06-.5-.06-.21,0-.48.02-.8.06-.61.09-1.02.2-1.22.35-.2.15-.29.32-.26.51.03.21.16.36.39.45.23.09.65.09,1.27,0,.61-.09,1.02-.2,1.23-.35.2-.15.29-.32.26-.53ZM123.06,409.3l6.78-.95-.18-1.26-6.78.95.18,1.26ZM132.48,399.48l-2.04.29.52,3.72-1.77.25-1.21-8.61,1.77-.25.46,3.27,2.04-.29.23,1.61Z"/>
      <path class="st6" d="M142.52,406.26l.22,1.6-7.92,1.11-2.01-14.31,1.78-.25,1.78,12.71,6.14-.86ZM142.79,393.05l1.77-.25,2.08,14.8-1.77.25-2.08-14.8Z"/>
      <path class="st6" d="M146.47,392.75l7.55-1.06.23,1.61-5.76.81,1.56,11.1,6.05-.85.22,1.6-7.83,1.1-2.01-14.31ZM160.44,398.17l-2.04.29,1.03,7.36-1.77.25-2.08-14.8,1.77-.25.81,5.81,2.04-.29.23,1.63Z"/>
      <path class="st6" d="M162.83,390.78l1.35,10.49-1.7.24-1.57-10.46,1.91-.27ZM164.44,402.67l.3,2.11-1.83.26-.3-2.11,1.83-.26Z"/>
    </g>
    <g>
      <path class="st6" d="M84.19,372.01v5.5c0,.59.04,1.16.13,1.72.09.55.23,1.08.44,1.58.2.5.47.97.81,1.4.34.44.76.84,1.28,1.2l-.9,1.37c-.22-.13-.45-.31-.69-.53-.24-.23-.47-.49-.7-.78-.23-.3-.45-.62-.66-.97-.21-.35-.39-.71-.54-1.09-.3.79-.7,1.49-1.19,2.11-.49.62-1.01,1.1-1.54,1.44l-.99-1.29c.52-.35.96-.76,1.32-1.2.36-.45.65-.93.86-1.44.22-.52.38-1.07.47-1.65.1-.59.15-1.2.15-1.83v-5.53h-2.35v-1.64h6.46v1.64h-2.35ZM90.74,370.15h1.76v14.95h-1.76v-7.43h-1.42v7.22h-1.74v-14.61h1.74v5.76h1.42v-5.89Z"/>
      <path class="st6" d="M97.86,379.07c-.7.02-1.38.04-2.05.06-.67.02-1.32.02-1.94.02l-.23-1.61c.75-.01,1.56-.03,2.42-.05.86-.02,1.72-.05,2.59-.08.87-.03,1.73-.08,2.58-.13.85-.05,1.65-.12,2.41-.19l.23,1.56c-.64.08-1.31.14-2.02.19-.71.05-1.44.1-2.19.15v2.48h-1.8v-2.4ZM97.53,376.26c-1.03,0-1.79-.26-2.29-.77-.5-.52-.75-1.25-.75-2.19s.25-1.67.75-2.18c.5-.51,1.26-.76,2.29-.76h2.09c1.03,0,1.79.25,2.29.76.5.51.75,1.23.75,2.18s-.25,1.68-.75,2.19c-.5.52-1.26.77-2.29.77h-2.09ZM96.91,380.46v2.85h9.43v1.63h-11.23v-4.48h1.8ZM96.25,373.3c0,.18.02.36.06.52.04.17.11.31.21.44.1.12.25.22.44.3.19.08.43.11.73.11h1.77c.3,0,.54-.04.73-.11.19-.08.33-.17.44-.3.1-.12.17-.27.21-.44.04-.17.06-.34.06-.52s-.02-.35-.06-.52c-.04-.16-.11-.3-.21-.43-.1-.12-.25-.22-.44-.29-.19-.07-.43-.1-.73-.1h-1.77c-.3,0-.54.04-.73.1s-.33.17-.44.29c-.1.12-.17.27-.21.43-.04.16-.06.33-.06.52ZM106.12,370.15v12.21h-1.79v-1.13h-3v-1.65h3v-9.43h1.79Z"/>
      <path class="st6" d="M117.17,383.57c-.45.45-.95.8-1.51,1.03-.56.24-1.2.35-1.93.35-.69,0-1.3-.08-1.85-.25-.55-.17-1.01-.42-1.4-.75-.39-.33-.68-.75-.89-1.25-.21-.5-.31-1.08-.31-1.75,0-.47.07-.91.2-1.31.14-.4.33-.76.57-1.1.25-.33.53-.64.86-.91.33-.27.69-.52,1.09-.75-.31-.46-.58-.97-.82-1.53s-.36-1.1-.36-1.61c0-.58.09-1.07.26-1.48s.41-.74.71-1,.66-.45,1.07-.56c.41-.12.85-.18,1.31-.18.44,0,.84.07,1.22.21.38.14.71.34.99.61.29.27.51.59.67.98.16.38.24.81.24,1.3,0,.42-.07.82-.21,1.2-.14.38-.33.73-.57,1.06-.24.32-.52.62-.84.89s-.67.51-1.05.71l2.45,3.23c.18-.41.33-.85.45-1.31.12-.47.2-.95.25-1.44h1.7c-.08.75-.22,1.49-.42,2.22s-.48,1.4-.84,2.02l1.96,2.56h-2.12l-.89-1.18ZM113.68,383.41c.49,0,.95-.09,1.36-.28.41-.19.78-.46,1.11-.81l-3.16-4.19c-.28.16-.54.33-.78.52-.24.18-.46.38-.64.6-.18.22-.33.46-.43.72-.1.26-.15.54-.15.85,0,1.73.9,2.6,2.7,2.6ZM112.59,373.78c0,.42.1.84.3,1.25.2.41.45.82.73,1.22.24-.13.48-.28.72-.44.24-.17.45-.35.64-.56.19-.21.34-.45.46-.71.12-.26.17-.56.17-.88,0-.52-.14-.91-.42-1.17-.28-.26-.62-.4-1.03-.4-.21,0-.41.03-.6.1-.19.06-.36.16-.5.3-.15.13-.26.31-.34.52-.08.21-.12.47-.12.77Z"/>
      <path class="st6" d="M129.15,376.47v-1.4h1.8v1.4h5.67v1.63h-13.15v-1.63h5.67ZM135.44,375.76c-1.39-.17-2.52-.5-3.39-.98-.87-.48-1.53-1.06-2-1.73-.46.68-1.13,1.26-2,1.73-.87.48-2,.8-3.39.98l-.59-1.55c.76-.11,1.46-.26,2.08-.46.62-.2,1.16-.45,1.6-.74.44-.3.78-.64,1.02-1.02.24-.39.36-.82.36-1.31v-.44h1.83v.44c0,.48.12.92.36,1.31.24.39.58.73,1.02,1.02.44.3.97.54,1.6.74.62.2,1.32.35,2.08.46l-.6,1.55ZM133.93,381.2v-.69h-9.51v-1.58h11.29v3.85h-9.49v.74h9.78v1.58h-11.58v-3.9h9.51Z"/>
    </g>
    <g>
      <g>
        <g>
          <path class="st13" d="M379.4,436.31s37.8-12.11,68.33,4.36c0,0,24.71,44.34,32.71,77.78,8,33.44,7.55,41.54,12.6,69.05,1.05,5.73,4.85,18.41,4.85,18.41,0,0-5.33,8.96-19.63,5.57,0,0-15.07,11.28-34.91,3.63,0,0-18.05,12.98-37.23-.28,0,0-25.8,8.85-38.64-4.23,0,0-20.03,7.33-34.13-9.03l46.06-165.27Z"/>
          <path class="st0" d="M424.42,622.92c-5.68,0-12.1-1.43-18.65-5.71-5.01,1.52-26.44,7.13-38.89-4.17-4.91,1.34-22.42,4.76-35.18-10.05-.47-.55-.64-1.29-.44-1.98l46.06-165.27c.19-.7.73-1.25,1.42-1.47,1.58-.51,39.03-12.2,70.01,4.52.36.19.66.49.86.85.25.45,24.95,44.98,32.92,78.32,5.16,21.57,6.79,32.49,8.69,45.13,1.05,7,2.14,14.24,3.93,24.04,1.02,5.55,4.75,18.06,4.79,18.19.17.58.1,1.2-.21,1.72-.24.41-6.08,9.88-21.03,6.78-3.51,2.29-17.33,10.08-35.1,3.72-2.58,1.56-9.88,5.4-19.17,5.4ZM406.11,612.69c.43,0,.86.13,1.22.38,17.65,12.21,34.07.79,34.76.3.59-.42,1.35-.52,2.03-.26,18.52,7.14,32.7-3.24,32.84-3.34.51-.38,1.17-.52,1.79-.37,10.29,2.44,15.24-2.06,16.76-3.89-.93-3.16-3.7-12.73-4.6-17.62-1.81-9.87-2.9-17.14-3.96-24.18-1.88-12.54-3.5-23.37-8.62-44.76-7.36-30.78-29.34-71.48-32.19-76.68-26.4-13.9-58.69-5.99-65-4.23l-45.42,162.99c12.86,13.9,30.26,7.83,31,7.56.79-.29,1.68-.09,2.27.51,11.73,11.96,36.17,3.79,36.41,3.7.23-.08.46-.12.7-.12Z"/>
        </g>
        <g>
          <path class="st11" d="M352.7,367.08s-9.52-53.47,28.01-77.51c37.53-24.04,75.64-11.43,97.62,10.55,21.99,21.99,18.76,56,16.71,66.55-2.05,10.55-11.43,38.11-4.69,51.01,6.74,12.9,5.87,32.28-1.76,37.85,0,0,1.78-9.24-2.06-16.16,0,0,.11,17.43-12.61,22.87l-121.23-95.16Z"/>
          <path class="st0" d="M473.93,464.39c-.47,0-.94-.16-1.33-.46l-121.23-95.16c-.42-.33-.7-.79-.79-1.32-.1-.55-9.33-55.17,28.96-79.7,40.25-25.79,79.19-10.27,100.31,10.84,24.92,24.92,18.16,64.1,17.3,68.48-.42,2.14-1.11,4.9-1.91,8.09-3,11.92-8.02,31.88-2.98,41.51,7.28,13.92,6.07,34.4-2.39,40.59-.71.52-1.67.55-2.42.08s-1.13-1.36-.97-2.22c0-.04.39-2.14.37-5-1.77,5.31-5.25,11.18-12.07,14.09-.27.12-.56.17-.85.17ZM354.7,365.91l119.51,93.81c10.1-5.35,10.17-20.18,10.17-20.34,0-.98.66-1.85,1.61-2.09.95-.25,1.95.18,2.43,1.04,1.77,3.2,2.46,6.78,2.67,9.88,2.84-7.77,2.05-20.54-2.65-29.53-5.79-11.08-.73-31.23,2.62-44.56.79-3.13,1.47-5.84,1.86-7.86.81-4.16,7.22-41.27-16.12-64.62-19.99-19.99-56.85-34.67-94.94-10.26-33.42,21.41-28.12,67.89-27.17,74.53Z"/>
        </g>
        <g>
          <path class="st12" d="M374.79,477.02s5.65,29.6,8.61,39.19c.5,1.63,2.09,2.67,3.79,2.46h0c2.05-.26,3.43-2.21,2.99-4.23l-8.42-38.39-6.97.97Z"/>
          <path class="st0" d="M386.74,520.84c-2.45,0-4.66-1.6-5.4-4-2.96-9.6-8.43-38.21-8.67-39.42-.11-.58.02-1.18.36-1.66.34-.48.87-.8,1.45-.88l6.97-.97c1.13-.16,2.16.57,2.4,1.67l8.42,38.39c.34,1.55.01,3.18-.91,4.48s-2.34,2.15-3.92,2.35c-.24.03-.48.04-.71.04ZM377.33,478.83c1.37,7.05,5.7,28.89,8.12,36.73.2.63.82,1.05,1.46.95.52-.06.81-.38.94-.56s.33-.56.22-1.07l-7.99-36.44-2.75.38Z"/>
        </g>
        <g>
          <path class="st4" d="M474.34,451.61c-.23,23.25-5.87,42.98-36.64,46.03,0,0-18.32,2.35-30.77,1.88,0,0-8.45,11.74-21.14,3.52,0,0-11.87,2.11-13.62-2.35,0,0-1.12-1.77.15-4.05,0,0-6.27-1.35-1.45-8.5,0,0-2.36-.39-3.38-1.67-2.06-2.58-.27-5.53-.27-5.53,3.81-6.53,14.23-9.41,22.23-8.01,8.01,1.4,11.82,4.66,11.82,4.66,0,0,40.19-10.11,42.37-11.35,2.18-1.24,4.07-25.57,4.07-25.57,0,0-28.27-16.43-68.33-4.36l-12.24,41.79s-18.95-12.32-8.96-32.37c8.5-17.06,8.84-37.53,51-38.74,42.16-1.21,53.79,12.84,53.79,12.84,0,0,11.58,8.52,11.35,31.77-.23,23.25-5.87,42.98-36.64,46.03,0,0-18.32,2.35-30.77,1.88,0,0-8.45,11.74-21.14,3.52,0,0-11.87,2.11-13.62-2.35"/>
          <path class="st0" d="M394.76,508.11c-2.88,0-6.05-.79-9.41-2.81-3.4.51-12.89,1.44-15.1-3.64-.44-.8-.86-2.21-.58-3.85-.88-.56-1.81-1.44-2.35-2.76-.67-1.67-.53-3.58.42-5.71-.7-.36-1.39-.85-1.92-1.52-2.37-2.96-1.38-6.42-.42-7.99.04-.08.09-.15.13-.23-2.97-2.17-19.06-15.13-9.25-34.82,1.34-2.68,2.5-5.53,3.62-8.28,6.14-15.04,12.48-30.59,49.24-31.65,40.47-1.15,53.63,11.56,55.33,13.42,1.67,1.34,12.25,10.7,12.02,33.37-.21,21-4.58,42.85-34.4,47.61-1.34.21-2.73.39-4.17.54-.68.09-17.56,2.23-29.96,1.92-2.53,2.99-7.24,6.41-13.2,6.41ZM385.8,500.88c.41,0,.82.12,1.17.35,10.84,7.03,17.92-2.56,18.22-2.97.42-.58,1.11-.91,1.83-.89,12.13.46,30.23-1.84,30.41-1.86,30.19-3,34.54-22.88,34.76-43.92.22-21.89-10.36-29.93-10.47-30.01-.14-.1-.27-.23-.38-.36-.1-.12-11.8-13.21-52.07-12.06-33.95.98-39.5,14.58-45.38,28.97-1.15,2.83-2.35,5.75-3.75,8.58-7,14.04,1.43,23.87,5.85,27.77l11.35-38.76c.2-.7.75-1.25,1.44-1.46,40.5-12.2,68.84,3.87,70.03,4.56.71.42,1.13,1.2,1.07,2.03-1.98,25.46-4.2,26.73-5.15,27.27-2.26,1.29-33.42,9.18-42.91,11.57-.67.18-1.39,0-1.93-.45-.02-.02-3.55-2.92-10.78-4.18-6.96-1.21-16.58,1.11-20,6.97-.11.19-.97,1.78.09,3.1.28.35,1.32.76,2.06.89.72.13,1.33.61,1.61,1.28.29.67.22,1.44-.19,2.05-1.18,1.76-1.68,3.24-1.36,4.08.31.81,1.49,1.12,1.51,1.12.65.16,1.21.62,1.48,1.23.27.62.25,1.32-.08,1.91-.6,1.08-.22,1.85-.21,1.85.07.12.14.24.19.37.63,1.61,6.45,1.86,11.24,1.01.12-.02.25-.03.37-.03ZM385.35,470.43c1.55,0,3.06.13,4.49.38,6.29,1.1,10.22,3.32,11.9,4.45,14.54-3.66,36.96-9.46,40.55-10.77,1.02-2.34,2.39-13,3.18-22.56-5.62-2.78-30.75-13.59-64.33-3.88l-10.71,36.59c4.2-2.81,9.76-4.2,14.93-4.2Z"/>
        </g>
        <g>
          <path class="st4" d="M472.61,351.7c-40.46-20.39-55.71-55.68-55.71-55.68-44.79,16.08-61.73,59.99-61.73,59.99,0,0-10.02,29.89,6.03,43.93,13.78,12.06,31.87,16.08,57.43,17.23,25.56,1.15,41.35-7.18,49.68-19.81,0,0,11.58,6.8,22.97-2.68,6.59-5.48,9.82-14.05,9.04-22.58-.61-6.61-3.32-13.62-11.91-14.36,0,0-9.19-2.01-16.08,8.33l.29-14.36Z"/>
          <path class="st0" d="M423.23,419.43c-1.52,0-3.09-.03-4.7-.11-28.79-1.29-45.81-6.44-58.75-17.76-16.93-14.82-7.08-44.96-6.65-46.24.21-.54,17.85-45.11,63.04-61.33,1.07-.38,2.25.13,2.7,1.17.15.35,15.47,34.84,54.7,54.61.74.37,1.2,1.14,1.18,1.97l-.17,8.38c6.32-5.63,12.96-4.73,14.11-4.53,7.97.74,12.85,6.52,13.75,16.3.87,9.47-2.79,18.6-9.8,24.44-9.66,8.04-19.61,5.36-23.61,3.74-6.75,9.3-20.02,19.36-45.81,19.36ZM415.79,298.73c-41.94,16.07-58.45,57.63-58.61,58.06-.06.19-9.33,28.61,5.44,41.54,12.13,10.61,28.39,15.45,56.11,16.7,22.45,1.01,38.99-5.51,47.78-18.85.63-.96,1.9-1.25,2.89-.67.42.24,10.46,5.87,20.5-2.48,5.92-4.93,9.01-12.68,8.27-20.73-1.07-11.64-7.75-12.22-9.95-12.41-.09,0-.18-.02-.28-.04-.3-.06-7.89-1.48-13.83,7.42-.53.8-1.53,1.15-2.44.86-.91-.29-1.53-1.14-1.51-2.1l.26-13.01c-35.01-18.11-50.9-46.69-54.64-54.28Z"/>
        </g>
        <circle class="st10" cx="450.18" cy="383.21" r="13.22"/>
        <circle class="st10" cx="370.83" cy="375.86" r="13.22"/>
        <g>
          <path class="st0" d="M477.13,383.48c-.15,0-.29-.01-.44-.05-1.16-.24-1.91-1.38-1.67-2.55.09-.45,2.42-11.04,13.33-12.63,1.17-.17,2.27.64,2.44,1.82.17,1.18-.64,2.27-1.82,2.44-7.96,1.16-9.72,9.16-9.74,9.25-.21,1.02-1.11,1.71-2.11,1.71Z"/>
          <path class="st0" d="M483.29,390.24c-.45,0-.89-.14-1.28-.42-.96-.71-1.16-2.06-.45-3.01,3.46-4.67-2.01-10.94-2.07-11.01-.79-.89-.71-2.25.18-3.04.89-.79,2.24-.71,3.03.17.32.36,7.87,8.95,2.31,16.44-.42.57-1.07.87-1.73.87Z"/>
        </g>
        <path class="st0" d="M449.11,364.64c-.1,0-.2,0-.31-.02-1.48-.17-2.54-1.5-2.37-2.98.78-6.9-4.19-13.15-11.09-13.93-6.88-.78-13.15,4.19-13.93,11.09-.17,1.48-1.51,2.54-2.98,2.37-1.48-.17-2.54-1.5-2.37-2.98.54-4.77,2.91-9.05,6.67-12.04,3.76-2.99,8.45-4.33,13.22-3.8,9.85,1.12,16.95,10.04,15.83,19.89-.16,1.37-1.32,2.39-2.67,2.39Z"/>
        <path class="st0" d="M404.41,359.8s-.08,0-.12,0c-1.49-.07-2.64-1.32-2.57-2.81.31-6.94-5.09-12.83-12.02-13.14-6.89-.31-12.83,5.09-13.14,12.02-.06,1.49-1.33,2.66-2.81,2.57-1.49-.07-2.64-1.32-2.57-2.81.44-9.9,8.81-17.58,18.75-17.17,9.9.44,17.6,8.85,17.16,18.75-.06,1.44-1.25,2.57-2.69,2.57Z"/>
        <path class="st0" d="M415.59,328.48c-.87,0-1.7-.54-2.02-1.4-3.62-9.74-2.63-18.64-1.12-24.48-4.25,3.73-9.78,9.93-12.2,18.35-.33,1.14-1.52,1.8-2.66,1.48-1.14-.33-1.8-1.52-1.48-2.66,4.65-16.22,19.1-24.68,19.71-25.04.83-.47,1.87-.35,2.56.32.69.66.86,1.7.42,2.55-.07.13-6.7,13.16-1.2,27.99.41,1.12-.15,2.35-1.27,2.77-.25.09-.5.14-.75.14Z"/>
        <path class="st0" d="M448.26,336.39c-.11,0-.23,0-.34-.03-1.17-.19-1.98-1.29-1.79-2.46.35-2.21-.18-4.42-1.49-6.23-1.31-1.81-3.25-3-5.46-3.35-2.75-.44-5.53.52-7.44,2.56-.81.87-2.17.91-3.04.1s-.92-2.17-.1-3.04c2.88-3.09,7.09-4.53,11.26-3.87,3.34.53,6.28,2.33,8.27,5.07,1.99,2.74,2.79,6.09,2.26,9.44-.17,1.06-1.08,1.82-2.12,1.82Z"/>
        <path class="st0" d="M379.64,330.16h0c-1.19,0-2.15-.97-2.15-2.16,0-3.39,1.34-6.57,3.74-8.95,2.39-2.38,5.57-3.69,8.94-3.69h.04c4.22.01,8.14,2.11,10.49,5.62.66.99.4,2.32-.59,2.99-.99.67-2.33.4-2.99-.59-1.56-2.32-4.15-3.7-6.93-3.71h-.03c-2.23,0-4.32.86-5.9,2.43-1.59,1.58-2.46,3.68-2.47,5.91,0,1.19-.97,2.15-2.15,2.15Z"/>
        <path class="st0" d="M409.83,396c-.54,0-1.07-.02-1.59-.07-9.52-.86-17.21-8.37-18.27-17.85-.17-1.48.9-2.81,2.37-2.98,1.49-.17,2.81.9,2.98,2.37.78,6.96,6.42,12.46,13.41,13.09,4.64.42,13-2.05,15.53-10.48.43-1.42,1.93-2.23,3.35-1.8,1.42.43,2.23,1.93,1.8,3.35-2.88,9.58-11.91,14.37-19.58,14.37Z"/>
        <g>
          <g>
            <path class="st7" d="M456.45,293.85c-1.87.32-3.7,1.16-4.7,2.81-1.2,1.97-1.4,4.54-.46,6.65,1.1,2.47,3.7,4.19,6.4,4.23-.24,2.46-.43,5.13.95,7.18,1.31,1.95,3.78,2.84,6.12,2.88,2.25.03,4.82-.93,5.47-3.08,1.04,2.15,3.03,3.89,5.37,4.39,2.34.5,4.98-.35,6.4-2.28,1.42-1.93,1.39-4.86-.24-6.61,2.39-.47,4.48-2.27,5.29-4.57.81-2.3.32-5.01-1.25-6.88-1.57-1.87-4.16-2.82-6.56-2.42-.23-2.49-.55-5.18-2.27-7-1.7-1.81-4.46-2.3-6.9-1.83-1.71.33-3.36,1.1-4.61,2.31-1.25,1.22-2.08,2.89-2.12,4.64-1.87-.33-3.77-.67-5.67-.56-.4.02-.8.07-1.2.14Z"/>
            <path class="st0" d="M476.94,321.21c-.6,0-1.21-.06-1.81-.19-1.89-.4-3.64-1.43-5.01-2.88-1.53,1.13-3.55,1.62-5.41,1.61-3.36-.05-6.3-1.48-7.88-3.83-1.38-2.06-1.55-4.5-1.46-6.56-2.64-.74-4.94-2.64-6.06-5.18-1.22-2.74-.99-6.05.59-8.65,1.21-1.99,3.4-3.34,6.18-3.81,0,0,0,0,0,0,.48-.08.96-.13,1.43-.16,1.39-.07,2.77.05,4.08.24.46-1.37,1.26-2.66,2.34-3.71,1.5-1.46,3.47-2.45,5.7-2.88,3.42-.66,6.82.29,8.87,2.47,1.72,1.82,2.33,4.17,2.62,6.27,2.4.22,4.72,1.38,6.28,3.24,2.05,2.44,2.69,5.97,1.63,8.98-.75,2.12-2.31,3.9-4.25,4.99.69,2.22.34,4.81-1.09,6.76-1.53,2.08-4.11,3.29-6.77,3.29ZM470.22,312.37c.82,0,1.58.47,1.94,1.22.79,1.65,2.28,2.88,3.88,3.22,1.58.34,3.35-.27,4.21-1.45.84-1.14.8-2.91-.08-3.87-.53-.57-.71-1.39-.47-2.13.24-.74.87-1.3,1.63-1.45,1.64-.32,3.12-1.6,3.67-3.18.56-1.58.21-3.5-.87-4.78-1.08-1.28-2.91-1.95-4.56-1.68-.59.1-1.19-.05-1.67-.42-.47-.36-.77-.91-.83-1.51-.22-2.39-.5-4.46-1.69-5.72-1.04-1.1-2.97-1.57-4.93-1.2-1.39.27-2.63.88-3.51,1.74-.89.87-1.44,2.05-1.47,3.15-.02.63-.31,1.21-.79,1.61-.49.4-1.12.56-1.74.45-1.72-.31-3.51-.63-5.17-.53-.32.02-.64.05-.96.11h0c-1.08.18-2.52.65-3.22,1.81-.85,1.39-.98,3.22-.34,4.66.76,1.71,2.6,2.92,4.46,2.95.6.01,1.17.27,1.57.72.4.45.6,1.04.54,1.64-.22,2.25-.34,4.39.59,5.78.93,1.38,2.86,1.9,4.36,1.92,1.38.06,3.07-.52,3.38-1.55.26-.85,1.01-1.45,1.89-1.52.06,0,.11,0,.17,0Z"/>
          </g>
          <path class="st14" d="M465.74,303.51c.13,2.6,2.41,5.07,5.32,4.42.52-.12,1.02-.34,1.47-.63,2.14-1.39,2.33-4.53,1.21-6.63-1.61-3-5.41-2.44-7.2.07-.6.84-.84,1.82-.79,2.77Z"/>
        </g>
        <g>
          <g>
            <path class="st7" d="M378.89,280.06c-1.2.75-2.24,1.84-2.47,3.27-.28,1.7.31,3.54,1.55,4.74,1.46,1.4,3.74,1.86,5.62,1.13.53,1.77,1.15,3.68,2.68,4.71,1.45.98,3.42.9,5.05.27,1.57-.61,2.48-1.88,2.92-3.67,1.33,1.2,3.19,1.84,4.95,1.53,1.76-.31,3.35-1.65,3.79-3.38.44-1.73-.57-3.14-2.03-4.51,1.53-1,2.46-2.84,2.38-4.66-.09-1.82-1.19-3.56-2.81-4.41-1.61-.85-3.67-.78-5.23.17-.86-1.66-1.84-3.43-3.54-4.21-1.69-.77-3.74-.34-5.3.68-1.09.71-2.02,1.71-2.54,2.9-.52,1.19-.62,2.59-.16,3.81-1.39.3-2.8.6-4.09,1.21-.27.13-.53.27-.79.43Z"/>
            <path class="st0" d="M388.91,296.8c-1.41,0-2.74-.37-3.83-1.11-1.53-1.03-2.38-2.58-2.93-4.01-2.07.13-4.16-.61-5.67-2.06-1.74-1.68-2.58-4.22-2.19-6.64.3-1.87,1.53-3.56,3.46-4.76,0,0,0,0,0,0,.32-.2.66-.38,1-.54.85-.4,1.72-.69,2.57-.91,0-1.02.21-2.06.64-3.03.67-1.53,1.82-2.86,3.34-3.84,2.34-1.52,5.16-1.84,7.37-.83,1.68.77,2.8,2.15,3.61,3.47,1.75-.43,3.66-.23,5.27.62,2.28,1.2,3.83,3.64,3.95,6.22.08,1.74-.49,3.47-1.53,4.86.88,1.21,1.64,2.9,1.12,4.95-.64,2.5-2.85,4.5-5.5,4.97-1.44.26-2.95.07-4.34-.51-.76,1.17-1.81,2.02-3.13,2.54-1.07.42-2.16.62-3.21.62ZM383.6,287.04c.32,0,.65.07.95.22.54.26.94.74,1.12,1.32.45,1.52.93,2.94,1.82,3.54.86.58,2.15.4,3.06.05.59-.23,1.24-.67,1.62-2.18.18-.73.73-1.32,1.46-1.54.72-.22,1.51-.05,2.07.46.89.81,2.09,1.19,3.14,1.01.99-.17,1.86-.93,2.08-1.79.08-.31.22-.87-1.42-2.41-.48-.45-.73-1.1-.67-1.76.06-.66.41-1.25.96-1.61.89-.59,1.46-1.69,1.4-2.76-.05-1.07-.72-2.12-1.66-2.61-.94-.5-2.19-.45-3.09.1-.51.31-1.13.4-1.7.24-.58-.16-1.06-.55-1.34-1.08-.78-1.5-1.51-2.78-2.53-3.24-.86-.4-2.13-.19-3.23.52-.8.52-1.42,1.21-1.74,1.96-.32.73-.36,1.54-.12,2.19.22.59.17,1.24-.13,1.79-.3.55-.83.94-1.44,1.07-1.25.27-2.54.54-3.61,1.05-.19.09-.39.2-.58.32-.49.31-1.34.94-1.47,1.78-.17,1.03.2,2.15.92,2.85.85.81,2.26,1.1,3.35.67.25-.1.51-.15.78-.15Z"/>
          </g>
          <path class="st14" d="M388.06,284.09c1,1.65,3.41,2.44,5.06.97,1.17-1.03.94-2.89.13-4.08-1.44-2.14-4.95-1.97-5.58.78-.2.86-.02,1.67.38,2.33Z"/>
        </g>
        <path class="st0" d="M379.4,438.47c-.23,0-.46-.04-.69-.12-1.13-.38-1.73-1.61-1.35-2.73l1.55-4.56c.38-1.13,1.6-1.73,2.73-1.35,1.13.38,1.73,1.61,1.35,2.73l-1.55,4.56c-.3.9-1.14,1.46-2.04,1.46Z"/>
        <path class="st0" d="M447.72,442.83c-1.18,0-2.14-.95-2.15-2.14l-.04-5.4c0-1.19.95-2.16,2.14-2.17h.02c1.18,0,2.14.95,2.15,2.14l.04,5.4c0,1.19-.95,2.16-2.14,2.17h-.02Z"/>
      </g>
      <g>
        <rect class="st13" x="246.58" y="377.55" width="74.16" height="54.02"/>
        <g>
          <g>
            <path class="st11" d="M220.6,594.36s-15.05,8.24-15.76,18.63,19.71,10.39,27.23,10.03c6.35-.3,25.21-2.9,32.88-8.23,1.97-1.37,3.07-3.7,3.05-6.1-.03-4.55-.89-13.67-6.55-21.14l-40.84,6.81Z"/>
            <path class="st0" d="M227.58,625.29c-7.72,0-17.82-.99-22.4-5.67-1.81-1.85-2.67-4.19-2.49-6.77.79-11.43,16.22-20.01,16.88-20.37.21-.12.44-.2.68-.24l40.84-6.81c.8-.13,1.59.19,2.07.82,5.99,7.9,6.95,17.44,6.99,22.42.02,3.19-1.46,6.14-3.97,7.88-8.24,5.73-27.81,8.32-34,8.62-1.36.07-2.92.11-4.59.11ZM221.33,596.42c-2.05,1.19-13.78,8.39-14.35,16.72-.09,1.38.31,2.48,1.28,3.47,3.16,3.23,12.01,4.83,23.7,4.27,7.42-.35,24.92-3.1,31.75-7.85,1.34-.93,2.14-2.55,2.13-4.32-.03-4.23-.79-12.1-5.36-18.81l-39.14,6.52Z"/>
          </g>
          <g>
            <path class="st11" d="M328.21,594.36s15.05,8.24,15.76,18.63c.72,10.39-19.71,10.39-27.23,10.03-6.35-.3-25.21-2.9-32.88-8.23-1.97-1.37-3.07-3.7-3.05-6.1.03-4.55.89-13.67,6.55-21.14l40.84,6.81Z"/>
            <path class="st0" d="M321.23,625.29c-1.67,0-3.22-.05-4.59-.11-6.2-.3-25.77-2.89-34.01-8.62-2.51-1.75-4-4.69-3.97-7.88.04-4.98.99-14.52,6.99-22.42.48-.64,1.27-.96,2.07-.82l40.84,6.81c.24.04.47.12.68.24.66.36,16.09,8.94,16.88,20.37.18,2.58-.68,4.93-2.49,6.77-4.58,4.68-14.68,5.67-22.4,5.67ZM288.33,589.9c-4.57,6.7-5.33,14.58-5.36,18.81-.01,1.77.78,3.38,2.13,4.32,6.83,4.75,24.33,7.5,31.75,7.85,11.67.56,20.54-1.04,23.7-4.27.97-.99,1.37-2.09,1.28-3.47-.57-8.33-12.3-15.52-14.35-16.72l-39.14-6.52Z"/>
          </g>
          <g>
            <path class="st9" d="M208.56,493.79s-1.01,77.11,5.05,102.02c0,0,29.62,8.75,53.52.34l10.77-51.84,3.7,50.49s29.28,7.07,49.48-1.01c0,0,9.76-68.67,9.09-87.55l-131.61-12.45Z"/>
            <path class="st0" d="M243.16,601.98c-16,0-29.34-3.86-30.16-4.1-.74-.22-1.3-.81-1.48-1.56-6.05-24.89-5.15-99.4-5.11-102.56,0-.6.27-1.17.71-1.57.45-.4,1.04-.6,1.64-.54l131.61,12.45c1.08.1,1.91.99,1.95,2.07.67,18.85-8.71,85.11-9.11,87.93-.11.76-.62,1.41-1.33,1.7-20.6,8.24-49.56,1.4-50.79,1.1-.91-.22-1.57-1-1.64-1.94l-2.58-35.14-7.64,36.77c-.15.74-.68,1.34-1.39,1.59-8.07,2.84-16.71,3.8-24.68,3.8ZM215.42,594.07c5.61,1.45,29.78,6.98,49.86.43l10.52-50.63c.22-1.05,1.18-1.78,2.25-1.71,1.07.07,1.93.92,2.01,1.99l3.58,48.89c6.05,1.24,28.83,5.26,45.5-.81,1.27-9.09,8.95-64.85,8.92-84.03l-127.36-12.05c-.1,12.84-.32,74.9,4.73,97.92Z"/>
          </g>
        </g>
        <g>
          <path class="st9" d="M205.07,469.34l-8.98,45.53s15.18,11.46,38.72,13.01c23.54,1.55,31.9-23.54,31.9-23.54l-61.64-35Z"/>
          <path class="st0" d="M236.87,530.1c-.72,0-1.46-.02-2.21-.07-23.91-1.57-39.23-12.96-39.87-13.44-.66-.5-.97-1.33-.81-2.13l8.98-45.53c.13-.68.59-1.25,1.22-1.54.63-.29,1.36-.25,1.96.09l61.64,35c.89.51,1.3,1.58.98,2.55-.09.26-8.64,25.08-31.88,25.08ZM198.47,513.9c3.82,2.52,17.39,10.57,36.47,11.83,8.99.58,16.69-2.88,22.89-10.31,3.26-3.9,5.24-7.95,6.18-10.13l-57.42-32.6-8.13,41.22Z"/>
        </g>
        <g>
          <path class="st9" d="M304.19,501.45s-2.05,21.01,10.27,25.57c12.33,4.57,34.02-6.16,34.02-6.16l-5.02-42.47-39.27,23.06Z"/>
          <path class="st0" d="M321.65,530.3c-2.81,0-5.52-.36-7.92-1.26-13.73-5.08-11.76-26.88-11.67-27.8.07-.69.46-1.3,1.05-1.65l39.27-23.06c.63-.37,1.4-.4,2.05-.07.65.32,1.1.95,1.18,1.67l5.02,42.47c.11.91-.37,1.78-1.18,2.18-.75.37-15.36,7.51-27.8,7.51ZM306.27,502.73c-.19,4.12-.21,18.88,8.95,22.27,9.64,3.57,26.12-3.26,30.95-5.44l-4.45-37.65-35.44,20.81Z"/>
        </g>
        <g>
          <path class="st2" d="M240.74,494.89s8.59,3.73,20.22,4.07l-.79-25.53-21.35-.9,1.92,22.37Z"/>
          <path class="st0" d="M260.96,501.11s-.04,0-.06,0c-11.91-.35-20.65-4.08-21.02-4.24-.73-.32-1.22-1-1.29-1.79l-1.92-22.37c-.05-.62.16-1.23.59-1.67.43-.45,1.04-.68,1.65-.66l21.35.9c1.13.05,2.03.96,2.06,2.09l.79,25.53c.02.59-.21,1.17-.63,1.59-.4.4-.95.63-1.52.63ZM242.77,493.37c2.43.88,8.41,2.8,15.97,3.32l-.66-21.2-16.91-.72,1.6,18.59Z"/>
        </g>
        <g>
          <polygon class="st2" points="310.11 504.1 326.72 499.31 321.33 475.07 307.27 478.07 310.11 504.1"/>
          <path class="st0" d="M310.11,506.25c-.42,0-.84-.12-1.2-.36-.53-.35-.87-.92-.94-1.56l-2.84-26.03c-.12-1.1.61-2.11,1.69-2.34l14.06-2.99c1.16-.25,2.29.49,2.55,1.64l5.39,24.24c.25,1.11-.41,2.22-1.51,2.54l-16.6,4.79c-.2.06-.4.08-.6.08ZM309.62,479.77l2.35,21.55,12.2-3.52-4.48-20.18-10.07,2.14Z"/>
        </g>
        <g>
          <path class="st9" d="M245.41,477l-.81,22.98s-37.28-9.98-49.53-29.18c-12.24-19.2-1.06-57.44,7.1-70.74,8.16-13.3,24.64-25.85,42.02-29.78,17.38-3.93,86.61,15.27,86.61,15.27,0,0,13.76,6.05,21.31,21.62,0,0,12.09,27.06,13.15,48.67,1.06,21.62-4.08,26.91-13.15,33.26-9.07,6.35-30.69,15.57-30.69,15.57,0,0,2.09-16.88-3.78-24.79l-6.35-73.61.45-14.81-60.77-6.2,14.51,35.52-20.1,56.23Z"/>
          <path class="st0" d="M321.44,506.82c-.46,0-.92-.15-1.3-.43-.62-.46-.94-1.22-.84-1.98.02-.16,1.91-16.13-3.37-23.24-.24-.32-.38-.7-.42-1.1l-6.35-73.62c0-.08,0-.17,0-.25l.39-12.81-55.2-5.63,13.15,32.2c.2.49.21,1.04.03,1.54l-19.99,55.92-.8,22.65c-.02.66-.34,1.26-.87,1.66-.53.39-1.2.52-1.84.35-1.56-.42-38.24-10.42-50.79-30.1-12.44-19.51-1.85-58.47,7.08-73.03,8.93-14.54,26.36-26.9,43.38-30.75,17.72-3.99,84.82,14.5,87.66,15.29.1.03.2.06.29.1.59.26,14.57,6.55,22.38,22.65.53,1.18,12.3,27.74,13.37,49.51,1.11,22.79-4.57,28.48-14.07,35.12-9.15,6.4-30.19,15.4-31.08,15.79-.27.12-.56.17-.84.17ZM319.75,479.11c4.25,6.27,4.39,16.64,4.12,22.14,6.36-2.82,20.32-9.23,27.02-13.92,8.26-5.78,13.26-10.39,12.23-31.39-1.03-20.95-12.85-47.63-12.97-47.9-6.69-13.79-18.72-19.81-20.09-20.46-3.8-1.05-69.14-18.87-85.39-15.2-15.96,3.61-32.31,15.18-40.66,28.8-7.45,12.14-18.85,50.07-7.12,68.46,9.81,15.38,37.09,24.83,45.66,27.48l.71-20.2c0-.22.05-.44.13-.65l19.83-55.46-14.2-34.76c-.29-.7-.18-1.5.27-2.1s1.19-.93,1.94-.85l60.77,6.2c1.12.11,1.97,1.08,1.93,2.21l-.45,14.69,6.29,72.91Z"/>
        </g>
        <g>
          <g>
            <path class="st11" d="M208.62,324.04s-27.59-17.74-17.44-50.04c0,0,3.83-12.89,16.77-17.34,0,0,.67-37.77,39.07-31.32,0,0,6.73-11.26,19.05-12.72,0,0,14.07-2.07,18.57,9.11,0,0,9.71-9.7,26.45-4.15,16.04,5.32,14.17,13.79,14.17,13.79,0,0,21.03-3.98,24.9,18.07,0,0,7.54.62,11.18,11.9s-3.47,18.62-3.47,18.62c0,0,4.85,21.83-16.18,27.09l-102.74,28.31-30.34-11.33Z"/>
            <path class="st0" d="M238.95,337.52c-.26,0-.51-.05-.75-.14l-30.34-11.33c-.14-.05-.28-.12-.41-.21-.29-.19-28.85-19.02-18.33-52.5.15-.52,4.02-13.08,16.76-18.22.36-4.44,2.26-17.64,12.22-25.91,6.98-5.8,16.36-7.89,27.9-6.23,2.24-3.15,8.98-11.24,19.82-12.52,4.9-.72,14.75.16,19.55,7.92,4-2.76,13.16-7.26,26.4-2.86,12.08,4.01,14.97,9.95,15.57,13.44,3.45-.2,9.91.07,15.54,3.96,4.64,3.21,7.71,8.15,9.13,14.71,2.79.85,8.38,3.69,11.39,13.03,3.3,10.24-1.32,17.5-3.23,19.92.68,4.76,2.02,23.56-17.95,28.55l-102.69,28.3c-.19.05-.38.08-.57.08ZM209.6,322.11l29.45,11,102.07-28.13c18.76-4.69,14.83-23.74,14.65-24.55-.15-.71.06-1.45.56-1.97.24-.26,6.15-6.58,2.96-16.46-3.11-9.63-9.09-10.39-9.34-10.42-.95-.11-1.75-.83-1.92-1.77-1.07-6.07-3.62-10.55-7.59-13.3-6.47-4.49-14.72-3.04-14.8-3.02-.7.13-1.44-.1-1.94-.62-.5-.52-.71-1.26-.56-1.96.04-.23,1-6.72-12.74-11.28-15.3-5.07-24.16,3.54-24.25,3.62-.51.51-1.24.73-1.95.59-.71-.15-1.3-.64-1.57-1.31-3.81-9.44-15.76-7.85-16.27-7.78-11.19,1.32-17.44,11.59-17.51,11.69-.45.76-1.32,1.17-2.2,1.02-10.87-1.82-19.54-.12-25.79,5.06-10.34,8.57-10.77,24.03-10.77,24.18-.02.9-.6,1.7-1.45,2-11.69,4.02-15.37,15.8-15.41,15.92-9.21,29.31,13.85,45.8,16.36,47.49Z"/>
          </g>
          <g>
            <path class="st4" d="M336.81,270.15s-12.98-10.62-41.7-7.08c0,0-3.93,21.64-28.33,24.39,0,0,5.51-7.87,3.93-12.2,0,0-17.48,13.67-28.1,17.21,0,0,2.53-8.16-.23-13.67,0,0-3.93,16.52-16.13,23.61l-1.97,26.36s-1.57-16.13-12.98-18.88c-11.41-2.75-24.39,6.69-22.42,24,1.97,17.31,11.02,23.61,28.72,22.03,0,0-2.75,27.54,52.32,36.59,55.08,9.05,74.15-9.24,81.95-16.46,9.73-8.99,13.26-26.42,7.36-38.62l-11.8-18.49s2.75-29.11-10.62-48.78Z"/>
            <path class="st0" d="M297.9,397.13c-8.22,0-17.6-.74-28.32-2.51-47.31-7.77-53.42-29.03-54.08-36.41-17.62.92-26.79-6.8-28.75-24.1-1-8.83,1.68-16.78,7.37-21.8,4.9-4.33,11.52-6.03,17.7-4.54,5.55,1.34,9.02,5.3,11.18,9.42l1.12-14.96c.05-.71.45-1.35,1.07-1.7,11.23-6.52,15.08-22.09,15.12-22.24.21-.88.95-1.54,1.85-1.64.89-.1,1.77.37,2.17,1.18,1.79,3.57,1.67,7.96,1.23,11.12,10.14-4.72,23.69-15.27,23.84-15.39.54-.43,1.26-.57,1.92-.37.66.19,1.19.69,1.43,1.33,1.12,3.07-.25,7.03-1.74,10.02,18.5-4.38,21.85-21.11,21.99-21.87.17-.92.92-1.63,1.85-1.75,29.3-3.61,42.77,7.09,43.33,7.55.16.13.3.28.42.46,12.61,18.54,11.4,44.6,11.05,49.45l11.41,17.88c.05.07.09.15.12.22,6.25,12.91,2.73,31.37-7.83,41.14l-.25.23c-6.76,6.25-20.83,19.27-55.19,19.28ZM217.61,353.76c.57,0,1.13.23,1.53.64.45.46.68,1.09.61,1.73-.02.24-1.6,25.69,50.53,34.25,53.45,8.78,71.97-8.36,79.88-15.68l.25-.24c9.09-8.4,12.25-24.85,6.93-35.99l-11.73-18.38c-.26-.4-.37-.88-.33-1.36.03-.28,2.49-28.3-10.06-47.08-1.78-1.27-14.05-9.25-38.4-6.62-1.53,5.29-8.09,22.11-29.8,24.56-.85.1-1.66-.31-2.09-1.04s-.4-1.64.08-2.33c1.21-1.73,2.58-4.24,3.31-6.46-5.79,4.26-17.1,12.11-25.03,14.75-.77.25-1.61.06-2.18-.5-.58-.56-.79-1.4-.55-2.17.01-.03.52-1.72.79-3.98-2.47,5.24-6.59,11.7-13.03,15.82l-1.88,25.26c-.08,1.11-1,1.98-2.12,1.99,0,0-.02,0-.03,0-1.11,0-2.03-.84-2.14-1.94-.01-.15-1.58-14.65-11.35-17-4.81-1.17-9.99.17-13.84,3.58-4.69,4.14-6.8,10.56-5.94,18.09,1.8,15.8,9.44,21.64,26.39,20.13.06,0,.13,0,.19,0Z"/>
          </g>
          <g>
            <path class="st1" d="M295.11,263.07s1.94-13.9,10.81-15.73c4.11-.85,8.38.92,10.89,4.28.43.58.86,1.23,1.26,1.96,0,0,5.07-4.37,12.82.5,6.63,4.16,6.36,16.33,6.36,16.33,0,0-12.93-11.01-42.15-7.34Z"/>
            <path class="st0" d="M337.25,272.56c-.5,0-1-.18-1.4-.51-.12-.1-12.72-10.33-40.48-6.85-.66.09-1.33-.15-1.8-.62-.47-.48-.69-1.15-.6-1.81.09-.63,2.26-15.42,12.5-17.54,4.87-1,9.99,1,13.05,5.1.08.11.17.23.25.34,2.56-1.16,7.27-2.17,13.26,1.59,7.58,4.76,7.38,17.65,7.37,18.2-.02.83-.51,1.58-1.27,1.92-.28.13-.58.19-.88.19ZM306.69,260.16c14.24,0,23.41,3.58,28.13,6.13-.53-3.71-1.91-8.4-5.06-10.38-6.22-3.91-10.13-.81-10.29-.67-.49.4-1.16.58-1.78.46-.63-.12-1.18-.5-1.49-1.06-.34-.61-.71-1.19-1.11-1.72-2.07-2.77-5.49-4.13-8.73-3.46-5.09,1.05-7.51,7.4-8.51,11.15,3.14-.3,6.09-.44,8.85-.44Z"/>
          </g>
          <circle class="st10" cx="340.71" cy="358.71" r="13.22"/>
          <circle class="st10" cx="243.89" cy="355.35" r="13.22"/>
          <g>
            <path class="st0" d="M214.44,337.88c-1,0-1.89-.69-2.1-1.71h0c-.07-.33-1.85-8.1-9.74-9.25-1.18-.17-1.99-1.26-1.82-2.44.17-1.18,1.26-1.99,2.44-1.82,10.91,1.59,13.24,12.18,13.33,12.63.24,1.17-.5,2.3-1.67,2.55-.15.03-.3.05-.44.05Z"/>
            <path class="st0" d="M208.28,344.64c-.66,0-1.31-.3-1.73-.87-5.56-7.49,1.99-16.08,2.31-16.44.79-.89,2.15-.96,3.04-.17.89.79.96,2.15.17,3.04-.1.12-5.51,6.36-2.07,11.01.71.95.51,2.3-.45,3.01-.38.29-.83.42-1.28.42Z"/>
          </g>
          <path class="st0" d="M293.32,374c-13.04,0-25.07-7.62-30.66-19.41-.64-1.34-.06-2.95,1.28-3.58,1.34-.64,2.95-.06,3.58,1.28,4.7,9.92,14.82,16.33,25.79,16.33,10.15,0,19.62-5.47,24.71-14.27.74-1.29,2.39-1.73,3.68-.98,1.29.74,1.73,2.39.98,3.68-6.05,10.46-17.3,16.96-29.37,16.96Z"/>
          <path class="st0" d="M341.78,297.22c-1.19,0-2.15-.96-2.15-2.15,0-6.91-5.62-12.53-12.53-12.53-5.14,0-9.84,3.22-11.69,8.01-.43,1.11-1.68,1.66-2.78,1.23-1.11-.43-1.66-1.67-1.23-2.78,2.49-6.44,8.8-10.77,15.71-10.77,9.28,0,16.83,7.55,16.83,16.83,0,1.19-.96,2.15-2.15,2.15Z"/>
          <path class="st0" d="M283.22,288.5c-1.05,0-1.97-.77-2.13-1.84-.75-5.08-4.62-9.26-9.64-10.39-6.73-1.52-13.45,2.72-14.98,9.46-.26,1.16-1.42,1.88-2.58,1.63-1.16-.26-1.89-1.42-1.63-2.58,2.04-9.05,11.08-14.76,20.13-12.71,6.74,1.52,11.94,7.13,12.95,13.96.17,1.18-.64,2.27-1.82,2.44-.11.02-.21.02-.32.02Z"/>
          <path class="st0" d="M337.14,332.65c-1.42,0-2.61-1.12-2.69-2.56-.17-3.31-1.61-6.36-4.07-8.58-2.46-2.22-5.62-3.37-8.95-3.19-5.12.26-9.61,3.71-11.19,8.58-.46,1.41-1.98,2.18-3.39,1.73-1.42-.46-2.19-1.97-1.73-3.39,2.26-6.99,8.71-11.93,16.04-12.3,9.79-.47,18.18,7.08,18.67,16.88.07,1.48-1.07,2.75-2.55,2.82-.05,0-.09,0-.14,0Z"/>
          <path class="st0" d="M253,328.75c-.11,0-.23,0-.35-.02-1.47-.19-2.52-1.54-2.33-3.01,1.25-9.73,10.19-16.64,19.93-15.38,7.28.94,13.33,6.37,15.04,13.51.35,1.45-.54,2.9-1.99,3.24-1.45.35-2.9-.54-3.24-1.99-1.19-4.98-5.41-8.77-10.49-9.42-3.29-.42-6.55.46-9.17,2.49-2.63,2.03-4.3,4.95-4.73,8.24-.17,1.36-1.33,2.35-2.67,2.35Z"/>
          <path class="st0" d="M266.33,344.74c-.49,0-.98-.01-1.47-.03-10.06-.44-18.35-4.2-22.74-10.32-5.31-7.39-6.41-18.03-2.68-25.87,6.03-12.66,19.29-13.43,20.56-13.47,1.92-.16,3.81-.25,5.59-.23,8.56.05,15.83,2.07,21.01,5.82,4.83,3.49,7.39,9.11,7.61,16.69.31,10.41-3.9,19.05-11.25,23.1-5.14,2.83-10.86,4.32-16.62,4.32ZM260.16,299.35c-.51.01-11.81.46-16.84,11.02-3.09,6.48-2.14,15.33,2.29,21.5,5.14,7.16,15.3,8.35,19.43,8.53,5.44.23,10.93-1.06,15.82-3.75,5.91-3.26,9.28-10.43,9.02-19.2-.18-6.18-2.14-10.66-5.83-13.33-5.62-4.07-13.17-4.97-18.51-5-1.67,0-3.44.06-5.26.22-.05,0-.09,0-.13,0ZM260.11,297.2h.02-.02Z"/>
          <path class="st0" d="M325.77,346.02c-.64,0-1.26-.02-1.88-.05-4.78-.25-9.59-1.64-13.91-4.02-6.95-3.83-10.92-11.98-10.63-21.8.21-7.16,2.63-12.47,7.2-15.77,4.89-3.54,11.73-5.44,19.8-5.49,1.69-.02,3.47.06,5.26.22,1.23.04,13.72.78,19.41,12.72,3.09,6.5,2.74,14.8-.91,21.66-4.95,9.28-15.47,12.53-24.33,12.53ZM326.68,303.19c-.1,0-.2,0-.3,0-5,.03-12.05.87-17.3,4.67-3.42,2.48-5.25,6.66-5.42,12.41-.24,8.18,2.9,14.87,8.4,17.9,3.75,2.07,7.92,3.28,12.05,3.5,7.85.4,17.83-2.05,22.18-10.21,3.03-5.68,3.34-12.5.83-17.79-4.69-9.86-15.25-10.26-15.7-10.27-.04,0-.09,0-.13,0-1.58-.14-3.13-.21-4.62-.21Z"/>
          <path class="st0" d="M239.36,316.34s-.06,0-.09,0l-13.55-.56c-1.19-.05-2.11-1.05-2.06-2.24.05-1.19,1-2.11,2.24-2.06l13.55.56c1.19.05,2.11,1.05,2.06,2.24-.05,1.16-1,2.06-2.15,2.06Z"/>
          <path class="st0" d="M301.42,319.57s-.07,0-.11,0l-8.38-.43c-1.19-.06-2.1-1.07-2.04-2.26.06-1.19,1.09-2.09,2.26-2.04l8.38.43c1.19.06,2.1,1.07,2.04,2.26-.06,1.15-1.01,2.04-2.15,2.04Z"/>
        </g>
        <g>
          <g>
            <path class="st12" d="M281.99,491.38l13.14,39.35c.65,1.95,2.68,3.1,4.68,2.65h0c2.39-.54,3.75-3.07,2.87-5.35l-14.47-37.79-6.22,1.15Z"/>
            <path class="st0" d="M298.92,535.63c-2.6,0-4.98-1.65-5.84-4.22l-13.14-39.35c-.2-.59-.13-1.24.19-1.78.32-.54.85-.91,1.46-1.02l6.22-1.15c1.02-.19,2.03.38,2.4,1.35l14.47,37.79c.64,1.67.52,3.54-.33,5.12-.85,1.58-2.34,2.71-4.09,3.1-.46.1-.91.15-1.36.15ZM284.81,493.05l12.36,37c.3.91,1.23,1.43,2.17,1.23.72-.16,1.08-.66,1.23-.94.15-.28.36-.85.1-1.54l-13.83-36.12-2.02.37Z"/>
          </g>
          <g>
            <path class="st12" d="M280.59,486.53l-14.4,38.91c-.71,1.93.15,4.09,1.99,5h0c2.2,1.08,4.84-.04,5.59-2.37l12.39-38.53-5.57-3Z"/>
            <path class="st0" d="M269.95,533c-.93,0-1.86-.21-2.72-.63-2.85-1.4-4.17-4.7-3.07-7.68l14.4-38.91c.22-.58.68-1.05,1.26-1.27.58-.22,1.23-.18,1.78.12l5.57,3c.91.49,1.35,1.57,1.03,2.56l-12.39,38.53c-.55,1.71-1.81,3.09-3.46,3.79-.77.33-1.59.49-2.41.49ZM281.75,489.6l-13.54,36.58c-.33.9.07,1.89.92,2.32.67.33,1.26.17,1.55.04.29-.12.82-.44,1.04-1.14l11.84-36.82-1.81-.98Z"/>
          </g>
          <g>
            <path class="st12" d="M282.73,489.66l-8.23,40.66c-.41,2.02.78,4.02,2.74,4.63h0c2.34.73,4.78-.79,5.16-3.21l6.3-39.98-5.97-2.11Z"/>
            <path class="st0" d="M278.44,537.29c-.61,0-1.23-.09-1.83-.28-3.03-.94-4.84-4-4.21-7.11l8.23-40.66c.12-.61.51-1.14,1.05-1.45.54-.31,1.19-.36,1.78-.16l5.96,2.11c.98.34,1.57,1.34,1.41,2.37l-6.3,39.98c-.28,1.77-1.31,3.33-2.83,4.28-.99.62-2.12.93-3.26.93ZM284.35,492.52l-7.74,38.23c-.19.94.36,1.86,1.27,2.15.7.22,1.26-.03,1.53-.2.27-.17.74-.56.86-1.29l6.02-38.21-1.94-.68Z"/>
          </g>
          <g>
            <path class="st12" d="M281.24,491.63l3.83,41.31c.19,2.05,1.9,3.62,3.96,3.64h0c2.45.02,4.35-2.13,4.01-4.56l-5.49-40.1-6.32-.3Z"/>
            <path class="st0" d="M289.07,538.73h-.06c-3.18-.03-5.79-2.44-6.08-5.6l-3.83-41.31c-.06-.62.16-1.24.59-1.69.43-.45,1.05-.67,1.66-.66l6.32.3c1.04.05,1.89.83,2.03,1.86l5.49,40.1c.24,1.78-.3,3.57-1.48,4.91-1.17,1.33-2.86,2.09-4.63,2.09ZM283.61,493.89l3.6,38.84c.09.95.88,1.68,1.84,1.69.69-.09,1.2-.39,1.41-.63s.55-.75.45-1.48l-5.24-38.32-2.06-.1Z"/>
          </g>
        </g>
        <path class="st0" d="M229.64,440.27c-.68,0-1.34-.33-1.75-.9-.17-.22-4.37-5.74-12.91-2.53-1.11.41-2.35-.15-2.77-1.26-.42-1.11.15-2.35,1.26-2.77,6.1-2.29,10.96-1.12,14.2.78-.26-10.45-4.35-25.79-4.4-25.97-.31-1.15.37-2.33,1.52-2.64,1.15-.31,2.33.37,2.64,1.52.23.86,5.65,21.23,4.35,31.87-.11.88-.74,1.61-1.6,1.83-.18.05-.36.07-.53.07Z"/>
        <path class="st0" d="M239.97,422.34c-.64,0-1.26-.28-1.69-.82l-5.47-6.92c-.69-.87-.6-2.13.21-2.9l7.22-6.86-11.66-5.57c-.95-.46-1.44-1.54-1.14-2.55l4.99-16.89c.34-1.14,1.54-1.79,2.67-1.46,1.14.34,1.79,1.53,1.46,2.67l-4.47,15.13,12.82,6.13c.64.31,1.09.91,1.2,1.61s-.13,1.41-.64,1.9l-8.07,7.66,4.25,5.38c.74.93.58,2.29-.35,3.02-.4.31-.87.46-1.33.46Z"/>
        <path class="st0" d="M328.06,418.32c-.78,0-1.54-.43-1.92-1.17l-4.02-7.88c-.46-.9-.23-2,.55-2.64l6.29-5.17-4.67-9.07c-.54-1.06-.13-2.36.93-2.9,1.06-.54,2.36-.13,2.9.93l5.47,10.62c.46.9.24,2.01-.55,2.65l-6.3,5.18,3.23,6.34c.54,1.06.12,2.36-.94,2.9-.31.16-.65.24-.98.24Z"/>
        <path class="st0" d="M337.14,425.88s-.03,0-.05,0c-1.19-.03-2.13-1.01-2.1-2.2l.32-14.16c.03-1.19,1.01-2.2,2.2-2.1,1.19.03,2.13,1.01,2.1,2.2l-.32,14.16c-.03,1.17-.99,2.1-2.15,2.1Z"/>
        <g>
          <g>
            <path class="st4" d="M287.41,510.48s11.49,4.46,19.61-.79c8.12-5.25,9.9-15.85,5.74-22.09l-20.3-3.86-7.33,12.48,2.28,14.26Z"/>
            <path class="st0" d="M297.34,514.4c-5.67,0-10.4-1.79-10.72-1.92-.71-.28-1.23-.91-1.35-1.67l-2.28-14.26c-.08-.49.02-1,.27-1.43l7.33-12.48c.46-.78,1.37-1.19,2.26-1.03l20.3,3.86c.57.11,1.07.44,1.39.92,2.31,3.46,3.08,8.08,2.13,12.68-1.07,5.15-4.09,9.56-8.5,12.41-3.43,2.21-7.32,2.91-10.84,2.91ZM289.33,508.85c2.92.88,10.82,2.72,16.52-.97,3.44-2.22,5.79-5.65,6.62-9.67.65-3.14.27-6.25-1.05-8.67l-17.87-3.4-6.17,10.5,1.95,12.21Z"/>
          </g>
          <g>
            <g>
              <path class="st4" d="M256.61,479.35s-7.15,10.38-1.85,21.92c5.31,11.54,21.23,14.77,26.99,14.07s12.69-3.92,10.61-9.46c0,0,6-3,1.85-12.23l-15.69-15.46-21.92,1.15Z"/>
              <path class="st0" d="M280.2,517.58c-7.23,0-22.05-3.8-27.39-15.41-5.75-12.51,1.71-23.57,2.03-24.04.38-.55.99-.89,1.66-.93l21.92-1.15c.6-.04,1.19.19,1.62.62l15.69,15.46c.19.19.34.41.45.65,3.27,7.27,1.04,11.87-1.36,14.01.24,1.64-.08,3.22-.95,4.66-2.23,3.67-7.59,5.53-11.86,6.04-.53.06-1.14.1-1.82.1ZM257.86,481.44c-1.45,2.57-5.07,10.38-1.13,18.93,4.84,10.53,19.68,13.44,24.78,12.84,3.98-.48,7.55-2.12,8.69-4,.47-.78.53-1.6.16-2.57-.39-1.03.07-2.19,1.05-2.68.38-.21,3.86-2.36,1-9.06l-14.72-14.5-19.84,1.04Z"/>
            </g>
            <path class="st0" d="M285.41,508.74c-3.79,0-6.39-.57-6.55-.61-1.16-.26-1.88-1.41-1.63-2.57.26-1.16,1.41-1.89,2.57-1.63.05.01,5.62,1.22,12.13-.16,1.16-.25,2.31.5,2.55,1.66.25,1.16-.5,2.31-1.66,2.55-2.71.57-5.25.76-7.41.76Z"/>
            <path class="st0" d="M288.94,502.26c-4.77,0-9.07-.99-9.34-1.05-1.16-.27-1.88-1.43-1.61-2.58s1.43-1.88,2.58-1.61c.09.02,8.77,2,14.09.17,1.12-.39,2.35.21,2.74,1.33.39,1.13-.21,2.35-1.33,2.74-2.19.75-4.72,1.01-7.13,1.01Z"/>
          </g>
        </g>
        <g>
          <g>
            <path class="st12" d="M337.28,437.59s13.18-.44,18.36,8.14c0,0-4.44,13.47-19.84,6.22l1.48-14.36Z"/>
            <path class="st0" d="M344.18,456.26c-2.86,0-5.97-.79-9.3-2.36-.83-.39-1.32-1.26-1.22-2.17l1.48-14.36c.11-1.07.99-1.89,2.07-1.93.59-.01,14.51-.38,20.28,9.18.32.54.4,1.19.2,1.79-.08.25-2.11,6.21-7.99,8.74-1.71.74-3.55,1.1-5.51,1.1ZM338.1,450.61c3.84,1.55,7.14,1.75,9.85.6,2.94-1.25,4.56-3.86,5.25-5.25-3.61-4.85-10.63-5.92-13.98-6.16l-1.11,10.81Z"/>
          </g>
          <g>
            <path class="st12" d="M336.83,448.85s11.4,5.92,12.29,15.55c0,0-14.66,7.85-26.06-8.29l6.07-7.11,7.7-.15Z"/>
            <path class="st0" d="M340.53,468.41c-5.68,0-12.96-2.2-19.23-11.07-.57-.8-.52-1.89.12-2.64l6.07-7.11c.4-.47.98-.74,1.6-.75l7.7-.15c.36.01.71.08,1.03.24.51.26,12.45,6.59,13.44,17.26.08.86-.36,1.69-1.13,2.1-.08.04-4.09,2.12-9.61,2.12ZM325.82,456.19c8.08,10.23,17.43,8.16,20.91,6.89-1.52-6.5-8.58-10.98-10.44-12.07l-6.15.12-4.33,5.06Z"/>
          </g>
          <g>
            <path class="st12" d="M322.92,451.07l-10.96,9.77,3.11,10.07s11.4,8.59,20.73,9.33c0,0,5.33-13.77-12.88-29.17Z"/>
            <path class="st0" d="M335.8,482.39c-.06,0-.11,0-.17,0-9.84-.78-21.37-9.39-21.85-9.75-.36-.27-.63-.65-.76-1.09l-3.11-10.07c-.25-.81,0-1.68.62-2.24l10.96-9.77c.8-.71,2-.73,2.82-.04,19.16,16.2,13.74,30.97,13.5,31.59-.32.83-1.13,1.38-2.01,1.38ZM316.92,469.58c2.15,1.52,10.17,6.96,17.27,8.26.62-3.67.7-13.12-11.25-23.91l-8.51,7.59,2.49,8.06Z"/>
          </g>
          <g>
            <g>
              <path class="st2" d="M295.46,412.88s7.15-9.65,16.8-7.02c0,0,6.77.75,8.27,8.15,0,0,6.39-4.89,11.16-1,4.76,3.89,2.01,11.41,2.01,11.41,0,0,5.89-2.88,10.53,2.38,4.64,5.27.5,12.29-5.01,13.79,0,0,4.26,7.15,1.5,12.16-2.76,5.01-12.66,1.38-12.66,1.38,0,0-.75,8.9-16.55,5.39l-28.96-4.51,6.39-29.71,6.52-12.41Z"/>
              <path class="st0" d="M318.17,462.49c-2.13,0-4.51-.29-7.12-.87l-28.82-4.49c-.59-.09-1.11-.42-1.44-.91s-.46-1.09-.33-1.67l6.39-29.71c.04-.19.11-.38.2-.55l6.52-12.41c.05-.1.11-.19.18-.28.33-.44,8.08-10.7,18.94-7.86,2.5.34,6.95,2.21,9.09,7.04,2.78-1.35,7.35-2.65,11.29.56,3.53,2.88,3.83,7.14,3.48,10.17,2.84-.21,6.38.54,9.31,3.86,2.37,2.69,3.12,6.01,2.12,9.35-.89,2.96-3.05,5.52-5.79,6.99,1.22,2.85,2.72,7.92.44,12.08-2.73,4.95-9.58,3.95-13.15,3.02-.51,1.05-1.37,2.27-2.81,3.33-2.14,1.57-4.97,2.36-8.48,2.36ZM285.14,453.22l26.71,4.16c7.08,1.57,10.51.51,12.17-.66,1.69-1.19,1.9-2.76,1.91-2.82.08-.65.46-1.25,1.02-1.59s1.25-.43,1.86-.21c2.67.97,8.63,2.16,10.04-.39,2.1-3.83-1.43-9.96-1.47-10.02-.34-.58-.4-1.28-.15-1.91.25-.62.78-1.1,1.43-1.27,2.4-.65,4.48-2.67,5.19-5.02.4-1.32.5-3.3-1.22-5.26-3.4-3.86-7.52-2.08-7.98-1.86-.79.37-1.73.23-2.38-.36-.64-.59-.88-1.51-.58-2.32.02-.05,2.16-6.14-1.34-9-3.37-2.75-8.44,1.01-8.49,1.05-.59.44-1.37.56-2.06.3-.69-.26-1.2-.86-1.35-1.58-1.16-5.7-6.2-6.41-6.42-6.44-.1-.01-.22-.03-.31-.06-7.62-2.08-13.62,5.11-14.41,6.11l-6.3,11.98-5.85,27.19Z"/>
            </g>
            <path class="st14" d="M313.86,424.13c-.88.18-1.8.53-2.29,1.28-.49.74-.44,1.73-.11,2.55.33.82.92,1.51,1.49,2.18-.96.71-1.85,1.58-2.3,2.69-.45,1.11-.37,2.49.44,3.36,1.14,1.24,3.12,1.03,4.77.73-.44,1.56-.07,3.35,1.03,4.53,1.1,1.19,2.93,1.68,4.45,1.12,1.52-.56,2.6-2.2,2.42-3.81,1.84.61,3.96.59,5.62-.4,1.66-.99,2.72-3.08,2.18-4.95-.12-.41-.31-.8-.61-1.1-.64-.64-1.63-.74-2.54-.74-1.08,0-2.16.1-3.22.28.52-.09,1.06-1.88,1.18-2.31.25-.89.31-1.84.18-2.75-.24-1.7-1.04-3.16-2.97-3.13-1.17.02-2.3.5-3.26,1.16s-1.79,1.51-2.61,2.34c-.39-1.93-1.8-3.47-3.85-3.05Z"/>
          </g>
          <g>
            <g>
              <path class="st2" d="M252.27,435.48s-11.13-4.97-19.88,1.19c-8.75,6.16-.8,11.93-.8,11.93,0,0-11.53.99-12.12,11.93-.6,10.93,13.52,8.35,13.52,8.35,0,0-7.55,10.73,1.99,15.7,9.54,4.97,13.91-6.36,13.91-6.36,0,0,2.58,11.13,17.89,5.37l9.34-34.78-23.85-13.32Z"/>
              <path class="st0" d="M239.62,488c-1.82,0-3.71-.5-5.64-1.51-3.07-1.6-4.98-3.88-5.69-6.79-.74-3.03.05-6.12.99-8.41-2.79-.04-6.43-.6-8.97-2.84-1.49-1.31-3.22-3.78-2.99-8.04.42-7.7,5.67-11.53,10.2-13.09-.77-1.21-1.4-2.74-1.38-4.52.02-2.9,1.71-5.55,5.02-7.88,9.63-6.79,21.49-1.62,21.99-1.4.06.03.12.05.17.09l23.85,13.32c.86.48,1.29,1.49,1.03,2.44l-9.34,34.78c-.18.67-.67,1.21-1.32,1.46-6.08,2.29-11.13,2.39-15.02.31-1.66-.89-2.86-2.05-3.72-3.18-1.28,1.75-3.16,3.67-5.71,4.63-1.12.42-2.28.64-3.46.64ZM232.98,466.72c.73,0,1.42.37,1.82.99.47.74.45,1.68-.05,2.4-.03.04-3.23,4.69-2.27,8.58.41,1.66,1.55,2.97,3.49,3.98,2.07,1.08,3.9,1.3,5.58.67,3.5-1.31,5.32-5.86,5.34-5.9.34-.88,1.2-1.4,2.16-1.36.94.07,1.73.74,1.94,1.66.03.1.76,2.92,3.61,4.41,2.55,1.33,6.04,1.26,10.39-.21l8.61-32.07-22.29-12.44c-.94-.39-10.42-4.1-17.69,1.02-2.1,1.48-3.17,2.95-3.19,4.37-.02,1.83,1.75,3.55,2.43,4.06.72.53,1.04,1.46.79,2.32s-.99,1.48-1.88,1.56c-.39.04-9.67,1.01-10.16,9.9-.11,2.06.39,3.55,1.53,4.57,2.5,2.21,7.67,1.87,9.45,1.55.13-.02.25-.03.38-.03Z"/>
            </g>
            <path class="st14" d="M240.14,449c-1.92.2-3.6,1.84-3.83,3.76-.23,1.92,1.01,3.91,2.83,4.56-1.84,1.17-3.76,2.99-3.39,5.14.3,1.71,2.04,2.86,3.77,3.05s3.43-.36,5.08-.9c-.43,1.32.41,2.79,1.61,3.49s2.65.77,4.04.69c1.48-.08,3.04-.35,4.19-1.29,2.22-1.8,2.06-5.25,1.18-7.97,1.31.53,2.89-.17,3.7-1.33.82-1.15,1.02-2.64.98-4.06-.06-1.94-.67-4.08-2.36-5.04-1.84-1.05-4.15-.3-6.12.48,1.21-1.51.71-4.02-.92-5.07-1.62-1.05-3.99-.59-5.23.9-1.34,1.61-.53,3.28-1.02,4.96-1.41-.71-2.84-1.54-4.5-1.37Z"/>
            <path class="st7" d="M246.16,455.24c.11-.06.22-.12.34-.16.82-.33,1.94.29,2.57.78.31.25.6.56.69.95.08.36-.03.73-.19,1.06-.44.87-1.35,1.52-2.33,1.55-.98.04-1.97-.58-2.3-1.5-.4-1.12.26-2.16,1.22-2.69Z"/>
          </g>
          <g>
            <g>
              <path class="st2" d="M256.5,419.15s-8.24-7.15-15.17.22c-6.94,7.37-4.55,18.86,5.85,16.91,0,0-3.47,12.36,5.2,14.74,8.67,2.38,11.49-4.34,11.49-4.34,0,0-2.82,10.4,4.77,13.44,7.59,3.03,29.48,6.07,27.74-19.94,0,0,10.62,0,10.4-10.62-.22-10.62-8.02-9.75-8.02-9.75,0,0,4.77-13.01-3.68-15.82-8.45-2.82-13.01-.22-16.91,6.72,0,0-5.87-8.55-13.89-5.52-8.02,3.03-8.87,7.69-7.78,13.97Z"/>
              <path class="st0" d="M279.21,464.21c-4.57,0-8.84-1.08-11.37-2.09-4.58-1.83-6.25-5.9-6.58-9.74-2.3,1.23-5.43,1.81-9.45.71-2.62-.72-4.59-2.23-5.87-4.5-1.81-3.21-1.74-7.25-1.4-9.95-3.56-.11-6.41-1.74-8.03-4.71-2.57-4.69-1.23-11.29,3.25-16.04,4.71-5,10.2-4.56,14.2-2.82.04-4.7,2.03-9.06,9.56-11.9,5.98-2.26,11.26.82,14.39,3.91,4.43-6.26,9.91-7.78,17.85-5.14,2.45.82,4.25,2.38,5.34,4.64,1.78,3.7,1.13,8.45.44,11.35,1.15.3,2.47.87,3.7,1.95,2.36,2.07,3.6,5.31,3.69,9.63.08,3.73-1.01,6.77-3.22,9.03-2.24,2.28-5.13,3.19-7.1,3.55.19,8.69-2.28,14.95-7.36,18.65-3.57,2.6-7.94,3.47-12.05,3.47ZM263.87,444.53c.24,0,.48.04.71.12,1.06.38,1.66,1.5,1.36,2.58-.09.35-2.21,8.6,3.49,10.88,4.69,1.88,13.7,3.2,19.29-.86,4.2-3.05,6.05-8.75,5.51-16.94-.04-.59.17-1.18.58-1.61.41-.44.98-.68,1.57-.68.03,0,3.9-.06,6.28-2.52,1.36-1.4,2.02-3.38,1.97-5.9-.06-3.06-.81-5.24-2.22-6.48-1.51-1.32-3.39-1.18-3.41-1.18-.74.09-1.47-.23-1.93-.81-.46-.59-.59-1.37-.33-2.07.67-1.84,2.06-7.34.48-10.62-.57-1.18-1.49-1.98-2.82-2.42-6.91-2.31-10.67-.8-14.35,5.73-.36.65-1.04,1.06-1.78,1.1-.73.02-1.45-.32-1.87-.93-.2-.29-5.05-7.11-11.36-4.72-6.68,2.53-7.41,5.89-6.42,11.59.15.9-.27,1.79-1.06,2.24-.79.45-1.78.35-2.46-.25-.69-.59-6.88-5.59-12.2.06-3.59,3.81-4.03,8.43-2.61,11.03,1.44,2.63,4.32,2.7,6.49,2.29.73-.14,1.48.12,1.98.66.5.55.69,1.32.49,2.03-.46,1.66-1.27,6.61.44,9.63.7,1.24,1.77,2.04,3.26,2.45,6.54,1.8,8.71-2.6,8.94-3.11.36-.8,1.15-1.29,1.98-1.29Z"/>
            </g>
            <path class="st14" d="M268.5,421.53c-.66.22-1.16.61-1.6,1.19-.94,1.24-1.33,2.89-1.04,4.41.07.38.19.76.34,1.11-1.61.5-3.15,1.32-4.29,2.56-1.14,1.24-1.86,2.92-1.75,4.6.12,1.68,1.14,3.32,2.69,3.98,1.18.5,2.55.41,3.75-.03s2.26-1.2,3.24-2.02c.78,2.57,2.68,4.82,5.16,5.83,2.48,1.02,5.51.7,7.63-.95,2.12-1.65,3.16-4.63,2.35-7.19,2.11-.32,4.09-1.44,5.45-3.08,1.36-1.65,2.08-3.8,1.99-5.93-.03-.78-.23-1.65-.89-2.05-.35-.21-.76-.26-1.17-.27-1.37-.03-2.75.35-3.91,1.08.24-1.51.36-2.99-.45-4.15-.6-.86-1.78-1.06-2.82-1.04-3.31.05-6.57,1.63-8.66,4.2-.89-.89-1.89-1.71-3.07-2.14-.83-.3-1.75-.4-2.61-.2-.12.03-.23.06-.34.1Z"/>
            <path class="st7" d="M278.36,433.84c-.07.11-.14.21-.23.3-.57.67-1.84.66-2.63.51-.39-.07-.8-.21-1.05-.52-.24-.28-.32-.66-.33-1.02-.03-.98.48-1.97,1.32-2.46.85-.49,2.01-.41,2.73.24.88.8.78,2.03.19,2.94Z"/>
          </g>
          <g>
            <g>
              <path class="st2" d="M282.41,453.86s-10.24-7.32-16.1,1.1c-5.85,8.41,3.66,14.63,3.66,14.63,0,0-10.24,6.95-3.29,14.27,6.95,7.32,15-.73,15-.73,0,0-2.56,10.97,7.68,12.44,10.24,1.46,11.71-7.68,11.71-7.68,0,0,5.26,5.17,11.78,1.64,6.51-3.54.56-12.28.56-12.28,0,0,9.49,2.79,11.35-4.84,1.86-7.63-1.67-12.28-6.89-12.47,0,0,4.09-10.42-3.72-13.77-8.13-3.49-12.84.74-16.38,5.58,0,0-2.61-7.26-8.75-6.33-6.14.93-6.61,8.45-6.61,8.45Z"/>
              <path class="st0" d="M291.52,497.88c-.77,0-1.59-.06-2.46-.18-3.49-.5-6.12-2.01-7.82-4.48-1.26-1.84-1.77-3.93-1.93-5.77-1.7.9-3.83,1.67-6.2,1.64-2.97-.04-5.66-1.3-7.98-3.74-2.27-2.38-3.26-5.02-2.96-7.82.37-3.41,2.66-6.22,4.45-7.93-1.58-1.54-3.55-3.99-4.16-7.14-.58-2.96.13-5.9,2.1-8.73,1.86-2.68,4.3-4.3,7.23-4.8,3.47-.6,6.85.53,9.12,1.61,1.01-3.09,3.31-6.57,7.8-7.25,4.41-.67,7.57,1.92,9.44,4.59,3.54-3.88,8.83-7.13,16.86-3.69,6.41,2.75,6.69,9.42,5.64,14.04,1.86.57,3.45,1.68,4.63,3.23,2.14,2.82,2.7,6.89,1.59,11.46-.61,2.51-2.02,4.46-4.06,5.64-1.81,1.05-3.85,1.35-5.61,1.35h-.03c.71,1.92,1.21,4.29.66,6.57-.51,2.11-1.87,3.82-3.94,4.95-4.5,2.45-8.8,1.47-11.67-.09-1.52,3.18-4.79,6.55-10.69,6.55ZM281.68,480.98c.36,0,.72.09,1.05.27.84.47,1.27,1.43,1.05,2.36,0,.04-.94,4.32,1.03,7.18,1,1.45,2.59,2.31,4.86,2.63,7.81,1.11,9.15-5.18,9.28-5.91.14-.79.7-1.44,1.46-1.69.76-.24,1.6-.05,2.17.51.16.15,4.25,3.99,9.24,1.28,1-.54,1.58-1.23,1.81-2.17.6-2.44-1.24-5.89-2-7.01-.51-.75-.49-1.74.05-2.48.54-.73,1.47-1.05,2.34-.8,1.11.32,4.49.88,6.64-.36,1.02-.59,1.68-1.55,2.01-2.92.8-3.28.5-6.07-.84-7.84-.93-1.23-2.32-1.91-4.03-1.97-.7-.03-1.34-.39-1.72-.97-.38-.58-.46-1.32-.2-1.97.13-.34,3.22-8.52-2.57-11-6.46-2.77-10.19-.05-13.79,4.87-.47.64-1.26.98-2.05.86-.79-.11-1.45-.65-1.72-1.4-.08-.22-2.08-5.59-6.4-4.93-4.32.66-4.77,6.23-4.79,6.46-.05.78-.53,1.47-1.23,1.8-.7.33-1.53.26-2.16-.19h0s-4.52-3.17-8.67-2.44c-1.77.31-3.22,1.3-4.41,3.02-1.29,1.86-1.75,3.63-1.41,5.43.69,3.62,4.45,6.15,4.49,6.18.6.4.96,1.07.97,1.79,0,.72-.35,1.39-.94,1.79-1.21.83-4.43,3.64-4.74,6.62-.16,1.5.43,2.94,1.8,4.38,1.51,1.59,3.11,2.37,4.9,2.4.03,0,.07,0,.1,0,3.66,0,6.89-3.15,6.92-3.18.41-.41.96-.62,1.52-.62Z"/>
            </g>
            <path class="st14" d="M285.79,462.22c-1.68,1.11-2.55,3.37-1.24,6.07.52,1.07,1.34,1.99,2.35,2.61-.53-.33-1.84,2.04-1.97,2.4-.36,1.03-.41,2.28.19,3.23,1.77,2.81,5.96,1.06,7.7-.83-.32,1.33.46,2.74,1.59,3.51,1.13.77,2.54,1.01,3.91,1.09,2.23.14,4.93-.4,5.74-2.48.64-1.63-.21-3.43-1.03-4.97,2.13.14,4.75-1.02,5.51-3.12.5-1.38.25-2.94-.35-4.28-.46-1.04-1.32-1.51-2.47-1.59-.36-.02-2.91.31-2.92.65.02-1.48.5-3.36-.87-4.44-3.31-2.61-8.23.38-9.48,3.67-1.97-2.57-4.8-2.76-6.65-1.54Z"/>
            <path class="st7" d="M297.02,467.61c.09.09.18.18.26.28.56.68.31,1.93.03,2.68-.14.37-.35.74-.7.94-.32.18-.71.2-1.07.14-.97-.15-1.85-.83-2.18-1.75-.33-.92-.04-2.05.74-2.64.95-.72,2.14-.4,2.93.35Z"/>
            <path class="st7" d="M321.94,433.69c-.07.1-.15.2-.23.3-.58.66-1.86.61-2.64.45-.39-.08-.79-.23-1.04-.54-.23-.28-.3-.67-.3-1.03,0-.98.53-1.96,1.39-2.43s2.02-.36,2.72.31c.86.83.73,2.05.11,2.95Z"/>
          </g>
        </g>
        <g>
          <g>
            <path class="st7" d="M217.89,295.25c.19-1.4,0-2.9-.96-3.98-1.14-1.3-2.93-2.01-4.65-1.81-2.01.23-3.81,1.71-4.45,3.62-1.7-.72-3.57-1.45-5.34-.92-1.68.5-2.87,2.06-3.42,3.73-.52,1.6-.41,3.65.98,4.59-1.77.26-3.45,1.29-4.33,2.85-.88,1.56-.86,3.63.2,5.08,1.06,1.44,2.78,1.56,4.78,1.3-.2,1.81.62,3.7,2.09,4.8,1.46,1.09,3.51,1.34,5.19.64,1.68-.7,2.94-2.34,3.19-4.15,1.83.39,3.82.76,5.5-.06,1.67-.81,2.64-2.67,2.85-4.52.15-1.3-.03-2.64-.62-3.81-.59-1.16-1.6-2.13-2.84-2.55.66-1.26,1.32-2.54,1.66-3.93.07-.29.13-.59.17-.89Z"/>
            <path class="st0" d="M205.97,317.69c-1.6,0-3.2-.5-4.48-1.46-1.39-1.04-2.37-2.59-2.77-4.27-1.49-.09-3.28-.57-4.53-2.28-1.53-2.08-1.66-5.06-.34-7.41.69-1.22,1.74-2.24,2.99-2.94-.35-1.35-.23-2.84.19-4.12.84-2.56,2.65-4.47,4.85-5.12,1.76-.52,3.5-.19,4.95.29,1.22-1.67,3.12-2.82,5.2-3.07,2.4-.28,4.9.69,6.51,2.53,1.25,1.43,1.78,3.45,1.47,5.69-.05.38-.12.75-.21,1.12-.23.91-.56,1.76-.93,2.57.79.65,1.46,1.47,1.94,2.42.75,1.49,1.04,3.22.84,5.02-.31,2.77-1.86,5.15-4.04,6.21-1.66.81-3.44.79-4.97.58-.79,1.62-2.16,2.97-3.83,3.67-.9.38-1.86.56-2.83.56ZM200.7,307.55c.56,0,1.1.22,1.51.62.47.46.7,1.11.63,1.77-.12,1.06.38,2.2,1.23,2.84.85.64,2.09.79,3.07.38.98-.41,1.74-1.4,1.89-2.45.08-.59.41-1.13.9-1.47.49-.34,1.1-.46,1.69-.34,1.65.35,3.1.6,4.11.11.86-.42,1.5-1.53,1.65-2.83.11-.94-.04-1.86-.4-2.59-.36-.71-.96-1.26-1.62-1.49-.59-.2-1.07-.66-1.3-1.24-.23-.58-.2-1.24.09-1.79.62-1.19,1.2-2.31,1.48-3.46.05-.21.1-.43.13-.65,0,0,0,0,0,0,.08-.57.12-1.63-.44-2.27-.69-.78-1.76-1.22-2.78-1.1-1.17.14-2.28,1.05-2.65,2.16-.19.57-.61,1.04-1.15,1.29-.55.25-1.18.25-1.73.02-1.46-.62-2.87-1.15-3.89-.84-.99.29-1.68,1.4-1.98,2.33-.32.99-.18,1.92.14,2.14.73.5,1.09,1.4.89,2.26-.2.86-.91,1.52-1.78,1.65-1.19.18-2.25.86-2.77,1.78-.49.87-.47,2.03.06,2.74.19.25.53.72,2.76.44.09-.01.18-.02.27-.02Z"/>
          </g>
          <path class="st14" d="M208.94,299.76c-1.91-.28-4.05,1.08-3.97,3.29.06,1.56,1.63,2.56,3.07,2.7,2.57.25,4.67-2.56,2.95-4.8-.54-.7-1.27-1.08-2.04-1.19Z"/>
        </g>
        <g>
          <g>
            <path class="st7" d="M332.94,231.16c.95-1.05,1.64-2.39,1.46-3.83-.21-1.71-1.28-3.32-2.81-4.13-1.79-.94-4.11-.75-5.72.47-1-1.55-2.13-3.21-3.88-3.78-1.67-.54-3.53.08-4.93,1.14-1.34,1.02-2.4,2.77-1.79,4.34-1.61-.78-3.58-.89-5.18-.1-1.61.79-2.76,2.51-2.71,4.3.06,1.79,1.41,2.86,3.2,3.78-1.19,1.38-1.58,3.41-.99,5.14.59,1.73,2.13,3.09,3.92,3.46,1.79.37,3.75-.26,4.97-1.61,1.29,1.36,2.72,2.79,4.57,3.06,1.84.27,3.69-.71,4.9-2.12.85-.99,1.47-2.2,1.64-3.49.17-1.29-.12-2.66-.9-3.71,1.26-.67,2.52-1.35,3.59-2.3.22-.2.44-.41.64-.63Z"/>
            <path class="st0" d="M323.66,245.6c-.31,0-.62-.02-.92-.07-1.82-.27-3.29-1.29-4.43-2.33-1.57.89-3.46,1.23-5.23.86-2.52-.52-4.69-2.44-5.52-4.88-.56-1.65-.49-3.48.13-5.09-1.18-.91-2.38-2.33-2.45-4.45-.08-2.58,1.49-5.11,3.91-6.3,1.26-.62,2.7-.87,4.13-.73.48-1.31,1.42-2.47,2.48-3.29,2.14-1.63,4.72-2.19,6.9-1.48,1.75.57,3,1.82,3.92,3.04,1.95-.68,4.17-.56,6.02.41,2.13,1.13,3.64,3.34,3.94,5.77.23,1.89-.48,3.85-2,5.53-.26.29-.53.56-.82.81-.7.62-1.46,1.13-2.21,1.59.28.98.37,2.04.23,3.09-.22,1.65-.96,3.25-2.15,4.61-1.59,1.84-3.8,2.9-5.93,2.9ZM318.49,238.19c.59,0,1.15.24,1.56.67,1.16,1.22,2.22,2.25,3.33,2.42.93.14,2.1-.41,2.96-1.4.62-.72,1.03-1.56,1.13-2.36.11-.78-.08-1.58-.49-2.14-.37-.5-.51-1.14-.37-1.75.14-.61.53-1.13,1.09-1.43,1.18-.63,2.3-1.23,3.18-2.01.17-.15.32-.3.47-.47,0,0,0,0,0,0,.39-.43,1.03-1.28.92-2.12-.13-1.04-.78-2.01-1.67-2.48-1.04-.55-2.48-.43-3.41.28-.48.36-1.09.51-1.68.41-.59-.11-1.11-.45-1.44-.96-.86-1.34-1.71-2.57-2.73-2.9-.99-.32-2.17.21-2.96.8-.82.63-1.24,1.48-1.09,1.84.32.83.11,1.77-.54,2.37-.65.6-1.61.74-2.4.35-1.08-.53-2.34-.56-3.29-.1-.9.44-1.53,1.41-1.5,2.3,0,.31.03.9,2.03,1.93.59.3,1,.85,1.13,1.5.13.65-.05,1.32-.48,1.82-.69.81-.93,2.03-.59,3.04.34,1.01,1.28,1.83,2.32,2.05,1.04.21,2.22-.17,2.94-.95.4-.44.97-.7,1.57-.7h.02Z"/>
          </g>
          <path class="st14" d="M323.01,229.82c-1.42-1.31-3.95-1.4-5.13.47-.84,1.32-.1,3.03,1,3.96,1.98,1.65,5.3.53,5.14-2.29-.05-.88-.44-1.61-1.01-2.14Z"/>
        </g>
        <g>
          <g>
            <path class="st7" d="M235.84,212.35c-1.76-.7-3.76-.93-5.47-.05-2.05,1.06-3.56,3.14-3.86,5.44-.35,2.68.98,5.5,3.26,6.94-1.48,1.97-3.03,4.16-2.93,6.63.1,2.34,1.74,4.39,3.73,5.64,1.9,1.2,4.6,1.72,6.27.22-.23,2.38.56,4.89,2.3,6.54,1.74,1.64,4.43,2.29,6.64,1.38s2.92-3.11,3.23-5.77c2.29.84,5,.39,6.89-1.15,1.89-1.54,2.88-4.11,2.51-6.52s-2.08-4.57-4.34-5.48c1.1-2.25,2.22-4.71,1.7-7.15-.51-2.43-2.61-4.28-4.94-5.15-1.63-.61-3.44-.81-5.14-.42-1.7.39-3.28,1.39-4.22,2.85-1.43-1.26-2.87-2.53-4.55-3.42-.35-.19-.72-.36-1.09-.51Z"/>
            <path class="st0" d="M243.63,247.65c-2.15,0-4.33-.83-5.97-2.38-1.4-1.33-2.36-3.11-2.78-5.06-1.89.17-3.89-.45-5.45-1.44-2.84-1.79-4.61-4.54-4.73-7.37-.11-2.47,1.01-4.65,2.16-6.36-1.87-2-2.84-4.82-2.48-7.57.38-2.97,2.3-5.68,5-7.08,2.1-1.08,4.6-1.1,7.26-.04h0c.45.18.89.38,1.31.61,1.24.66,2.34,1.47,3.36,2.32,1.1-.93,2.46-1.61,3.93-1.95,2.04-.46,4.24-.29,6.37.51,3.26,1.22,5.67,3.79,6.29,6.72.52,2.45-.18,4.77-1.02,6.71,1.94,1.44,3.32,3.63,3.68,6.03.48,3.15-.8,6.5-3.28,8.51-1.81,1.48-4.19,2.19-6.52,2.03-.54,2.12-1.65,4.19-4.15,5.22-.94.38-1.95.57-2.97.57ZM236.84,235.01c.33,0,.67.08.97.23.79.4,1.26,1.25,1.17,2.13-.18,1.82.45,3.64,1.64,4.77,1.17,1.11,3,1.51,4.35.95.78-.32,1.56-1.03,1.91-4.03.08-.66.45-1.24,1.01-1.58.56-.35,1.25-.41,1.87-.19,1.57.58,3.49.25,4.79-.8,1.3-1.06,1.99-2.88,1.74-4.53-.25-1.65-1.46-3.18-3.02-3.8-.56-.22-.99-.67-1.21-1.22-.22-.56-.19-1.18.07-1.72,1.05-2.15,1.89-4.07,1.53-5.76-.31-1.48-1.72-2.89-3.58-3.58-1.32-.49-2.71-.62-3.9-.34-1.21.28-2.29,1-2.89,1.93-.34.53-.89.88-1.51.96-.62.09-1.25-.1-1.72-.52-1.38-1.21-2.68-2.36-4.14-3.14-.28-.15-.57-.29-.88-.41h0c-1.02-.4-2.49-.76-3.69-.14-1.44.75-2.51,2.24-2.71,3.8-.24,1.85.7,3.84,2.28,4.84.51.32.86.84.97,1.43.11.59-.03,1.2-.4,1.68-1.36,1.81-2.57,3.57-2.5,5.24.07,1.66,1.46,3.11,2.72,3.91,1.19.75,2.89,1.15,3.69.44.4-.36.92-.55,1.43-.55Z"/>
          </g>
          <path class="st14" d="M238.8,225.41c-.98,2.39.09,5.6,2.98,6.21,2.04.43,3.85-1.29,4.49-3.1,1.15-3.25-1.81-6.88-5.27-5.37-1.08.47-1.81,1.3-2.2,2.26Z"/>
        </g>
      </g>
      <path class="st0" d="M370.88,490.28c-.72,0-1.43-.36-1.84-1.03-.62-1.01-.31-2.33.7-2.96.34-.21,8.61-5.22,19.09-4.06,1.18.13,2.03,1.19,1.91,2.38s-1.2,2.03-2.38,1.91c-8.95-.99-16.29,3.41-16.36,3.45-.35.21-.74.32-1.12.32Z"/>
      <path class="st0" d="M372.33,498.79c-.75,0-1.48-.39-1.88-1.09-.59-1.03-.22-2.35.81-2.94.36-.21,9.02-5.03,18.98-3.41,1.17.19,1.97,1.3,1.78,2.47-.19,1.17-1.3,1.98-2.47,1.78-8.48-1.38-16.09,2.86-16.16,2.91-.34.19-.7.28-1.06.28Z"/>
      <path class="st0" d="M394.76,508.11c-2.88,0-6.05-.79-9.41-2.81-3.4.51-12.89,1.44-15.1-3.64-.44-.81-.86-2.21-.58-3.85-.88-.56-1.81-1.44-2.35-2.76-.67-1.67-.53-3.58.42-5.71-.7-.36-1.39-.85-1.92-1.52-2.37-2.96-1.38-6.42-.42-7.99,4.39-7.53,15.88-10.51,24.45-9.01,6.29,1.1,10.22,3.32,11.9,4.45,15.16-3.82,38.87-9.96,40.9-10.91l2.08,3.77c-2.26,1.29-33.42,9.18-42.91,11.57-.67.18-1.39,0-1.93-.45-.02-.02-3.55-2.92-10.78-4.18-6.96-1.21-16.58,1.11-20,6.97-.11.19-.97,1.78.09,3.1.28.35,1.32.76,2.06.89.72.13,1.33.61,1.61,1.28.29.67.22,1.44-.19,2.05-1.18,1.76-1.68,3.24-1.36,4.08.31.81,1.49,1.12,1.51,1.12.65.16,1.21.62,1.48,1.23.27.62.25,1.32-.08,1.91-.6,1.08-.22,1.85-.21,1.85.07.12.14.24.19.37.63,1.61,6.45,1.86,11.24,1.01.53-.09,1.09.02,1.55.31,10.84,7.03,17.92-2.56,18.22-2.97.42-.58,1.11-.91,1.83-.89,12.13.46,30.23-1.84,30.41-1.86l.55,4.27c-.73.09-17.59,2.24-30.02,1.93-2.53,2.99-7.24,6.41-13.2,6.41Z"/>
      <g>
        <g>
          <path class="st3" d="M367.79,443.75s-14.12,8.05-9.56,23.21c4.56,15.15,21.14,8.57,25.09,6.7,3.96-1.87,12.83-10.79,6.72-21.75-6.11-10.96-22.25-8.15-22.25-8.15Z"/>
          <path class="st0" d="M371.06,478.85c-2.29,0-4.62-.37-6.8-1.33-3.91-1.74-6.64-5.08-8.1-9.93-4.99-16.6,10.4-25.61,10.56-25.7.22-.12.45-.21.7-.25.72-.12,17.73-2.93,24.5,9.23,2.46,4.42,3,9.13,1.56,13.62-1.87,5.84-6.55,9.86-9.25,11.13-1.97.93-7.44,3.24-13.18,3.24ZM368.53,445.82c-2,1.27-11.92,8.29-8.24,20.52,1.1,3.65,2.97,6.02,5.72,7.24,6.11,2.72,14.72-1.08,16.39-1.87,2.08-.98,5.62-4.29,6.99-8.55,1.08-3.38.67-6.81-1.22-10.21-4.8-8.61-17.29-7.43-19.63-7.13Z"/>
        </g>
        <path class="st0" d="M379.58,477.23c-.44,0-.88-.13-1.26-.41-.96-.7-1.18-2.05-.48-3.01,1.07-1.47.95-3.77-.28-5.12-.97-1.07-2.55-1.67-4.22-2.3-1.52-.57-3.1-1.17-4.54-2.2-4.25-3.05-5.39-7.28-3.15-11.61.55-1.06,1.84-1.47,2.9-.92,1.06.55,1.47,1.85.92,2.9-.78,1.51-1.44,3.78,1.84,6.13.97.7,2.22,1.17,3.54,1.67,1.98.75,4.22,1.59,5.89,3.44,2.61,2.87,2.85,7.4.57,10.54-.42.58-1.08.89-1.74.89Z"/>
        <path class="st0" d="M377.38,467.46c-.15,0-.3-.02-.46-.05-1.16-.25-1.9-1.4-1.65-2.56.3-1.39,1.15-2.37,1.83-3.15.17-.2.34-.39.5-.59.33-.43,1.07-1.55.71-2.69-.45-1.42-2.08-1.88-3.33-1.49-.76.24-1.51,1.13-1.87,2.22-.36,1.1-.28,2.21.21,2.89.7.96.49,2.31-.48,3.01-.96.7-2.31.48-3.01-.48-1.32-1.81-1.62-4.34-.81-6.77.81-2.46,2.56-4.32,4.68-4.98,3.68-1.15,7.59.78,8.71,4.29.69,2.17.18,4.59-1.41,6.64-.2.26-.42.52-.64.77-.39.46-.8.93-.87,1.24-.22,1.01-1.11,1.7-2.1,1.7Z"/>
      </g>
    </g>
    <g>
      <path class="st8" d="M463.38,823.43l-1.59-.13.98-12.14-1.95,1.31.16-1.93,1.96-1.41,1.59.13-1.15,14.17Z"/>
      <path class="st8" d="M474.35,824.18l-7.49-.48.09-1.48,4.88-5.62c.94-1.08,1.58-2.01,1.64-3.07.09-1.48-.87-2.28-1.93-2.35-1.15-.07-2.1.63-2.23,2.09l-1.57-.1c.15-2.34,1.91-3.7,3.91-3.57,2.04.13,3.57,1.69,3.42,4.12-.11,1.69-1.31,2.97-2.19,4.01l-3.82,4.51,5.4.34-.1,1.6Z"/>
      <path class="st8" d="M483.4,825c-.63-.51-1.21-1.12-1.76-1.83-.55-.71-.99-1.49-1.32-2.35-.42.83-.95,1.6-1.58,2.32-.63.71-1.29,1.29-1.97,1.75l-1-1.36c1.14-.73,2.05-1.63,2.72-2.72.67-1.09,1.03-2.31,1.09-3.68l.28-6.77,1.81.07-.28,6.77c-.06,1.4.18,2.63.71,3.69s1.34,2.01,2.42,2.83l-1.11,1.28ZM487.14,810.53l1.78.07-.61,14.94-1.79-.07.61-14.94Z"/>
      <path class="st8" d="M495.01,818.9l-1.47-.02.09-7.4,6.49.08-.02,1.77-4.95-.06-.05,3.73c.42-.51,1.07-.91,2.05-.9,2.37.03,3.42,2.06,3.39,5.25-.03,2.8-1.35,4.58-3.8,4.55-1.98-.02-3.43-1.59-3.54-3.55l1.56.02c.23,1.2.96,1.91,2,1.92,1.32.02,2.16-.82,2.19-2.96.03-2.22-.59-3.45-2.11-3.47-.87-.01-1.47.48-1.83,1.03Z"/>
      <path class="st8" d="M506.59,825.92c-2.84.02-4.65-1.86-4.69-6.45v-1.57c-.05-4.6,1.74-6.51,4.57-6.53,2.84-.02,4.65,1.86,4.69,6.45v1.57c.05,4.6-1.74,6.51-4.57,6.53ZM503.5,819.46c.03,3.52,1.11,4.88,3.08,4.86,1.97-.02,3.03-1.39,3-4.91v-1.57c-.04-3.52-1.13-4.88-3.09-4.86-1.97.02-3.03,1.39-3,4.91v1.57Z"/>
      <path class="st8" d="M512.84,820.09l-.06-1.63,13.14-.48.06,1.63-5.68.21.08,2.34-1.8.07-.09-2.34-5.66.21ZM515.34,810.83l.06,1.53,7.53-.27-.06-1.53,1.79-.06.23,6.35-11.11.41-.23-6.35,1.8-.07ZM515.62,821.03l.11,2.9,9.63-.35.06,1.63-11.43.42-.17-4.53,1.8-.07ZM515.51,815.58l7.53-.27-.06-1.63-7.53.28.06,1.63Z"/>
      <path class="st8" d="M530.96,817.34l-.58-7.17,1.78-.14.17,2.09,3.69-.3-.17-2.09,1.78-.14.58,7.17-7.25.59ZM541.32,820.08l-.06-.75-9.49.77-.13-1.59,11.27-.91.32,3.94-9.47.77.06.79,9.69-.79.13,1.59-11.49.93-.32-3.97,9.49-.77ZM532.46,813.74l.15,1.86,3.69-.3-.15-1.86-3.69.3ZM540.43,809.15l1.78-.14.64,7.86-1.78.14-.64-7.86Z"/>
      <path class="st8" d="M545.73,823.39l-.99-8.08,5.42-.66-.57-4.63-5.45.67-.2-1.63,7.25-.89.97,7.89-5.43.66.59,4.85,6.21-.76.2,1.6-7.99.98ZM557.84,814.71l-2.04.25.9,7.38-1.77.22-1.81-14.84,1.77-.22.71,5.83,2.04-.25.2,1.63Z"/>
      <path class="st8" d="M558.49,807.21l11.04-1.9.28,1.6-9.27,1.59,1.01,5.88,9.35-1.61.27,1.59-11.13,1.91-1.56-9.08ZM572.62,817.76l.27,1.61-12.97,2.23-.27-1.6,12.97-2.23Z"/>
      <path class="st8" d="M581.6,817.4c-.74-.33-1.47-.76-2.18-1.3s-1.35-1.18-1.89-1.91c-.19.92-.49,1.8-.91,2.65-.42.85-.9,1.59-1.44,2.21l-1.33-1.05c.91-1,1.54-2.12,1.9-3.34.36-1.22.38-2.5.08-3.83l-1.13-4.92-2.8.65-.37-1.6,7.37-1.7.37,1.6-2.8.65,1.13,4.92c.31,1.36.87,2.49,1.66,3.37s1.82,1.58,3.08,2.09l-.74,1.53ZM581.38,802.45l1.74-.4,3.36,14.57-1.74.4-3.36-14.57Z"/>
      <path class="st8" d="M584.93,801.81l7.29-2.22.47,1.56-5.57,1.69,3.26,10.72,5.85-1.78.47,1.54-7.57,2.3-4.21-13.82ZM594.54,798.67l1.71-.52,4.35,14.3-1.71.52-4.35-14.3Z"/>
      <path class="st8" d="M601.62,800.72c-.26-.61-.4-1.2-.41-1.75s.07-1.06.25-1.52c.18-.46.45-.85.8-1.2.35-.34.77-.61,1.24-.81.47-.2.95-.31,1.45-.32.49-.02.97.07,1.42.25.46.19.88.47,1.27.86s.71.9.98,1.52c.26.62.4,1.21.41,1.76.01.55-.07,1.05-.26,1.5-.19.45-.46.85-.81,1.19-.36.34-.77.61-1.24.81-.47.2-.96.31-1.45.32-.49.02-.96-.07-1.42-.25-.45-.18-.87-.47-1.26-.86-.39-.39-.71-.89-.97-1.51ZM606.97,798.44c-.33-.77-.75-1.27-1.26-1.49-.51-.22-1.04-.22-1.58.01-.26.11-.48.26-.67.45-.19.19-.32.41-.41.67-.09.25-.12.54-.1.86.02.32.11.68.28,1.06.17.39.36.7.58.95.22.25.45.42.69.54.24.11.5.17.76.16.26,0,.53-.07.78-.18.54-.23.92-.6,1.11-1.11.2-.51.13-1.15-.19-1.92ZM606.33,804.58l1.4,3.29,8.15-3.46.64,1.5-9.81,4.16-2.04-4.79,1.66-.7ZM614.75,797.04l-1.9.81,2.04,4.79-1.64.7-4.35-10.24,1.64-.7,1.67,3.95,1.9-.81.64,1.5Z"/>
      <path class="st8" d="M614.71,795.04c-.33-.57-.53-1.12-.6-1.66-.07-.54-.05-1.04.08-1.51.13-.47.35-.89.66-1.27s.69-.69,1.14-.95c.44-.25.91-.42,1.39-.5.48-.08.96-.06,1.43.06.47.12.92.35,1.35.69.43.34.81.8,1.14,1.38.33.58.53,1.14.6,1.67.07.54.04,1.04-.09,1.5-.13.47-.36.89-.67,1.27-.31.38-.69.69-1.14.95-.45.25-.91.42-1.39.5-.48.08-.96.06-1.43-.07-.47-.12-.91-.35-1.34-.69-.42-.33-.8-.79-1.13-1.37ZM619.77,792.16c-.41-.72-.88-1.15-1.4-1.29s-1.04-.07-1.55.23c-.25.14-.45.31-.62.52-.17.21-.28.44-.34.7-.06.26-.06.54,0,.86.06.31.18.64.38.99.21.36.43.65.68.86.24.21.49.35.74.43s.51.1.77.05c.26-.04.51-.13.75-.27.25-.14.46-.32.64-.52.17-.2.29-.43.35-.69.06-.26.06-.54,0-.85-.06-.31-.19-.65-.4-1ZM623.35,802.61c-.89.51-1.67.68-2.32.52-.66-.16-1.23-.67-1.71-1.52-.49-.85-.63-1.59-.43-2.23.2-.63.75-1.21,1.64-1.71l4.35-2.48c.89-.51,1.66-.69,2.31-.54s1.21.65,1.7,1.5c.49.85.63,1.6.44,2.25-.19.65-.73,1.23-1.62,1.74l-4.35,2.48ZM620.84,800.74c.19.34.44.55.74.65.3.1.71,0,1.23-.3l3.84-2.2c.51-.29.81-.59.88-.9.07-.31.01-.63-.18-.97-.19-.34-.44-.54-.73-.62-.29-.08-.7.03-1.21.32l-3.84,2.2c-.52.3-.82.59-.9.89-.08.29-.02.61.17.94ZM626.12,787.74l-1.79,1.02.87,1.53,1.79-1.02.81,1.41-1.79,1.02.86,1.5-1.55.89-4.23-7.41,1.55-.89.89,1.55,1.79-1.02.81,1.41Z"/>
    </g>
  </g>
</svg>