<?xml version="1.0" encoding="UTF-8"?>
<svg id="_레이어_1" data-name="레이어_1" xmlns="http://www.w3.org/2000/svg" version="1.1" viewBox="0 0 701 438.84">
  <!-- Generator: Adobe Illustrator 29.6.0, SVG Export Plug-In . SVG Version: 2.1.1 Build 207)  -->
  <defs>
    <style>
      .st0 {
        fill: #7f7f7f;
        stroke: #7f7f7f;
        stroke-width: .25px;
      }

      .st0, .st1 {
        stroke-miterlimit: 10;
      }

      .st1 {
        fill: #ffb6cc;
        stroke: #ffb6cc;
        stroke-width: .75px;
      }
    </style>
  </defs>
  <g>
    <path class="st0" d="M219.25,219.1c.58-.7,1.12-1.53,1.62-2.5.5-.97.76-1.99.76-3.04,0-.67-.09-1.32-.27-1.94-.18-.62-.46-1.18-.85-1.66-.38-.48-.87-.86-1.46-1.15-.59-.29-1.29-.43-2.11-.43-.77,0-1.43.15-2,.45-.56.3-1.04.7-1.44,1.19-.4.49-.71,1.05-.94,1.67-.23.62-.39,1.26-.49,1.91l-1.26-.25c.1-.82.3-1.6.61-2.34.31-.74.72-1.4,1.22-1.98.5-.58,1.12-1.03,1.84-1.37.72-.34,1.54-.5,2.45-.5,1.03,0,1.93.17,2.68.52.76.35,1.38.82,1.87,1.42.49.6.86,1.28,1.1,2.05.24.77.36,1.57.36,2.41,0,.65-.09,1.29-.27,1.93-.18.64-.41,1.24-.68,1.8-.28.56-.58,1.09-.92,1.58-.34.49-.66.92-.97,1.28l-7.92,9.14h11.77v1.26h-13.64v-1.01l8.93-10.44Z"/>
    <path class="st0" d="M226.77,219.07c0-1.82.16-3.47.49-4.95.32-1.48.8-2.74,1.42-3.78.62-1.04,1.39-1.84,2.29-2.39.9-.55,1.94-.83,3.11-.83s2.18.28,3.1.83c.91.55,1.68,1.35,2.3,2.39s1.1,2.3,1.42,3.78c.32,1.48.49,3.13.49,4.95s-.16,3.47-.49,4.95c-.32,1.48-.8,2.73-1.42,3.76-.62,1.03-1.39,1.83-2.3,2.39-.91.56-1.94.85-3.1.85s-2.21-.28-3.11-.85c-.9-.56-1.66-1.36-2.29-2.39-.62-1.03-1.1-2.29-1.42-3.76-.32-1.48-.49-3.13-.49-4.95ZM240.06,219.07c0-1.61-.13-3.07-.4-4.39-.26-1.32-.65-2.45-1.15-3.38-.5-.94-1.13-1.66-1.87-2.16-.74-.5-1.6-.76-2.56-.76s-1.85.25-2.59.76c-.74.5-1.37,1.22-1.87,2.16s-.88,2.06-1.13,3.38c-.25,1.32-.38,2.78-.38,4.39s.13,3.07.38,4.37.63,2.43,1.13,3.37c.5.94,1.13,1.66,1.87,2.18.74.52,1.61.77,2.59.77s1.81-.26,2.56-.77c.74-.52,1.37-1.24,1.87-2.18.5-.94.89-2.06,1.15-3.37.26-1.31.4-2.77.4-4.37Z"/>
    <path class="st0" d="M253.09,219.1c.58-.7,1.12-1.53,1.62-2.5.5-.97.76-1.99.76-3.04,0-.67-.09-1.32-.27-1.94-.18-.62-.46-1.18-.85-1.66-.38-.48-.87-.86-1.46-1.15-.59-.29-1.29-.43-2.11-.43-.77,0-1.43.15-2,.45-.56.3-1.04.7-1.44,1.19-.4.49-.71,1.05-.94,1.67-.23.62-.39,1.26-.49,1.91l-1.26-.25c.1-.82.3-1.6.61-2.34.31-.74.72-1.4,1.22-1.98.5-.58,1.12-1.03,1.84-1.37.72-.34,1.54-.5,2.45-.5,1.03,0,1.93.17,2.68.52.76.35,1.38.82,1.87,1.42.49.6.86,1.28,1.1,2.05.24.77.36,1.57.36,2.41,0,.65-.09,1.29-.27,1.93-.18.64-.41,1.24-.68,1.8-.28.56-.58,1.09-.92,1.58-.34.49-.66.92-.97,1.28l-7.92,9.14h11.77v1.26h-13.64v-1.01l8.93-10.44Z"/>
    <path class="st0" d="M261.87,207.55h11.74v1.22h-10.4v8.96c1.3-1.22,2.93-1.84,4.9-1.84.96,0,1.84.18,2.65.54.8.36,1.49.86,2.07,1.51s1.03,1.43,1.35,2.34c.32.91.49,1.92.49,3.02s-.14,2.09-.43,3.04c-.29.95-.71,1.76-1.28,2.45-.56.68-1.26,1.22-2.09,1.62s-1.78.59-2.86.59-1.99-.18-2.79-.54c-.8-.36-1.49-.82-2.05-1.37-.56-.55-1.01-1.18-1.35-1.87-.34-.7-.56-1.38-.68-2.05l1.33-.29c.1.62.29,1.23.58,1.82.29.59.66,1.1,1.12,1.55.46.44,1,.8,1.64,1.08.64.28,1.37.41,2.21.41,1.58,0,2.86-.56,3.83-1.69.97-1.13,1.46-2.71,1.46-4.75,0-.86-.12-1.67-.36-2.43-.24-.76-.58-1.41-1.03-1.96-.44-.55-.99-.98-1.64-1.3-.65-.31-1.37-.47-2.16-.47-1.08,0-2.05.25-2.9.74-.85.49-1.63,1.16-2.32,2l-1.01-.58v-11.77Z"/>
    <path class="st0" d="M288.84,219.39h-10.37v-12.35h1.37v11.12h9v1.22ZM295.21,234.33l-13.25.68v-10.15h1.37v8.82l11.88-.58v1.22ZM286.17,213.88l6.44-.43v-3.46h-6.44v-1.26h6.44v-4.54h1.33v22.5h-1.33v-11.95l-6.44.4v-1.26Z"/>
    <path class="st0" d="M314.94,207.58h1.12v22.97h-1.33v-20.99l-5.22,4.68-.83-1.04,6.26-5.62Z"/>
    <path class="st0" d="M323.61,219.07c0-1.82.16-3.47.49-4.95.32-1.48.8-2.74,1.42-3.78.62-1.04,1.39-1.84,2.29-2.39.9-.55,1.94-.83,3.11-.83s2.18.28,3.1.83c.91.55,1.68,1.35,2.3,2.39s1.1,2.3,1.42,3.78c.32,1.48.49,3.13.49,4.95s-.16,3.47-.49,4.95c-.32,1.48-.8,2.73-1.42,3.76-.62,1.03-1.39,1.83-2.3,2.39-.91.56-1.94.85-3.1.85s-2.21-.28-3.11-.85c-.9-.56-1.66-1.36-2.29-2.39-.62-1.03-1.1-2.29-1.42-3.76-.32-1.48-.49-3.13-.49-4.95ZM336.89,219.07c0-1.61-.13-3.07-.4-4.39-.26-1.32-.65-2.45-1.15-3.38-.5-.94-1.13-1.66-1.87-2.16-.74-.5-1.6-.76-2.56-.76s-1.85.25-2.59.76c-.74.5-1.37,1.22-1.87,2.16s-.88,2.06-1.13,3.38c-.25,1.32-.38,2.78-.38,4.39s.13,3.07.38,4.37.63,2.43,1.13,3.37c.5.94,1.13,1.66,1.87,2.18.74.52,1.61.77,2.59.77s1.81-.26,2.56-.77c.74-.52,1.37-1.24,1.87-2.18.5-.94.89-2.06,1.15-3.37.26-1.31.4-2.77.4-4.37Z"/>
    <path class="st0" d="M350.61,220.25h4.97v-2.12h-7.81v5h-1.37v-5h-5.94v-1.26h15.12v-12.67h1.37v19.37h-1.37v-2.05h-4.97v-1.26ZM341.9,210.39c0-1.25.43-2.29,1.3-3.13.86-.84,2.1-1.26,3.71-1.26s2.84.42,3.69,1.26c.85.84,1.28,1.88,1.28,3.13s-.43,2.33-1.28,3.17c-.85.84-2.08,1.26-3.69,1.26s-2.84-.42-3.71-1.26c-.86-.84-1.3-1.9-1.3-3.17ZM343.27,210.39c0,.86.31,1.61.94,2.23.62.62,1.52.94,2.7.94s2.08-.31,2.7-.94c.62-.62.94-1.37.94-2.23s-.31-1.57-.94-2.2c-.62-.62-1.52-.94-2.7-.94s-2.08.31-2.7.94-.94,1.36-.94,2.2ZM344.27,225.22h12.53v5.33h-11.16v3.42l12.28-.65v1.26l-13.64.72v-6.01h11.16v-2.81h-11.16v-1.26Z"/>
    <path class="st0" d="M379.09,219.1c.58-.7,1.12-1.53,1.62-2.5.5-.97.76-1.99.76-3.04,0-.67-.09-1.32-.27-1.94-.18-.62-.46-1.18-.85-1.66-.38-.48-.87-.86-1.46-1.15-.59-.29-1.29-.43-2.11-.43-.77,0-1.43.15-2,.45-.56.3-1.04.7-1.44,1.19-.4.49-.71,1.05-.94,1.67-.23.62-.39,1.26-.49,1.91l-1.26-.25c.1-.82.3-1.6.61-2.34.31-.74.72-1.4,1.22-1.98.5-.58,1.12-1.03,1.84-1.37.72-.34,1.54-.5,2.45-.5,1.03,0,1.93.17,2.68.52.76.35,1.38.82,1.87,1.42.49.6.86,1.28,1.1,2.05.24.77.36,1.57.36,2.41,0,.65-.09,1.29-.27,1.93-.18.64-.41,1.24-.68,1.8-.28.56-.58,1.09-.92,1.58-.34.49-.66.92-.97,1.28l-7.92,9.14h11.77v1.26h-13.64v-1.01l8.93-10.44Z"/>
    <path class="st0" d="M387.22,223.78c0-.74.09-1.45.27-2.11.18-.66.43-1.27.74-1.82l6.77-12.6,1.22.58-5.08,9.43c.94-.41,1.98-.61,3.13-.61s2.09.19,2.97.56c.88.37,1.62.88,2.23,1.53s1.08,1.4,1.4,2.27c.32.86.49,1.79.49,2.77s-.16,1.91-.49,2.79c-.32.88-.79,1.64-1.4,2.3-.61.66-1.36,1.18-2.23,1.57-.88.38-1.87.58-2.97.58s-2.09-.19-2.97-.58c-.88-.38-1.61-.91-2.21-1.57-.6-.66-1.06-1.43-1.39-2.3-.32-.88-.49-1.81-.49-2.79ZM400.04,223.78c0-.77-.12-1.51-.36-2.21-.24-.71-.61-1.33-1.1-1.87-.49-.54-1.1-.97-1.82-1.3-.72-.32-1.55-.49-2.48-.49s-1.76.16-2.48.49c-.72.32-1.32.76-1.8,1.3-.48.54-.84,1.16-1.08,1.87-.24.71-.36,1.45-.36,2.21s.12,1.55.36,2.27c.24.72.6,1.36,1.08,1.91.48.55,1.08.99,1.8,1.31.72.32,1.55.49,2.48.49s1.76-.16,2.48-.49c.72-.32,1.33-.76,1.82-1.31.49-.55.86-1.19,1.1-1.91.24-.72.36-1.48.36-2.27Z"/>
    <path class="st0" d="M403.75,212.51c0-.82.14-1.55.43-2.21.29-.66.68-1.22,1.19-1.69.5-.47,1.09-.83,1.75-1.08s1.36-.38,2.11-.38,1.45.13,2.11.38,1.24.61,1.75,1.08c.5.47.9,1.03,1.19,1.69.29.66.43,1.4.43,2.21s-.14,1.52-.43,2.18c-.29.66-.68,1.22-1.19,1.69-.5.47-1.09.83-1.75,1.08s-1.36.38-2.11.38-1.45-.13-2.11-.38-1.24-.61-1.75-1.08c-.5-.47-.9-1.03-1.19-1.69-.29-.66-.43-1.39-.43-2.18ZM405.11,212.51c0,.6.11,1.15.32,1.66s.51.94.88,1.3.8.64,1.3.83c.49.19,1.03.29,1.6.29s1.11-.1,1.6-.29c.49-.19.93-.47,1.31-.83.38-.36.68-.79.9-1.3.22-.5.32-1.06.32-1.66s-.11-1.15-.32-1.66c-.22-.5-.52-.94-.9-1.3-.38-.36-.82-.64-1.31-.85-.49-.2-1.03-.31-1.6-.31s-1.11.1-1.6.31c-.49.2-.92.49-1.3.85-.37.36-.67.79-.88,1.3s-.32,1.06-.32,1.66ZM407.99,223.06h11.81v6.41h-10.44v4.5l11.56-.61v1.26l-12.92.68v-7.09h10.44v-3.89h-10.44v-1.26ZM418.61,204.2h1.33v16.85h-1.33v-16.85Z"/>
    <path class="st0" d="M432.9,212.51c0-.82.14-1.55.43-2.21.29-.66.68-1.22,1.19-1.69.5-.47,1.09-.83,1.75-1.08s1.36-.38,2.11-.38,1.45.13,2.11.38,1.24.61,1.75,1.08c.5.47.9,1.03,1.19,1.69.29.66.43,1.4.43,2.21s-.14,1.52-.43,2.18c-.29.66-.68,1.22-1.19,1.69-.5.47-1.09.83-1.75,1.08s-1.36.38-2.11.38-1.45-.13-2.11-.38-1.24-.61-1.75-1.08c-.5-.47-.9-1.03-1.19-1.69-.29-.66-.43-1.39-.43-2.18ZM434.27,212.51c0,.6.11,1.15.32,1.66s.51.94.88,1.3.8.64,1.3.83c.49.19,1.03.29,1.6.29s1.11-.1,1.6-.29c.49-.19.93-.47,1.31-.83.38-.36.68-.79.9-1.3.22-.5.32-1.06.32-1.66s-.11-1.15-.32-1.66c-.22-.5-.52-.94-.9-1.3-.38-.36-.82-.64-1.31-.85-.49-.2-1.03-.31-1.6-.31s-1.11.1-1.6.31c-.49.2-.92.49-1.3.85-.37.36-.67.79-.88,1.3s-.32,1.06-.32,1.66ZM437.15,223.06h11.81v6.41h-10.44v4.5l11.56-.61v1.26l-12.92.68v-7.09h10.44v-3.89h-10.44v-1.26ZM447.77,204.2h1.33v16.85h-1.33v-16.85Z"/>
    <path class="st0" d="M455.37,213.99c0-.94.16-1.8.49-2.59.32-.79.77-1.48,1.33-2.05.56-.58,1.24-1.03,2.02-1.35.78-.32,1.64-.49,2.57-.49s1.79.16,2.57.49c.78.32,1.45.77,2.02,1.35.56.58,1,1.26,1.31,2.05.31.79.47,1.66.47,2.59,0,1.08-.2,2.05-.59,2.92-.4.86-.94,1.58-1.64,2.16v9.25l4.75-.29v1.3l-17.78.9v-1.26l4.79-.25v-9.58c-.72-.6-1.28-1.34-1.69-2.21-.41-.88-.61-1.85-.61-2.93ZM456.74,213.99c0,.79.13,1.51.38,2.14.25.64.61,1.19,1.06,1.66.46.47.99.83,1.6,1.08.61.25,1.28.38,2,.38s1.38-.13,1.98-.38c.6-.25,1.13-.61,1.58-1.08.46-.47.81-1.02,1.06-1.66.25-.64.38-1.35.38-2.14s-.13-1.48-.38-2.12-.61-1.2-1.06-1.66c-.46-.46-.98-.81-1.58-1.06-.6-.25-1.26-.38-1.98-.38s-1.39.13-2,.38-1.15.61-1.6,1.06-.81,1.01-1.06,1.66-.38,1.36-.38,2.12ZM461.78,220.51c-1.03,0-1.94-.18-2.74-.54v8.71l5.51-.32v-8.42c-.89.38-1.81.58-2.77.58Z"/>
    <path class="st0" d="M473.23,212.51c0-.82.14-1.55.43-2.21.29-.66.68-1.22,1.19-1.69.5-.47,1.09-.83,1.75-1.08s1.36-.38,2.11-.38,1.45.13,2.11.38,1.24.61,1.75,1.08c.5.47.9,1.03,1.19,1.69.29.66.43,1.4.43,2.21s-.14,1.52-.43,2.18c-.29.66-.68,1.22-1.19,1.69-.5.47-1.09.83-1.75,1.08s-1.36.38-2.11.38-1.45-.13-2.11-.38-1.24-.61-1.75-1.08c-.5-.47-.9-1.03-1.19-1.69-.29-.66-.43-1.39-.43-2.18ZM474.59,212.51c0,.6.11,1.15.32,1.66s.51.94.88,1.3.8.64,1.3.83c.49.19,1.03.29,1.6.29s1.11-.1,1.6-.29c.49-.19.93-.47,1.31-.83.38-.36.68-.79.9-1.3.22-.5.32-1.06.32-1.66s-.11-1.15-.32-1.66c-.22-.5-.52-.94-.9-1.3-.38-.36-.82-.64-1.31-.85-.49-.2-1.03-.31-1.6-.31s-1.11.1-1.6.31c-.49.2-.92.49-1.3.85-.37.36-.67.79-.88,1.3s-.32,1.06-.32,1.66ZM477.47,223.06h11.81v6.41h-10.44v4.5l11.56-.61v1.26l-12.92.68v-7.09h10.44v-3.89h-10.44v-1.26ZM488.09,204.2h1.33v16.85h-1.33v-16.85Z"/>
    <path class="st0" d="M270.87,273.99c0-.94.16-1.8.49-2.59.32-.79.77-1.48,1.33-2.05.56-.58,1.24-1.03,2.02-1.35.78-.32,1.64-.49,2.57-.49s1.79.16,2.57.49c.78.32,1.45.77,2.02,1.35.56.58,1,1.26,1.31,2.05.31.79.47,1.66.47,2.59s-.14,1.71-.41,2.47c-.28.76-.67,1.42-1.17,1.98-.5.56-1.1,1.03-1.8,1.39-.7.36-1.46.58-2.3.65v8.39l8.21-.47v1.3l-17.78.9v-1.26l8.21-.43v-8.42c-.84-.07-1.61-.29-2.3-.65-.7-.36-1.3-.82-1.8-1.39s-.9-1.22-1.19-1.98c-.29-.76-.43-1.58-.43-2.47ZM272.24,273.99c0,.79.13,1.51.38,2.14.25.64.61,1.19,1.06,1.66.46.47.99.83,1.6,1.08.61.25,1.28.38,2,.38s1.38-.13,1.98-.38c.6-.25,1.13-.61,1.58-1.08.46-.47.81-1.02,1.06-1.66.25-.64.38-1.35.38-2.14s-.13-1.48-.38-2.12-.61-1.2-1.06-1.66c-.46-.46-.98-.81-1.58-1.06-.6-.25-1.26-.38-1.98-.38s-1.39.13-2,.38-1.15.61-1.6,1.06-.81,1.01-1.06,1.66-.38,1.36-.38,2.12Z"/>
    <path class="st0" d="M306.33,284.14l-8.24.43v9h-1.37v-8.93l-8.17.47v-1.3l17.78-.9v1.22ZM289.88,269.6h15.12v1.26h-15.12v-1.26ZM292.54,276.55c0-.67.13-1.28.38-1.82s.6-1,1.04-1.39c.44-.38.97-.68,1.57-.88.6-.2,1.24-.31,1.91-.31,1.39,0,2.56.39,3.49,1.17.94.78,1.4,1.85,1.4,3.22s-.47,2.44-1.4,3.22c-.94.78-2.1,1.17-3.49,1.17-.67,0-1.31-.1-1.91-.31-.6-.2-1.12-.5-1.57-.88-.44-.38-.79-.85-1.04-1.39s-.38-1.15-.38-1.82ZM293.77,265.53l7.34,1.66v1.3l-7.34-1.66v-1.3ZM293.91,276.55c0,.89.31,1.63.94,2.23.62.6,1.49.9,2.59.9s2-.3,2.63-.9c.62-.6.94-1.34.94-2.23s-.31-1.63-.94-2.23c-.62-.6-1.5-.9-2.63-.9s-1.97.3-2.59.9c-.62.6-.94,1.34-.94,2.23Z"/>
    <path class="st0" d="M325.92,267.58h1.12v22.97h-1.33v-20.99l-5.22,4.68-.83-1.04,6.26-5.62Z"/>
    <path class="st0" d="M343.99,279.1c.58-.7,1.12-1.53,1.62-2.5.5-.97.76-1.99.76-3.04,0-.67-.09-1.32-.27-1.94-.18-.62-.46-1.18-.85-1.66-.38-.48-.87-.86-1.46-1.15-.59-.29-1.29-.43-2.11-.43-.77,0-1.43.15-2,.45-.56.3-1.04.7-1.44,1.19-.4.49-.71,1.05-.94,1.67-.23.62-.39,1.26-.49,1.91l-1.26-.25c.1-.82.3-1.6.61-2.34.31-.74.72-1.4,1.22-1.98.5-.58,1.12-1.03,1.84-1.37.72-.34,1.54-.5,2.45-.5,1.03,0,1.93.17,2.68.52.76.35,1.38.82,1.87,1.42.49.6.86,1.28,1.1,2.05.24.77.36,1.57.36,2.41,0,.65-.09,1.29-.27,1.93-.18.64-.41,1.24-.68,1.8-.28.56-.58,1.09-.92,1.58-.34.49-.66.92-.97,1.28l-7.92,9.14h11.77v1.26h-13.64v-1.01l8.93-10.44Z"/>
    <path class="st0" d="M363.21,283.49c-.72-.36-1.4-.8-2.03-1.31-.64-.52-1.21-1.08-1.71-1.69-.5-.61-.94-1.25-1.3-1.93s-.65-1.34-.86-2.02c-.41,1.34-1.13,2.63-2.16,3.85-1.03,1.22-2.28,2.2-3.74,2.92l-.65-1.19c.79-.38,1.54-.91,2.25-1.57.71-.66,1.33-1.39,1.87-2.18s.97-1.63,1.28-2.52c.31-.89.47-1.76.47-2.63v-4.36h1.37v4.36c0,.86.16,1.75.47,2.65.31.9.74,1.76,1.28,2.59.54.83,1.16,1.58,1.87,2.25.71.67,1.46,1.2,2.25,1.58l-.65,1.19ZM366.59,265.64h1.33v27.94h-1.33v-27.94Z"/>
    <path class="st0" d="M381.93,267.55h11.74v1.22h-10.4v8.96c1.3-1.22,2.93-1.84,4.9-1.84.96,0,1.84.18,2.65.54.8.36,1.49.86,2.07,1.51s1.03,1.43,1.35,2.34c.32.91.49,1.92.49,3.02s-.14,2.09-.43,3.04c-.29.95-.71,1.76-1.28,2.45-.56.68-1.26,1.22-2.09,1.62s-1.78.59-2.86.59-1.99-.18-2.79-.54c-.8-.36-1.49-.82-2.05-1.37-.56-.55-1.01-1.18-1.35-1.87-.34-.7-.56-1.38-.68-2.05l1.33-.29c.1.62.29,1.23.58,1.82.29.59.66,1.1,1.12,1.55.46.44,1,.8,1.64,1.08.64.28,1.37.41,2.21.41,1.58,0,2.86-.56,3.83-1.69.97-1.13,1.46-2.71,1.46-4.75,0-.86-.12-1.67-.36-2.43-.24-.76-.58-1.41-1.03-1.96-.44-.55-.99-.98-1.64-1.3-.65-.31-1.37-.47-2.16-.47-1.08,0-2.05.25-2.9.74-.85.49-1.63,1.16-2.32,2l-1.01-.58v-11.77Z"/>
    <path class="st0" d="M397.59,279.07c0-1.82.16-3.47.49-4.95.32-1.48.8-2.74,1.42-3.78.62-1.04,1.39-1.84,2.29-2.39.9-.55,1.94-.83,3.11-.83s2.18.28,3.1.83c.91.55,1.68,1.35,2.3,2.39s1.1,2.3,1.42,3.78c.32,1.48.49,3.13.49,4.95s-.16,3.47-.49,4.95c-.32,1.48-.8,2.73-1.42,3.76-.62,1.03-1.39,1.83-2.3,2.39-.91.56-1.94.85-3.1.85s-2.21-.28-3.11-.85c-.9-.56-1.66-1.36-2.29-2.39-.62-1.03-1.1-2.29-1.42-3.76-.32-1.48-.49-3.13-.49-4.95ZM410.87,279.07c0-1.61-.13-3.07-.4-4.39-.26-1.32-.65-2.45-1.15-3.38-.5-.94-1.13-1.66-1.87-2.16-.74-.5-1.6-.76-2.56-.76s-1.85.25-2.59.76c-.74.5-1.37,1.22-1.87,2.16s-.88,2.06-1.13,3.38c-.25,1.32-.38,2.78-.38,4.39s.13,3.07.38,4.37.63,2.43,1.13,3.37c.5.94,1.13,1.66,1.87,2.18.74.52,1.61.77,2.59.77s1.81-.26,2.56-.77c.74-.52,1.37-1.24,1.87-2.18.5-.94.89-2.06,1.15-3.37.26-1.31.4-2.77.4-4.37Z"/>
    <path class="st0" d="M423.11,288.86v-6.05h-8.57v-1.26h17.78v1.26h-7.85v6.05h-1.37ZM430.46,294.29l-12.64.72v-8.68h1.37v7.34l11.27-.61v1.22ZM417.86,266.61h1.37v4.28h8.46v-4.28h1.37v11.16h-11.2v-11.16ZM419.23,276.51h8.46v-4.36h-8.46v4.36Z"/>
  </g>
  <g>
    <g>
      <path class="st1" d="M282.9,122.31c0-2.75.62-4.98,1.87-6.68,1.25-1.7,3.01-2.56,5.28-2.56,1.14,0,2.15.23,3.05.69.9.46,1.65,1.09,2.25,1.9.6.81,1.07,1.78,1.4,2.92.33,1.14.49,2.38.49,3.74,0,2.75-.62,4.97-1.87,6.66-1.25,1.69-3.03,2.53-5.34,2.53s-4.03-.84-5.28-2.53c-1.25-1.69-1.87-3.91-1.87-6.66ZM285,122.31c0,2.2.42,3.96,1.26,5.28.84,1.32,2.11,1.98,3.79,1.98s2.96-.66,3.82-1.98c.86-1.32,1.29-3.08,1.29-5.28s-.43-3.97-1.29-5.31c-.86-1.34-2.14-2.01-3.82-2.01s-2.95.67-3.79,2.01c-.84,1.34-1.26,3.11-1.26,5.31ZM297.53,127.32l3.8-.33v-9.79h-3.8v-1.98h3.8v-7.87h2.03v40.21h-2.03v-18.65l-3.8.33v-1.93ZM307.82,106.31h2.09v42.68h-2.09v-42.68Z"/>
      <path class="st1" d="M332.46,127.54c-2.24-.95-4.14-2.15-5.72-3.6-1.58-1.45-2.68-3.05-3.3-4.81-.62,1.76-1.72,3.32-3.3,4.68-1.58,1.36-3.48,2.51-5.72,3.46l-.99-1.81c1.21-.55,2.36-1.2,3.44-1.95,1.08-.75,2.04-1.6,2.86-2.56.83-.95,1.48-2.01,1.95-3.16.48-1.15.71-2.39.71-3.71v-5.55h2.09v5.55c0,1.32.24,2.57.71,3.74.48,1.17,1.13,2.25,1.95,3.25.82.99,1.78,1.88,2.86,2.67,1.08.79,2.23,1.46,3.44,2.01l-.99,1.81ZM320.41,135.84l19.08-1.38v16.94h-2.09v-14.85l-17,1.21v-1.92ZM337.63,104.11h2.03v27.72h-2.03v-27.72Z"/>
      <path class="st1" d="M358.91,117.36c0-1.32.21-2.51.63-3.58.42-1.06,1-1.98,1.73-2.75.73-.77,1.59-1.36,2.56-1.76.97-.4,2.03-.6,3.16-.6s2.2.2,3.19.6c.99.4,1.85.99,2.58,1.76.73.77,1.31,1.69,1.73,2.75.42,1.06.63,2.25.63,3.58s-.21,2.51-.63,3.57c-.42,1.06-1,1.98-1.73,2.75-.73.77-1.59,1.36-2.58,1.76-.99.4-2.05.6-3.19.6s-2.19-.2-3.16-.6c-.97-.4-1.82-.99-2.56-1.76-.73-.77-1.31-1.69-1.73-2.75-.42-1.06-.63-2.25-.63-3.57ZM361,117.36c0,.95.15,1.84.44,2.67.29.82.71,1.54,1.24,2.15.53.6,1.16,1.08,1.9,1.43.73.35,1.54.52,2.42.52s1.69-.17,2.42-.52c.73-.35,1.38-.82,1.93-1.43.55-.6.97-1.32,1.26-2.15.29-.83.44-1.71.44-2.67s-.15-1.9-.44-2.72c-.29-.83-.71-1.54-1.26-2.15-.55-.6-1.19-1.07-1.93-1.4-.73-.33-1.54-.5-2.42-.5s-1.69.17-2.42.5c-.73.33-1.37.8-1.9,1.4-.53.6-.94,1.32-1.24,2.15-.29.83-.44,1.73-.44,2.72ZM383.72,150.14l-19.69,1.04v-15.51h2.09v13.48l17.6-.88v1.87ZM379.7,104.11h2.09v15.18l5.45-.38v1.92l-5.45.38v17.22h-2.09v-34.32Z"/>
      <path class="st1" d="M402.53,132.16l-12.81.99v-21.4h2.09v19.31l10.73-.77v1.87ZM406.38,107.35h2.04v14.02l5.55-.49v-14.58h2.09v42.68h-2.09v-26.12l-5.55.44v24.25h-2.04v-40.21Z"/>
    </g>
    <g>
      <path class="st1" d="M327.32,79.05v-15.31h4.22c2.26,0,3.99.66,5.2,1.97,1.21,1.31,1.81,3.21,1.81,5.69s-.6,4.38-1.81,5.69c-1.21,1.31-2.94,1.97-5.2,1.97h-4.22ZM331.54,78.23c1.94,0,3.44-.58,4.5-1.74,1.06-1.16,1.6-2.86,1.6-5.1s-.53-3.94-1.6-5.1c-1.06-1.16-2.56-1.74-4.5-1.74h-3.31v13.68h3.31Z"/>
      <path class="st1" d="M352.56,79l-.82.34-2.38-6.41-5.86,1.2-1.9,5.21-.84-.34,5.54-15.26h.72l5.52,15.26ZM343.88,73.21l5.23-1.08-2.45-6.89-2.78,7.97Z"/>
      <path class="st1" d="M363.12,64.55h-4.2v14.5h-.91v-14.5h-4.22v-.82h9.34v.82Z"/>
      <path class="st1" d="M366.99,63.73h7.2v.82h-6.29v6.05h6.05v.84h-6.05v6.79h6.53v.82h-7.44v-15.31Z"/>
    </g>
  </g>
</svg>