<?xml version="1.0" encoding="UTF-8"?>
<svg id="_레이어_1" data-name="레이어_1" xmlns="http://www.w3.org/2000/svg" version="1.1" viewBox="0 0 701 438.84">
  <!-- Generator: Adobe Illustrator 29.6.0, SVG Export Plug-In . SVG Version: 2.1.1 Build 207)  -->
  <defs>
    <style>
      .st0 {
        fill: #7f7f7f;
        stroke: #7f7f7f;
        stroke-width: .25px;
      }

      .st0, .st1 {
        stroke-miterlimit: 10;
      }

      .st1 {
        fill: #ffb6cc;
        stroke: #ffb6cc;
        stroke-width: .75px;
      }
    </style>
  </defs>
  <g>
    <path class="st0" d="M195.74,218.27h1.37v4.5h6.23v-4.5h1.37v11.52h-8.96v-11.52ZM197.11,228.53h6.23v-4.5h-6.23v4.5ZM199.27,234.65h11.81v6.41h-10.44v4.5l11.56-.61v1.26l-12.92.68v-7.09h10.44v-3.89h-10.44v-1.26ZM209.89,215.79h1.33v16.85h-1.33v-16.85Z"/>
    <path class="st0" d="M215.68,220.54h8.42v7.63h-7.2v6.01l8.6-.61v1.26l-9.97.72v-8.64h7.2v-5.11h-7.06v-1.26ZM228.43,217.23h1.37v10.94l3.56-.25v1.26l-3.56.25v15.73h-1.37v-27.94Z"/>
    <path class="st0" d="M252.94,239.98v1.3l-17.78.9v-1.26l17.78-.94ZM249.49,220.86h-9.65v10.48h10.33v1.26h-11.7v-13h11.02v1.26Z"/>
    <path class="st0" d="M255.07,221.37h12.1v1.26h-5.4v2.2c0,.86.16,1.75.47,2.65.31.9.74,1.76,1.28,2.59.54.83,1.16,1.58,1.87,2.25.71.67,1.46,1.2,2.25,1.58l-.65,1.19c-.72-.36-1.4-.8-2.03-1.31-.64-.52-1.21-1.08-1.71-1.69-.5-.61-.94-1.25-1.3-1.93s-.65-1.34-.86-2.02c-.41,1.34-1.13,2.63-2.16,3.85-1.03,1.22-2.28,2.2-3.74,2.92l-.65-1.19c.79-.38,1.54-.91,2.25-1.57.71-.66,1.33-1.39,1.87-2.18s.97-1.63,1.28-2.52c.31-.89.47-1.76.47-2.63v-2.2h-5.33v-1.26ZM270.37,217.23h1.33v27.94h-1.33v-27.94Z"/>
    <path class="st0" d="M286.24,222.63h-8.53v10.69l9.22-.68v1.3l-10.55.76v-13.28h9.86v1.22ZM290.53,217.23h1.33v27.94h-1.33v-27.94Z"/>
    <path class="st0" d="M304.46,224.46c0-.86.14-1.64.41-2.34.28-.7.65-1.3,1.13-1.8.48-.5,1.04-.89,1.67-1.15.64-.26,1.33-.4,2.07-.4s1.44.13,2.09.4,1.21.65,1.69,1.15c.48.5.86,1.1,1.13,1.8.28.7.41,1.48.41,2.34s-.14,1.64-.41,2.34c-.28.7-.65,1.3-1.13,1.8-.48.5-1.04.89-1.69,1.15s-1.34.4-2.09.4-1.43-.13-2.07-.4c-.64-.26-1.19-.65-1.67-1.15-.48-.5-.86-1.1-1.13-1.8-.28-.7-.41-1.48-.41-2.34ZM305.83,224.46c0,.62.1,1.21.29,1.75.19.54.46,1.01.81,1.4.35.4.76.71,1.24.94.48.23,1.01.34,1.58.34s1.1-.11,1.58-.34c.48-.23.9-.54,1.26-.94s.64-.86.83-1.4c.19-.54.29-1.12.29-1.75s-.1-1.24-.29-1.78c-.19-.54-.47-1.01-.83-1.4s-.78-.7-1.26-.92c-.48-.22-1.01-.32-1.58-.32s-1.1.11-1.58.32c-.48.22-.89.52-1.24.92-.35.4-.62.86-.81,1.4-.19.54-.29,1.13-.29,1.78ZM320.7,245.92l-12.89.68v-10.15h1.37v8.82l11.52-.58v1.22ZM318.07,215.79h1.37v9.94l3.56-.25v1.26l-3.56.25v11.27h-1.37v-22.46Z"/>
    <path class="st0" d="M324.62,224.46c0-.86.14-1.64.41-2.34.28-.7.65-1.3,1.13-1.8.48-.5,1.04-.89,1.67-1.15.64-.26,1.33-.4,2.07-.4s1.44.13,2.09.4,1.21.65,1.69,1.15c.48.5.86,1.1,1.13,1.8.28.7.41,1.48.41,2.34s-.14,1.64-.41,2.34c-.28.7-.65,1.3-1.13,1.8-.48.5-1.04.89-1.69,1.15s-1.34.4-2.09.4-1.43-.13-2.07-.4c-.64-.26-1.19-.65-1.67-1.15-.48-.5-.86-1.1-1.13-1.8-.28-.7-.41-1.48-.41-2.34ZM325.99,224.46c0,.62.1,1.21.29,1.75.19.54.46,1.01.81,1.4.35.4.76.71,1.24.94.48.23,1.01.34,1.58.34s1.1-.11,1.58-.34c.48-.23.9-.54,1.26-.94s.64-.86.83-1.4c.19-.54.29-1.12.29-1.75s-.1-1.24-.29-1.78c-.19-.54-.47-1.01-.83-1.4s-.78-.7-1.26-.92c-.48-.22-1.01-.32-1.58-.32s-1.1.11-1.58.32c-.48.22-.89.52-1.24.92-.35.4-.62.86-.81,1.4-.19.54-.29,1.13-.29,1.78ZM328.51,241.42c0-.77.14-1.49.41-2.16.28-.67.67-1.25,1.17-1.75.5-.49,1.1-.88,1.78-1.15.68-.28,1.42-.41,2.21-.41s1.52.14,2.2.41,1.26.66,1.76,1.15c.5.49.89,1.07,1.17,1.75.28.67.41,1.39.41,2.16s-.14,1.49-.41,2.16c-.28.67-.67,1.25-1.17,1.75-.5.49-1.09.88-1.76,1.15s-1.4.41-2.2.41-1.53-.14-2.21-.41c-.68-.28-1.28-.66-1.78-1.15-.5-.49-.89-1.07-1.17-1.75-.28-.67-.41-1.39-.41-2.16ZM329.88,241.42c0,1.25.39,2.26,1.17,3.04.78.78,1.79,1.17,3.04,1.17s2.23-.39,3.01-1.17c.78-.78,1.17-1.79,1.17-3.04s-.39-2.23-1.17-3.02c-.78-.79-1.78-1.19-3.01-1.19s-2.26.4-3.04,1.19c-.78.79-1.17,1.8-1.17,3.02ZM338.23,215.79h1.37v5.26h3.56v1.26h-3.56v4.43l3.56-.25v1.26l-3.56.25v5.94h-1.37v-18.14Z"/>
    <path class="st0" d="M347.12,238.83l1.22.47-1.94,5.72-1.22-.47,1.94-5.72Z"/>
    <path class="st0" d="M369.58,219.17h1.12v22.97h-1.33v-20.99l-5.22,4.68-.83-1.04,6.26-5.62Z"/>
    <path class="st0" d="M396.08,234.22h-17.78v-1.26h17.78v1.26ZM380.38,220.29h13.61v1.26h-6.16v.5c0,.91.19,1.72.56,2.43.37.71.86,1.34,1.48,1.91.61.56,1.31,1.06,2.09,1.49.78.43,1.59.82,2.43,1.15l-.58,1.19c-1.51-.5-2.88-1.19-4.1-2.05-1.22-.86-2.08-1.86-2.56-2.99-.48,1.13-1.33,2.12-2.56,2.99-1.22.86-2.59,1.55-4.1,2.05l-.58-1.19c.82-.34,1.62-.72,2.41-1.15s1.49-.93,2.11-1.49c.61-.56,1.1-1.2,1.48-1.91s.56-1.52.56-2.43v-.5h-6.08v-1.26ZM381.64,242.14c0-.74.14-1.42.41-2.02.28-.6.67-1.1,1.17-1.49s1.09-.7,1.76-.92c.67-.22,1.4-.32,2.2-.32s1.52.11,2.2.32c.67.22,1.26.52,1.76.92s.89.89,1.17,1.49c.28.6.41,1.27.41,2.02s-.14,1.45-.41,2.03c-.28.59-.67,1.09-1.17,1.49-.5.41-1.09.72-1.76.94-.67.22-1.4.32-2.2.32s-1.52-.11-2.2-.32c-.67-.22-1.26-.53-1.76-.94-.5-.41-.89-.91-1.17-1.49-.28-.59-.41-1.27-.41-2.03ZM382.97,242.14c0,1.18.39,2.06,1.17,2.65.78.59,1.79.88,3.04.88s2.26-.29,3.02-.88c.77-.59,1.15-1.47,1.15-2.65s-.38-2.03-1.15-2.63c-.77-.6-1.78-.9-3.02-.9s-2.26.3-3.04.9c-.78.6-1.17,1.48-1.17,2.63ZM383.87,216.11l6.62,1.51v1.3l-6.62-1.51v-1.3Z"/>
    <path class="st0" d="M407.85,218.92h7.34v3.38c0,.98-.17,1.89-.5,2.72-.34.83-.82,1.6-1.44,2.32s-1.38,1.39-2.27,2.02c-.89.62-1.87,1.24-2.95,1.84l-.83-1.12c.98-.53,1.88-1.07,2.7-1.64.82-.56,1.52-1.16,2.11-1.78.59-.62,1.04-1.3,1.37-2.02.32-.72.49-1.51.49-2.38v-2.09h-6.01v-1.26ZM411.16,234.65h13.25v6.41h-11.88v4.5l13-.61v1.26l-14.36.68v-7.09h11.88v-3.89h-11.88v-1.26ZM418.18,216.47h1.33v6.66l3.64-.32v-7.02h1.37v16.85h-1.37v-8.53l-3.64.29v7.31h-1.33v-15.23Z"/>
    <path class="st0" d="M428.66,220.54h8.42v7.63h-7.2v6.01l8.6-.61v1.26l-9.97.72v-8.64h7.2v-5.11h-7.06v-1.26ZM438.74,226.8l3.92-.36v-9.22h1.33v27.94h-1.33v-17.42l-3.92.32v-1.26Z"/>
    <path class="st0" d="M448.82,220.54h8.78v7.63h-7.56v6.01l8.96-.65v1.26l-10.33.76v-8.64h7.56v-5.11h-7.42v-1.26ZM462.82,217.23h1.33v27.94h-1.33v-27.94Z"/>
    <path class="st0" d="M467.68,227.7c0-.89.14-1.7.41-2.45.28-.74.65-1.38,1.13-1.91.48-.53,1.05-.94,1.71-1.24.66-.3,1.37-.45,2.14-.45s1.48.15,2.14.45c.66.3,1.24.71,1.73,1.24.49.53.88,1.16,1.15,1.91.28.74.41,1.56.41,2.45s-.14,1.7-.41,2.45c-.28.74-.66,1.38-1.15,1.91-.49.53-1.07.94-1.73,1.22-.66.29-1.37.43-2.14.43s-1.48-.14-2.14-.43-1.23-.7-1.71-1.22c-.48-.53-.86-1.16-1.13-1.91-.28-.74-.41-1.56-.41-2.45ZM469.05,227.7c0,1.44.37,2.59,1.1,3.46.73.86,1.71,1.3,2.93,1.3s2.21-.43,2.95-1.3c.74-.86,1.12-2.02,1.12-3.46s-.37-2.6-1.12-3.47c-.74-.88-1.73-1.31-2.95-1.31s-2.2.44-2.93,1.31c-.73.88-1.1,2.03-1.1,3.47ZM481.36,217.23h1.37v10.94l3.56-.25v1.26l-3.56.25v15.73h-1.37v-27.94Z"/>
    <path class="st0" d="M505.88,233.86h-17.78v-1.22h8.24v-1.91c-1.22-.12-2.27-.51-3.13-1.17-.86-.66-1.3-1.61-1.3-2.86,0-.67.14-1.26.41-1.76.28-.5.64-.92,1.1-1.26.46-.34.99-.59,1.6-.76.61-.17,1.27-.25,1.96-.25s1.35.08,1.96.25c.61.17,1.15.42,1.62.76.47.34.83.76,1.1,1.26s.4,1.09.4,1.76c0,1.25-.43,2.2-1.28,2.86-.85.66-1.89,1.05-3.11,1.17v1.91h8.21v1.22ZM489.43,219.93h15.12v1.26h-15.12v-1.26ZM491.37,236.49h11.2v5.22h-9.79v3.85l10.87-.58v1.26l-12.24.65v-6.44h9.79v-2.7h-9.83v-1.26ZM493.28,226.69c0,.89.34,1.57,1.03,2.05.68.48,1.58.72,2.68.72s2.03-.24,2.72-.72c.68-.48,1.03-1.16,1.03-2.05s-.34-1.57-1.03-2.05c-.68-.48-1.59-.72-2.72-.72s-2,.24-2.68.72c-.68.48-1.03,1.16-1.03,2.05ZM493.31,215.68l7.34,1.66v1.3l-7.34-1.66v-1.3Z"/>
    <path class="st0" d="M192.82,279.28h8.42v3.74c0,1.01-.23,1.96-.68,2.86-.46.9-1.06,1.75-1.82,2.54s-1.63,1.54-2.63,2.23c-1,.7-2.03,1.34-3.11,1.94l-.83-1.12c.96-.53,1.9-1.1,2.83-1.73.92-.62,1.75-1.28,2.47-1.98.72-.7,1.3-1.44,1.75-2.23.44-.79.67-1.64.67-2.56v-2.45h-7.06v-1.26ZM196.82,301.42c0-.77.14-1.49.41-2.16.28-.67.67-1.25,1.17-1.75.5-.49,1.1-.88,1.78-1.15s1.42-.41,2.21-.41,1.52.14,2.2.41c.67.28,1.26.66,1.76,1.15.5.49.89,1.07,1.17,1.75.28.67.41,1.39.41,2.16s-.14,1.49-.41,2.16-.67,1.25-1.17,1.75c-.5.49-1.09.88-1.76,1.15-.67.28-1.4.41-2.2.41s-1.53-.14-2.21-.41-1.28-.66-1.78-1.15c-.5-.49-.89-1.07-1.17-1.75s-.41-1.39-.41-2.16ZM198.19,301.42c0,1.25.39,2.26,1.17,3.04.78.78,1.79,1.17,3.04,1.17s2.23-.39,3.01-1.17c.78-.78,1.17-1.79,1.17-3.04s-.39-2.23-1.17-3.02c-.78-.79-1.78-1.19-3.01-1.19s-2.26.4-3.04,1.19c-.78.79-1.17,1.8-1.17,3.02ZM202.83,287.2l3.92-.43v-4.46h-3.92v-1.26h3.92v-5.26h1.33v18.14h-1.33v-5.87l-3.92.4v-1.26Z"/>
    <path class="st0" d="M212.98,281.4h8.78v4.61c0,1.18-.25,2.23-.74,3.17-.49.94-1.14,1.79-1.94,2.57s-1.72,1.51-2.75,2.2c-1.03.68-2.09,1.35-3.17,2l-.79-1.12c.96-.6,1.92-1.21,2.88-1.82.96-.61,1.82-1.27,2.57-1.96.76-.7,1.37-1.45,1.85-2.27.48-.82.72-1.75.72-2.81v-3.31h-7.42v-1.26ZM226.92,277.23h1.33v27.94h-1.33v-27.94Z"/>
    <path class="st0" d="M240.85,284.46c0-.86.14-1.64.41-2.34.28-.7.65-1.3,1.13-1.8.48-.5,1.04-.89,1.67-1.15.64-.26,1.33-.4,2.07-.4s1.44.13,2.09.4,1.21.65,1.69,1.15c.48.5.86,1.1,1.13,1.8.28.7.41,1.48.41,2.34s-.14,1.64-.41,2.34c-.28.7-.65,1.3-1.13,1.8-.48.5-1.04.89-1.69,1.15s-1.34.4-2.09.4-1.43-.13-2.07-.4c-.64-.26-1.19-.65-1.67-1.15-.48-.5-.86-1.1-1.13-1.8-.28-.7-.41-1.48-.41-2.34ZM242.22,284.46c0,.62.1,1.21.29,1.75.19.54.46,1.01.81,1.4.35.4.76.71,1.24.94.48.23,1.01.34,1.58.34s1.1-.11,1.58-.34c.48-.23.9-.54,1.26-.94s.64-.86.83-1.4c.19-.54.29-1.12.29-1.75s-.1-1.24-.29-1.78c-.19-.54-.47-1.01-.83-1.4s-.78-.7-1.26-.92c-.48-.22-1.01-.32-1.58-.32s-1.1.11-1.58.32c-.48.22-.89.52-1.24.92-.35.4-.62.86-.81,1.4-.19.54-.29,1.13-.29,1.78ZM257.08,305.92l-12.89.68v-10.15h1.37v8.82l11.52-.58v1.22ZM254.46,275.79h1.37v9.94l3.56-.25v1.26l-3.56.25v11.27h-1.37v-22.46Z"/>
    <path class="st0" d="M261.01,284.46c0-.86.14-1.64.41-2.34.28-.7.65-1.3,1.13-1.8.48-.5,1.04-.89,1.67-1.15.64-.26,1.33-.4,2.07-.4s1.44.13,2.09.4,1.21.65,1.69,1.15c.48.5.86,1.1,1.13,1.8.28.7.41,1.48.41,2.34s-.14,1.64-.41,2.34c-.28.7-.65,1.3-1.13,1.8-.48.5-1.04.89-1.69,1.15s-1.34.4-2.09.4-1.43-.13-2.07-.4c-.64-.26-1.19-.65-1.67-1.15-.48-.5-.86-1.1-1.13-1.8-.28-.7-.41-1.48-.41-2.34ZM262.38,284.46c0,.62.1,1.21.29,1.75.19.54.46,1.01.81,1.4.35.4.76.71,1.24.94.48.23,1.01.34,1.58.34s1.1-.11,1.58-.34c.48-.23.9-.54,1.26-.94s.64-.86.83-1.4c.19-.54.29-1.12.29-1.75s-.1-1.24-.29-1.78c-.19-.54-.47-1.01-.83-1.4s-.78-.7-1.26-.92c-.48-.22-1.01-.32-1.58-.32s-1.1.11-1.58.32c-.48.22-.89.52-1.24.92-.35.4-.62.86-.81,1.4-.19.54-.29,1.13-.29,1.78ZM264.9,301.42c0-.77.14-1.49.41-2.16.28-.67.67-1.25,1.17-1.75.5-.49,1.1-.88,1.78-1.15.68-.28,1.42-.41,2.21-.41s1.52.14,2.2.41,1.26.66,1.76,1.15c.5.49.89,1.07,1.17,1.75.28.67.41,1.39.41,2.16s-.14,1.49-.41,2.16c-.28.67-.67,1.25-1.17,1.75-.5.49-1.09.88-1.76,1.15s-1.4.41-2.2.41-1.53-.14-2.21-.41c-.68-.28-1.28-.66-1.78-1.15-.5-.49-.89-1.07-1.17-1.75-.28-.67-.41-1.39-.41-2.16ZM266.26,301.42c0,1.25.39,2.26,1.17,3.04.78.78,1.79,1.17,3.04,1.17s2.23-.39,3.01-1.17c.78-.78,1.17-1.79,1.17-3.04s-.39-2.23-1.17-3.02c-.78-.79-1.78-1.19-3.01-1.19s-2.26.4-3.04,1.19c-.78.79-1.17,1.8-1.17,3.02ZM274.62,275.79h1.37v5.26h3.56v1.26h-3.56v4.43l3.56-.25v1.26l-3.56.25v5.94h-1.37v-18.14Z"/>
    <path class="st0" d="M293.01,295.08c-.72-.36-1.4-.8-2.03-1.31-.64-.52-1.21-1.08-1.71-1.69-.5-.61-.94-1.25-1.3-1.93s-.65-1.34-.86-2.02c-.41,1.34-1.13,2.63-2.16,3.85-1.03,1.22-2.28,2.2-3.74,2.92l-.65-1.19c.79-.38,1.54-.91,2.25-1.57.71-.66,1.33-1.39,1.87-2.18s.97-1.63,1.28-2.52c.31-.89.47-1.76.47-2.63v-4.36h1.37v4.36c0,.86.16,1.75.47,2.65.31.9.74,1.76,1.28,2.59.54.83,1.16,1.58,1.87,2.25.71.67,1.46,1.2,2.25,1.58l-.65,1.19ZM296.4,277.23h1.33v27.94h-1.33v-27.94Z"/>
    <path class="st0" d="M328.29,293.28h-17.78v-1.22h8.24v-4.03h-4.93v-9.94h11.02v1.26h-9.65v7.42h10.33v1.26h-5.44v4.03h8.21v1.22ZM313.86,301.42c0-.77.14-1.49.41-2.16.28-.67.67-1.25,1.17-1.75.5-.49,1.09-.88,1.76-1.15s1.4-.41,2.2-.41,1.52.14,2.2.41,1.26.66,1.76,1.15c.5.49.89,1.07,1.17,1.75.28.67.41,1.39.41,2.16s-.14,1.49-.41,2.16c-.28.67-.67,1.25-1.17,1.75-.5.49-1.09.88-1.76,1.15s-1.4.41-2.2.41-1.52-.14-2.2-.41-1.26-.66-1.76-1.15c-.5-.49-.89-1.07-1.17-1.75-.28-.67-.41-1.39-.41-2.16ZM315.19,301.42c0,1.25.39,2.26,1.17,3.04s1.79,1.17,3.04,1.17,2.26-.39,3.02-1.17c.77-.78,1.15-1.79,1.15-3.04s-.38-2.23-1.15-3.02c-.77-.79-1.78-1.19-3.02-1.19s-2.26.4-3.04,1.19c-.78.79-1.17,1.8-1.17,3.02Z"/>
    <path class="st0" d="M330.49,284.46c0-.86.14-1.64.41-2.34.28-.7.65-1.3,1.13-1.8.48-.5,1.04-.89,1.67-1.15.64-.26,1.33-.4,2.07-.4s1.44.13,2.09.4,1.21.65,1.69,1.15c.48.5.86,1.1,1.13,1.8.28.7.41,1.48.41,2.34s-.14,1.64-.41,2.34c-.28.7-.65,1.3-1.13,1.8-.48.5-1.04.89-1.69,1.15s-1.34.4-2.09.4-1.43-.13-2.07-.4c-.64-.26-1.19-.65-1.67-1.15-.48-.5-.86-1.1-1.13-1.8-.28-.7-.41-1.48-.41-2.34ZM331.86,284.46c0,.62.1,1.21.29,1.75.19.54.46,1.01.81,1.4.35.4.76.71,1.24.94.48.23,1.01.34,1.58.34s1.1-.11,1.58-.34c.48-.23.9-.54,1.26-.94s.64-.86.83-1.4c.19-.54.29-1.12.29-1.75s-.1-1.24-.29-1.78c-.19-.54-.47-1.01-.83-1.4s-.78-.7-1.26-.92c-.48-.22-1.01-.32-1.58-.32s-1.1.11-1.58.32c-.48.22-.89.52-1.24.92-.35.4-.62.86-.81,1.4-.19.54-.29,1.13-.29,1.78ZM346.72,305.92l-12.89.68v-10.15h1.37v8.82l11.52-.58v1.22ZM344.1,275.79h1.37v9.94l3.56-.25v1.26l-3.56.25v11.27h-1.37v-22.46Z"/>
    <path class="st0" d="M368.61,293.93l-8.24.43v10.8h-1.37v-10.73l-8.17.47v-1.3l17.78-.9v1.22ZM353.35,278.88h11.92v3.64c0,1.49-.13,2.83-.4,4.01-.26,1.19-.82,2.32-1.66,3.4l-1.12-.86c.67-.94,1.14-1.9,1.4-2.9.26-1,.4-2.24.4-3.73v-2.34h-10.55v-1.22Z"/>
    <path class="st0" d="M393.38,275.79h1.37v10.3l3.6-.25v1.26l-3.6.25v11.63h-1.37v-7.02h-13.86v-1.22h4.14v-6.55h1.37v6.55h2.16c.31-.46.58-.91.81-1.37.23-.46.41-.94.54-1.46s.23-1.07.29-1.67c.06-.6.09-1.27.09-2.02v-4.82h-7.67v-1.22h9.04v6.12c0,1.27-.1,2.43-.29,3.47-.19,1.04-.56,2.03-1.12,2.97h4.5v-14.94ZM396.04,305.92l-12.89.68v-9.79h1.37v8.46l11.52-.58v1.22Z"/>
    <path class="st0" d="M399.97,284.28c0-.84.14-1.6.41-2.27.28-.67.65-1.25,1.13-1.73s1.04-.85,1.67-1.12c.64-.26,1.33-.4,2.07-.4s1.44.13,2.09.4,1.21.64,1.69,1.12c.48.48.86,1.06,1.13,1.73.28.67.41,1.43.41,2.27s-.14,1.6-.41,2.27c-.28.67-.65,1.25-1.13,1.73-.48.48-1.04.85-1.69,1.1s-1.34.38-2.09.38-1.43-.13-2.07-.38c-.64-.25-1.19-.62-1.67-1.1-.48-.48-.86-1.06-1.13-1.73-.28-.67-.41-1.43-.41-2.27ZM401.34,284.28c0,1.27.37,2.29,1.1,3.06.73.77,1.67,1.15,2.83,1.15s2.1-.38,2.84-1.15c.74-.77,1.12-1.79,1.12-3.06s-.37-2.33-1.12-3.1c-.74-.77-1.69-1.15-2.84-1.15s-2.09.38-2.83,1.15c-.73.77-1.1,1.8-1.1,3.1ZM403.06,296.49l11.77-.83v11.09h-1.37v-9.72l-10.4.72v-1.26ZM413.58,275.79h1.37v8.86l3.56-.25v1.26l-3.56.25v8.03h-1.37v-18.14Z"/>
    <path class="st0" d="M427.83,282.63h-6.37v10.69l7.06-.54v1.3l-8.39.61v-13.28h7.7v1.22ZM431.04,277.91h1.33v9.18l3.64-.32v-9.54h1.37v27.94h-1.37v-17.1l-3.64.29v15.88h-1.33v-26.32Z"/>
    <path class="st0" d="M443.89,279.64h11.02v7.52h-9.97v5.47h11.05v1.26h-5.94v6.55l8.21-.47v1.3l-17.78.9v-1.26l8.21-.43v-6.59h-5.11v-7.99h9.97v-5h-9.65v-1.26Z"/>
    <path class="st0" d="M469.99,290.69c.58-.7,1.12-1.53,1.62-2.5.5-.97.76-1.99.76-3.04,0-.67-.09-1.32-.27-1.94-.18-.62-.46-1.18-.85-1.66-.38-.48-.87-.86-1.46-1.15-.59-.29-1.29-.43-2.11-.43-.77,0-1.43.15-2,.45-.56.3-1.04.7-1.44,1.19-.4.49-.71,1.05-.94,1.67-.23.62-.39,1.26-.49,1.91l-1.26-.25c.1-.82.3-1.6.61-2.34.31-.74.72-1.4,1.22-1.98.5-.58,1.12-1.03,1.84-1.37.72-.34,1.54-.5,2.45-.5,1.03,0,1.93.17,2.68.52.76.35,1.38.82,1.87,1.42.49.6.86,1.28,1.1,2.05.24.77.36,1.57.36,2.41,0,.65-.09,1.29-.27,1.93-.18.64-.41,1.24-.68,1.8-.28.56-.58,1.09-.92,1.58-.34.49-.66.92-.97,1.28l-7.92,9.14h11.77v1.26h-13.64v-1.01l8.93-10.44Z"/>
    <path class="st0" d="M478.77,279.13h11.74v1.22h-10.4v8.96c1.3-1.22,2.93-1.84,4.9-1.84.96,0,1.84.18,2.65.54.8.36,1.49.86,2.07,1.51s1.03,1.43,1.35,2.34c.32.91.49,1.92.49,3.02s-.14,2.09-.43,3.04c-.29.95-.71,1.76-1.28,2.45-.56.68-1.26,1.22-2.09,1.62s-1.78.59-2.86.59-1.99-.18-2.79-.54c-.8-.36-1.49-.82-2.05-1.37-.56-.55-1.01-1.18-1.35-1.87-.34-.7-.56-1.38-.68-2.05l1.33-.29c.1.62.29,1.23.58,1.82.29.59.66,1.1,1.12,1.55.46.44,1,.8,1.64,1.08.64.28,1.37.41,2.21.41,1.58,0,2.86-.56,3.83-1.69.97-1.13,1.46-2.71,1.46-4.75,0-.86-.12-1.67-.36-2.43-.24-.76-.58-1.41-1.03-1.96-.44-.55-.99-.98-1.64-1.3-.65-.31-1.37-.47-2.16-.47-1.08,0-2.05.25-2.9.74-.85.49-1.63,1.16-2.32,2l-1.01-.58v-11.77Z"/>
    <path class="st0" d="M504.8,279.24h1.15v15.91h3.56v1.22h-3.56v5.72h-1.33v-5.72h-11.05v-.97l11.23-16.16ZM504.62,295.15v-13.36l-9.4,13.36h9.4Z"/>
    <path class="st0" d="M264.73,360.22v-4.89h-6.19v-.91h12.84v.91h-5.67v4.89h-.99ZM270.03,364.92l-9.13.52v-6.92h.99v5.95l8.14-.44v.88ZM269.02,344.82v7.12h-8.09v-7.12h8.09ZM261.92,351.04h6.11v-5.3h-6.11v5.3Z"/>
    <path class="st0" d="M283.94,344.23h.99v20.18h-.99v-5.8l-10.92.52v-.91l10.92-.57v-13.42ZM273.57,350.13c0-.62.1-1.2.31-1.73s.49-.98.86-1.37c.36-.38.8-.68,1.3-.9.5-.22,1.05-.32,1.64-.32s1.13.11,1.64.32c.5.22.94.52,1.3.9.36.38.65.84.86,1.37s.31,1.1.31,1.73-.1,1.2-.31,1.73-.49.98-.86,1.35c-.36.37-.8.67-1.3.88-.5.22-1.05.33-1.64.33s-1.14-.11-1.64-.33c-.5-.22-.94-.51-1.3-.88-.36-.37-.65-.82-.86-1.35s-.31-1.1-.31-1.73ZM274.56,350.13c0,.5.08.96.23,1.36.16.41.38.76.66,1.07.29.3.62.54.99.7.37.17.78.25,1.23.25s.84-.08,1.22-.25c.38-.16.72-.4,1-.7.29-.3.51-.66.66-1.07.16-.41.23-.86.23-1.36s-.08-.96-.23-1.38c-.16-.42-.38-.78-.66-1.08-.29-.3-.62-.54-1-.7-.38-.16-.79-.25-1.22-.25s-.86.08-1.23.25c-.37.17-.7.4-.99.7s-.51.66-.66,1.08c-.16.42-.23.88-.23,1.38Z"/>
    <path class="st0" d="M290.68,346.93h.99v4.11h-.99v-4.11ZM290.68,358.11h.99v4.11h-.99v-4.11Z"/>
    <path class="st0" d="M301.34,353.92c0-1.32.12-2.51.35-3.58s.58-1.98,1.03-2.73,1-1.33,1.65-1.73c.65-.4,1.4-.6,2.25-.6s1.58.2,2.24.6c.66.4,1.21.98,1.66,1.73s.79,1.66,1.03,2.73.35,2.26.35,3.58-.12,2.51-.35,3.58c-.23,1.07-.58,1.97-1.03,2.72-.45.75-1.01,1.32-1.66,1.73-.66.41-1.4.61-2.24.61s-1.6-.2-2.25-.61c-.65-.41-1.2-.98-1.65-1.73-.45-.75-.79-1.65-1.03-2.72-.23-1.07-.35-2.26-.35-3.58ZM310.93,353.92c0-1.16-.1-2.22-.29-3.17-.19-.95-.47-1.77-.83-2.44-.36-.68-.81-1.2-1.35-1.56-.54-.36-1.15-.55-1.85-.55s-1.33.18-1.87.55c-.54.36-.99.88-1.35,1.56-.36.68-.64,1.49-.82,2.44s-.27,2.01-.27,3.17.09,2.21.27,3.16.46,1.75.82,2.43c.36.68.81,1.2,1.35,1.57.54.37,1.16.56,1.87.56s1.31-.19,1.85-.56c.54-.37.99-.9,1.35-1.57.36-.68.64-1.49.83-2.43.19-.94.29-2,.29-3.16Z"/>
    <path class="st0" d="M317.25,352.75h1.46c1.25,0,2.17-.31,2.77-.92.6-.61.9-1.39.9-2.33,0-.42-.06-.82-.19-1.22-.13-.4-.33-.75-.61-1.07s-.64-.56-1.09-.75c-.45-.19-.99-.29-1.61-.29-.52,0-.98.1-1.39.31-.41.21-.76.48-1.07.82-.3.34-.55.72-.74,1.16-.19.43-.32.88-.39,1.35l-.94-.21c.07-.55.22-1.09.46-1.61s.55-.98.94-1.39.85-.73,1.38-.98,1.11-.36,1.76-.36c.78,0,1.45.12,2.01.36.56.24,1.03.56,1.39.96.36.4.63.85.81,1.35.17.5.26,1.02.26,1.56,0,.88-.2,1.66-.61,2.31-.41.66-.97,1.13-1.68,1.4.4.17.77.41,1.1.7.34.29.63.64.88,1.03.25.39.45.81.58,1.27.14.46.21.94.21,1.44,0,.68-.1,1.31-.31,1.9s-.52,1.1-.94,1.55-.93.79-1.55,1.05c-.62.26-1.33.39-2.15.39-.69,0-1.33-.11-1.92-.34s-1.1-.53-1.55-.92c-.44-.39-.8-.85-1.07-1.38-.27-.53-.44-1.1-.51-1.7l.96-.21c.07.54.22,1.03.44,1.47.23.44.52.82.87,1.14.35.32.77.57,1.23.75.47.18.98.27,1.53.27,1.27,0,2.24-.36,2.94-1.09.69-.73,1.04-1.69,1.04-2.89,0-.55-.1-1.08-.31-1.57s-.49-.92-.86-1.29c-.36-.36-.8-.65-1.31-.86-.51-.21-1.07-.31-1.68-.31h-1.46v-.88Z"/>
    <path class="st0" d="M331.73,345.63h.81v16.59h-.96v-15.16l-3.77,3.38-.6-.75,4.52-4.06Z"/>
    <path class="st0" d="M345.87,354.21h-7.28v-.94h7.28v.94Z"/>
    <path class="st0" d="M351.85,352.75h1.46c1.25,0,2.17-.31,2.77-.92.6-.61.9-1.39.9-2.33,0-.42-.06-.82-.19-1.22-.13-.4-.33-.75-.61-1.07s-.64-.56-1.09-.75c-.45-.19-.99-.29-1.61-.29-.52,0-.98.1-1.39.31-.41.21-.76.48-1.07.82-.3.34-.55.72-.74,1.16-.19.43-.32.88-.39,1.35l-.94-.21c.07-.55.22-1.09.46-1.61s.55-.98.94-1.39.85-.73,1.38-.98,1.11-.36,1.76-.36c.78,0,1.45.12,2.01.36.56.24,1.03.56,1.39.96.36.4.63.85.81,1.35.17.5.26,1.02.26,1.56,0,.88-.2,1.66-.61,2.31-.41.66-.97,1.13-1.68,1.4.4.17.77.41,1.1.7.34.29.63.64.88,1.03.25.39.45.81.58,1.27.14.46.21.94.21,1.44,0,.68-.1,1.31-.31,1.9s-.52,1.1-.94,1.55-.93.79-1.55,1.05c-.62.26-1.33.39-2.15.39-.69,0-1.33-.11-1.92-.34s-1.1-.53-1.55-.92c-.44-.39-.8-.85-1.07-1.38-.27-.53-.44-1.1-.51-1.7l.96-.21c.07.54.22,1.03.44,1.47.23.44.52.82.87,1.14.35.32.77.57,1.23.75.47.18.98.27,1.53.27,1.27,0,2.24-.36,2.94-1.09.69-.73,1.04-1.69,1.04-2.89,0-.55-.1-1.08-.31-1.57s-.49-.92-.86-1.29c-.36-.36-.8-.65-1.31-.86-.51-.21-1.07-.31-1.68-.31h-1.46v-.88Z"/>
    <path class="st0" d="M361.37,349.37c0-.5.09-1,.27-1.5.18-.49.45-.93.81-1.31.35-.38.8-.69,1.34-.92.54-.23,1.16-.35,1.87-.35s1.33.12,1.87.35c.54.23.98.54,1.34.92s.62.82.81,1.31c.18.49.27.99.27,1.5,0,.69-.18,1.39-.53,2.09-.36.7-.87,1.23-1.55,1.6.88.36,1.57.96,2.07,1.79.49.83.74,1.77.74,2.81,0,.73-.12,1.39-.35,1.99-.23.6-.57,1.11-1.01,1.53-.44.42-.97.76-1.59,1-.62.24-1.3.36-2.07.36s-1.46-.12-2.08-.36c-.62-.24-1.16-.58-1.6-1-.44-.42-.78-.94-1.01-1.53s-.35-1.26-.35-1.99c0-1.04.25-1.98.74-2.81.49-.83,1.18-1.43,2.07-1.79-.69-.36-1.21-.9-1.55-1.6-.34-.7-.51-1.4-.51-2.09ZM369.72,357.67c0-.54-.09-1.05-.26-1.55-.17-.49-.43-.93-.78-1.31-.35-.38-.77-.68-1.27-.9-.5-.22-1.08-.32-1.74-.32s-1.24.11-1.75.32c-.51.22-.94.52-1.29.9-.35.38-.61.82-.78,1.31-.17.49-.26,1.01-.26,1.55,0,.57.09,1.1.27,1.59.18.49.45.91.81,1.26.35.36.78.63,1.29.83.5.2,1.07.3,1.72.3s1.21-.1,1.72-.3c.5-.2.93-.48,1.27-.83.35-.35.61-.78.79-1.26s.27-1.01.27-1.59ZM368.96,349.37c0-.38-.06-.76-.2-1.14-.13-.38-.33-.72-.61-1.01-.28-.29-.62-.54-1.03-.73-.41-.19-.9-.29-1.47-.29s-1.07.1-1.48.29c-.42.19-.76.43-1.04.73-.28.29-.48.63-.61,1.01s-.19.76-.19,1.14.06.77.19,1.16.33.75.61,1.07c.28.32.62.58,1.04.78s.91.3,1.48.3,1.06-.1,1.47-.3c.41-.2.75-.46,1.03-.78.28-.32.48-.68.61-1.07.13-.39.2-.78.2-1.16Z"/>
    <path class="st0" d="M379.39,353.95c.42-.5.81-1.1,1.17-1.81.36-.7.55-1.43.55-2.2,0-.48-.06-.95-.19-1.4-.13-.45-.33-.85-.61-1.2-.28-.35-.63-.62-1.05-.83-.42-.21-.93-.31-1.52-.31-.56,0-1.04.11-1.44.33-.41.22-.75.5-1.04.86-.29.36-.51.76-.68,1.21-.17.45-.28.91-.35,1.38l-.91-.18c.07-.59.22-1.15.44-1.69.23-.54.52-1.01.88-1.43.36-.42.81-.75,1.33-.99.52-.24,1.11-.36,1.77-.36.75,0,1.39.13,1.94.38.55.25,1,.59,1.35,1.03.35.43.62.93.79,1.48.17.56.26,1.14.26,1.74,0,.47-.06.93-.19,1.39-.13.46-.29.89-.49,1.3-.2.41-.42.79-.66,1.14-.24.36-.48.66-.7.92l-5.72,6.6h8.5v.91h-9.85v-.73l6.45-7.54Z"/>
    <path class="st0" d="M392.7,354.21h-7.28v-.94h7.28v.94Z"/>
    <path class="st0" d="M398.68,352.75h1.46c1.25,0,2.17-.31,2.77-.92.6-.61.9-1.39.9-2.33,0-.42-.06-.82-.19-1.22-.13-.4-.33-.75-.61-1.07s-.64-.56-1.09-.75c-.45-.19-.99-.29-1.61-.29-.52,0-.98.1-1.39.31-.41.21-.76.48-1.07.82-.3.34-.55.72-.74,1.16-.19.43-.32.88-.39,1.35l-.94-.21c.07-.55.22-1.09.46-1.61s.55-.98.94-1.39.85-.73,1.38-.98,1.11-.36,1.76-.36c.78,0,1.45.12,2.01.36.56.24,1.03.56,1.39.96.36.4.63.85.81,1.35.17.5.26,1.02.26,1.56,0,.88-.2,1.66-.61,2.31-.41.66-.97,1.13-1.68,1.4.4.17.77.41,1.1.7.34.29.63.64.88,1.03.25.39.45.81.58,1.27.14.46.21.94.21,1.44,0,.68-.1,1.31-.31,1.9s-.52,1.1-.94,1.55-.93.79-1.55,1.05c-.62.26-1.33.39-2.15.39-.69,0-1.33-.11-1.92-.34s-1.1-.53-1.55-.92c-.44-.39-.8-.85-1.07-1.38-.27-.53-.44-1.1-.51-1.7l.96-.21c.07.54.22,1.03.44,1.47.23.44.52.82.87,1.14.35.32.77.57,1.23.75.47.18.98.27,1.53.27,1.27,0,2.24-.36,2.94-1.09.69-.73,1.04-1.69,1.04-2.89,0-.55-.1-1.08-.31-1.57s-.49-.92-.86-1.29c-.36-.36-.8-.65-1.31-.86-.51-.21-1.07-.31-1.68-.31h-1.46v-.88Z"/>
    <path class="st0" d="M408.2,349.37c0-.5.09-1,.27-1.5.18-.49.45-.93.81-1.31.35-.38.8-.69,1.34-.92.54-.23,1.16-.35,1.87-.35s1.33.12,1.87.35c.54.23.98.54,1.34.92s.62.82.81,1.31c.18.49.27.99.27,1.5,0,.69-.18,1.39-.53,2.09-.36.7-.87,1.23-1.55,1.6.88.36,1.57.96,2.07,1.79.49.83.74,1.77.74,2.81,0,.73-.12,1.39-.35,1.99-.23.6-.57,1.11-1.01,1.53-.44.42-.97.76-1.59,1-.62.24-1.3.36-2.07.36s-1.46-.12-2.08-.36c-.62-.24-1.16-.58-1.6-1-.44-.42-.78-.94-1.01-1.53s-.35-1.26-.35-1.99c0-1.04.25-1.98.74-2.81.49-.83,1.18-1.43,2.07-1.79-.69-.36-1.21-.9-1.55-1.6-.34-.7-.51-1.4-.51-2.09ZM416.54,357.67c0-.54-.09-1.05-.26-1.55-.17-.49-.43-.93-.78-1.31-.35-.38-.77-.68-1.27-.9-.5-.22-1.08-.32-1.74-.32s-1.24.11-1.75.32c-.51.22-.94.52-1.29.9-.35.38-.61.82-.78,1.31-.17.49-.26,1.01-.26,1.55,0,.57.09,1.1.27,1.59.18.49.45.91.81,1.26.35.36.78.63,1.29.83.5.2,1.07.3,1.72.3s1.21-.1,1.72-.3c.5-.2.93-.48,1.27-.83.35-.35.61-.78.79-1.26s.27-1.01.27-1.59ZM415.79,349.37c0-.38-.06-.76-.2-1.14-.13-.38-.33-.72-.61-1.01-.28-.29-.62-.54-1.03-.73-.41-.19-.9-.29-1.47-.29s-1.07.1-1.48.29c-.42.19-.76.43-1.04.73-.28.29-.48.63-.61,1.01s-.19.76-.19,1.14.06.77.19,1.16.33.75.61,1.07c.28.32.62.58,1.04.78s.91.3,1.48.3,1.06-.1,1.47-.3c.41-.2.75-.46,1.03-.78.28-.32.48-.68.61-1.07.13-.39.2-.78.2-1.16Z"/>
    <path class="st0" d="M423.12,352.75h1.46c1.25,0,2.17-.31,2.77-.92.6-.61.9-1.39.9-2.33,0-.42-.06-.82-.19-1.22-.13-.4-.33-.75-.61-1.07s-.64-.56-1.09-.75c-.45-.19-.99-.29-1.61-.29-.52,0-.98.1-1.39.31-.41.21-.76.48-1.07.82-.3.34-.55.72-.74,1.16-.19.43-.32.88-.39,1.35l-.94-.21c.07-.55.22-1.09.46-1.61s.55-.98.94-1.39.85-.73,1.38-.98,1.11-.36,1.76-.36c.78,0,1.45.12,2.01.36.56.24,1.03.56,1.39.96.36.4.63.85.81,1.35.17.5.26,1.02.26,1.56,0,.88-.2,1.66-.61,2.31-.41.66-.97,1.13-1.68,1.4.4.17.77.41,1.1.7.34.29.63.64.88,1.03.25.39.45.81.58,1.27.14.46.21.94.21,1.44,0,.68-.1,1.31-.31,1.9s-.52,1.1-.94,1.55-.93.79-1.55,1.05c-.62.26-1.33.39-2.15.39-.69,0-1.33-.11-1.92-.34s-1.1-.53-1.55-.92c-.44-.39-.8-.85-1.07-1.38-.27-.53-.44-1.1-.51-1.7l.96-.21c.07.54.22,1.03.44,1.47.23.44.52.82.87,1.14.35.32.77.57,1.23.75.47.18.98.27,1.53.27,1.27,0,2.24-.36,2.94-1.09.69-.73,1.04-1.69,1.04-2.89,0-.55-.1-1.08-.31-1.57s-.49-.92-.86-1.29c-.36-.36-.8-.65-1.31-.86-.51-.21-1.07-.31-1.68-.31h-1.46v-.88Z"/>
    <path class="st0" d="M432.63,349.37c0-.5.09-1,.27-1.5.18-.49.45-.93.81-1.31.35-.38.8-.69,1.34-.92.54-.23,1.16-.35,1.87-.35s1.33.12,1.87.35c.54.23.98.54,1.34.92s.62.82.81,1.31c.18.49.27.99.27,1.5,0,.69-.18,1.39-.53,2.09-.36.7-.87,1.23-1.55,1.6.88.36,1.57.96,2.07,1.79.49.83.74,1.77.74,2.81,0,.73-.12,1.39-.35,1.99-.23.6-.57,1.11-1.01,1.53-.44.42-.97.76-1.59,1-.62.24-1.3.36-2.07.36s-1.46-.12-2.08-.36c-.62-.24-1.16-.58-1.6-1-.44-.42-.78-.94-1.01-1.53s-.35-1.26-.35-1.99c0-1.04.25-1.98.74-2.81.49-.83,1.18-1.43,2.07-1.79-.69-.36-1.21-.9-1.55-1.6-.34-.7-.51-1.4-.51-2.09ZM440.98,357.67c0-.54-.09-1.05-.26-1.55-.17-.49-.43-.93-.78-1.31-.35-.38-.77-.68-1.27-.9-.5-.22-1.08-.32-1.74-.32s-1.24.11-1.75.32c-.51.22-.94.52-1.29.9-.35.38-.61.82-.78,1.31-.17.49-.26,1.01-.26,1.55,0,.57.09,1.1.27,1.59.18.49.45.91.81,1.26.35.36.78.63,1.29.83.5.2,1.07.3,1.72.3s1.21-.1,1.72-.3c.5-.2.93-.48,1.27-.83.35-.35.61-.78.79-1.26s.27-1.01.27-1.59ZM440.23,349.37c0-.38-.06-.76-.2-1.14-.13-.38-.33-.72-.61-1.01-.28-.29-.62-.54-1.03-.73-.41-.19-.9-.29-1.47-.29s-1.07.1-1.48.29c-.42.19-.76.43-1.04.73-.28.29-.48.63-.61,1.01s-.19.76-.19,1.14.06.77.19,1.16.33.75.61,1.07c.28.32.62.58,1.04.78s.91.3,1.48.3,1.06-.1,1.47-.3c.41-.2.75-.46,1.03-.78.28-.32.48-.68.61-1.07.13-.39.2-.78.2-1.16Z"/>
  </g>
  <g>
    <path class="st1" d="M287.63,130.66c0-1.43.25-2.75.74-3.96s1.17-2.25,2.04-3.13c.86-.88,1.89-1.57,3.08-2.06,1.19-.5,2.5-.74,3.93-.74s2.74.25,3.93.74c1.19.5,2.22,1.18,3.08,2.06.86.88,1.53,1.92,2.01,3.13.48,1.21.71,2.53.71,3.96s-.21,2.61-.63,3.77c-.42,1.16-1.02,2.16-1.79,3.03-.77.86-1.69,1.57-2.75,2.12-1.06.55-2.24.88-3.52.99v12.81l12.54-.72v1.98l-27.17,1.38v-1.93l12.54-.66v-12.87c-1.28-.11-2.46-.44-3.52-.99-1.06-.55-1.98-1.26-2.75-2.12-.77-.86-1.38-1.87-1.81-3.03-.44-1.15-.66-2.41-.66-3.77ZM289.73,130.66c0,1.21.19,2.3.58,3.27.39.97.93,1.81,1.62,2.53.7.71,1.51,1.27,2.45,1.65.94.39,1.95.58,3.05.58s2.11-.19,3.02-.58c.92-.38,1.72-.94,2.42-1.65.7-.71,1.24-1.56,1.62-2.53.39-.97.58-2.06.58-3.27s-.19-2.25-.58-3.24c-.38-.99-.93-1.83-1.62-2.53-.7-.7-1.5-1.24-2.42-1.62-.92-.38-1.92-.58-3.02-.58s-2.12.19-3.05.58c-.94.39-1.75.93-2.45,1.62-.7.7-1.24,1.54-1.62,2.53-.38.99-.58,2.07-.58,3.24Z"/>
    <path class="st1" d="M332.46,145.18c-1.1-.55-2.14-1.22-3.11-2.01-.97-.79-1.84-1.65-2.61-2.58s-1.43-1.92-1.98-2.94c-.55-1.03-.99-2.05-1.32-3.08-.62,2.05-1.72,4.02-3.3,5.88-1.58,1.87-3.48,3.35-5.72,4.46l-.99-1.81c1.21-.59,2.36-1.38,3.44-2.39,1.08-1.01,2.04-2.12,2.86-3.33.83-1.21,1.48-2.49,1.95-3.85.48-1.36.71-2.7.71-4.02v-6.65h2.09v6.65c0,1.32.24,2.67.71,4.04.48,1.38,1.13,2.69,1.95,3.96.82,1.27,1.78,2.41,2.86,3.44,1.08,1.03,2.23,1.83,3.44,2.42l-.99,1.81ZM337.63,117.9h2.03v42.68h-2.03v-42.68Z"/>
    <path class="st1" d="M372.61,141.93h-27.17v-1.93h27.17v1.93ZM369.75,161.68l-19.31,1.1v-14.63h2.09v12.6l17.21-.94v1.87ZM368.37,134.4h-17.88v-16.12h2.09v14.25h15.79v1.87Z"/>
    <path class="st1" d="M391.69,120.48h13.42v5.17c0,1.47-.38,2.83-1.13,4.1-.75,1.27-1.74,2.45-2.97,3.55-1.23,1.1-2.63,2.14-4.21,3.11-1.58.97-3.19,1.92-4.84,2.83l-1.27-1.71c1.47-.81,2.94-1.64,4.43-2.5,1.48-.86,2.81-1.78,3.96-2.75,1.15-.97,2.1-2.01,2.83-3.11.73-1.1,1.1-2.29,1.1-3.57v-3.19h-11.33v-1.92ZM396.75,144.52h18.04v9.79h-15.95v6.88l17.66-.94v1.92l-19.75,1.04v-10.83h15.95v-5.94h-15.95v-1.92ZM412.98,115.7h2.03v25.74h-2.03v-25.74Z"/>
  </g>
  <g>
    <path class="st1" d="M298.9,75.32h.89v14.5h5.83v.82h-6.72v-15.31Z"/>
    <path class="st1" d="M308.36,82.98c0-1.2.18-2.29.53-3.28.35-.98.84-1.82,1.46-2.51s1.35-1.22,2.18-1.6c.83-.38,1.73-.56,2.69-.56s1.86.19,2.69.56c.83.38,1.56.91,2.18,1.6s1.11,1.52,1.46,2.51c.35.98.53,2.08.53,3.28s-.18,2.29-.53,3.28c-.35.98-.84,1.82-1.46,2.51s-1.35,1.22-2.18,1.6c-.83.38-1.73.56-2.69.56s-1.86-.19-2.69-.56c-.83-.38-1.56-.91-2.18-1.6s-1.11-1.52-1.46-2.51c-.35-.98-.53-2.08-.53-3.28ZM309.27,82.98c0,1.07.16,2.04.47,2.92.31.87.74,1.62,1.27,2.23.54.62,1.16,1.09,1.88,1.43.72.34,1.5.5,2.33.5s1.61-.17,2.33-.5c.72-.34,1.35-.81,1.88-1.43.54-.62.96-1.36,1.26-2.23.3-.87.46-1.84.46-2.92s-.15-2.04-.46-2.92c-.3-.87-.72-1.62-1.26-2.23-.54-.62-1.16-1.09-1.88-1.43-.72-.34-1.5-.5-2.33-.5s-1.61.17-2.33.5c-.72.34-1.35.81-1.88,1.43-.54.62-.96,1.36-1.27,2.23-.31.87-.47,1.84-.47,2.92Z"/>
    <path class="st1" d="M339.24,87.39c-.59,1.09-1.38,1.95-2.35,2.58-.98.63-2.11.95-3.41.95-1.01,0-1.94-.19-2.8-.58s-1.6-.93-2.23-1.63c-.63-.7-1.13-1.54-1.49-2.51-.36-.97-.54-2.04-.54-3.23s.18-2.24.54-3.22c.36-.98.86-1.82,1.49-2.52.63-.7,1.38-1.25,2.23-1.63.86-.38,1.79-.58,2.8-.58,1.3,0,2.41.32,3.34.95.93.63,1.69,1.49,2.28,2.58l-.79.48c-.51-.96-1.17-1.72-1.97-2.29-.8-.57-1.75-.85-2.86-.85-.85,0-1.64.17-2.39.5s-1.39.82-1.94,1.44c-.55.62-.99,1.37-1.31,2.24-.32.87-.48,1.84-.48,2.89s.16,2.02.48,2.89c.32.87.76,1.62,1.31,2.24.55.62,1.2,1.1,1.94,1.44s1.54.5,2.39.5c1.1,0,2.08-.28,2.93-.85.85-.57,1.53-1.34,2.04-2.32l.79.5Z"/>
    <path class="st1" d="M353.72,90.58l-.82.34-2.38-6.41-5.86,1.2-1.9,5.21-.84-.34,5.54-15.26h.72l5.52,15.26ZM345.03,84.8l5.23-1.08-2.45-6.89-2.78,7.97Z"/>
    <path class="st1" d="M364.28,76.14h-4.2v14.5h-.91v-14.5h-4.22v-.82h9.34v.82Z"/>
    <path class="st1" d="M368.28,75.32h.91v15.31h-.91v-15.31Z"/>
    <path class="st1" d="M373.95,82.98c0-1.2.18-2.29.53-3.28.35-.98.84-1.82,1.46-2.51s1.35-1.22,2.18-1.6c.83-.38,1.73-.56,2.69-.56s1.86.19,2.69.56c.83.38,1.56.91,2.18,1.6s1.11,1.52,1.46,2.51c.35.98.53,2.08.53,3.28s-.18,2.29-.53,3.28c-.35.98-.84,1.82-1.46,2.51s-1.35,1.22-2.18,1.6c-.83.38-1.73.56-2.69.56s-1.86-.19-2.69-.56c-.83-.38-1.56-.91-2.18-1.6s-1.11-1.52-1.46-2.51c-.35-.98-.53-2.08-.53-3.28ZM374.86,82.98c0,1.07.16,2.04.47,2.92.31.87.74,1.62,1.27,2.23.54.62,1.16,1.09,1.88,1.43.72.34,1.5.5,2.33.5s1.61-.17,2.33-.5c.72-.34,1.35-.81,1.88-1.43.54-.62.96-1.36,1.26-2.23.3-.87.46-1.84.46-2.92s-.15-2.04-.46-2.92c-.3-.87-.72-1.62-1.26-2.23-.54-.62-1.16-1.09-1.88-1.43-.72-.34-1.5-.5-2.33-.5s-1.61.17-2.33.5c-.72.34-1.35.81-1.88,1.43-.54.62-.96,1.36-1.27,2.23-.31.87-.47,1.84-.47,2.92Z"/>
    <path class="st1" d="M402,90.63h-.79l-7.97-13.49v13.49h-.91v-15.31h.79l7.97,13.51v-13.51h.91v15.31Z"/>
  </g>
</svg>